<?xml version="1.0" encoding="iso-8859-1"?>
<!-- Generator: Adobe Illustrator 24.2.1, SVG Export Plug-In . SVG Version: 6.00 Build 0)  -->
<svg version="1.1" xmlns="http://www.w3.org/2000/svg" xmlns:xlink="http://www.w3.org/1999/xlink" x="0px" y="0px"
	 viewBox="0 0 128 128" style="enable-background:new 0 0 128 128;" xml:space="preserve">
<g id="Layer_1">
	<g>
		<path style="fill:#CCCCCC;" d="M125.5,107.5c0,9.9-8.1,18-18,18h-87c-9.9,0-18-8.1-18-18v-87c0-9.9,8.1-18,18-18h87
			c9.9,0,18,8.1,18,18V107.5z"/>
		<path style="fill:none;stroke:#4D4D4D;stroke-width:0.25;stroke-miterlimit:10;" d="M125.5,107.5c0,9.9-8.1,18-18,18h-87
			c-9.9,0-18-8.1-18-18v-87c0-9.9,8.1-18,18-18h87c9.9,0,18,8.1,18,18V107.5z"/>
	</g>
</g>
<g id="Layer_2">
	<g id="Layer_1_1_">
	</g>
	<g id="Layer_1_2_">
	</g>
	<g id="box">
		<rect x="22.831" y="32.505" style="fill:none;" width="74.9" height="74.9"/>
	</g>
	<g id="icon">
		<g>
			<path style="fill:#FFFFFF;" d="M46.576,78.341l14.004-0.06c0.498,0,0.876,0.418,0.817,0.916l-2.072,17.41
				c-0.08,0.717,0.478,1.355,1.215,1.355h3.785c0.578,0,1.076-0.398,1.195-0.976l1.355-6.534c0.02-0.1,0.02-0.199,0-0.299
				c-0.438-2.59-2.052-12.032-2.51-14.323c-0.359-1.853-0.1-3.426,0.817-4.681c0.02-0.02,0.02-0.04,0.04-0.06
				c0.558-0.757,1.753-0.1,1.414,0.797c-0.299,0.797-0.438,1.693-0.259,2.709c0.618,3.486,3.865,22.35,3.904,22.53
				c0.1,0.578,0.598,1.036,1.195,1.036h3.406c0.657,0,1.275-0.618,1.215-1.374c-1.255-13.386-1.394-14.223-1.434-15.279
				c-0.02-0.279,0.12-0.538,0.339-0.697c2.032-1.454,4.123-2.351,5.757-2.351c1.215,0,2.131,0.478,2.769,1.474
				c0.02,0.02,0.02,0.04,0.04,0.06c0.797,1.474,6.414,11.753,7.789,13.586c0.916,1.215,2.41,1.952,3.865,1.952
				c1.693,0,2.988-1.036,3.227-2.59c0.319-2.151,0.06-7.988,1.036-11.753c0-0.04,0.02-0.08,0.02-0.12
				c1.414,0.916,2.171,1.673,3.267,1.096c1.594-0.896,0.279-0.797-0.677-4.382c-0.438-1.673-1.434-2.629-2.37-3.147
				c-0.418-0.239-0.558-0.797-0.259-1.195l1.215-1.713c1.076-1.514-0.797-3.406-2.311-2.311l-2.669,1.892
				c-0.359,0.259-0.857,0.179-1.116-0.159c-3.625-4.721-7.968-12.231-10.339-18.805c-2.649-7.41-8.366-10.617-19.103-10.617H26.019
				c-4.542,0-7.769,2.908-7.769,8.147v15.478c0,0.339-0.199,0.618-0.498,0.757c-1.016,0.418-1.853,1.355-2.331,2.689
				c-0.757,2.191-0.259,7.351,1.474,8.068c1.574,0.637,5.697-3.705,5.697-7.57c0-0.1,0-0.299,0-0.299s0-13.008,0-19.163
				c0-1.693,0.478-2.928,1.713-3.486c0.538-0.239,1.135,0.159,1.135,0.757c0,4.402,0.02,21.135,0.02,21.295
				c0,4.9-1.594,7.888-2.709,10.139c-0.757,1.534-1.315,2.649-1.036,3.785c0.697,2.948,2.729,14.621,2.749,14.741
				c0.1,0.578,0.618,1.056,1.195,1.056h3.187c0.657,0,1.295-0.657,1.215-1.434l-1.514-12.649c-0.02-0.179,0.02-0.359,0.1-0.498
				l3.108-5.478 M62.014,62.146c-0.498,4.721-3.068,9.203-7.948,10.06c-4.761,0.837-6.295-1.574-9.422-5.06
				c-3.127-3.486-8.406-0.299-10.518-6.155c-2.052-5.677,5.737-7.012,6.235-14.681c0.02-0.438,0.378-0.757,0.817-0.757h18.984
				c0.697,0,1.076,0.817,0.637,1.335c-0.956,1.135-2.072,2.948-1.972,5.1C58.986,56.887,62.532,57.166,62.014,62.146z
				 M37.234,86.349c-0.637-0.837-0.618-11.016-6.494-4.123c-0.179,0.219-0.239,0.498-0.159,0.777l4.323,14.223
				c0.159,0.498,0.637,0.876,1.155,0.876h3.227c0.737,0,1.434-0.797,1.155-1.633l-3.088-9.86
				C37.333,86.509,37.293,86.429,37.234,86.349z"/>
		</g>
	</g>
	<path style="stroke:#000000;stroke-width:2;stroke-linecap:round;stroke-miterlimit:10;" d="M93.388,98.142"/>
	<path style="fill:#FFFFFF;" d="M33.907,81.887l-0.12-1.992c0.08-0.139,2.331-0.378,2.47-0.378h0.936c0.02,0,0.04,0,0.08,0h0.04
		c0.199,0.02,0.359,0.159,0.398,0.359l0.159,0.936c0.04,0.219-0.1,0.438-0.319,0.498l-0.916,3.267c-0.02,0-1.474-2.61-1.494-2.61
		l-0.518,0.1C34.285,82.146,33.728,82.206,33.907,81.887z"/>
	<g>
		<path style="fill:none;" d="M6.298,107.405c0,0,52.589-16.534,114.142-4.382"/>
		<path style="fill:#FFFFFF;" d="M6.298,107.405c4.522-1.633,9.183-2.868,13.864-4.024c2.351-0.558,4.701-1.076,7.052-1.554
			l1.773-0.359c0.598-0.12,1.175-0.219,1.773-0.319l1.773-0.319l1.773-0.299l1.773-0.299l1.793-0.279
			c1.195-0.179,2.39-0.359,3.586-0.518c2.39-0.339,4.781-0.598,7.171-0.857l3.606-0.339c1.195-0.1,2.41-0.179,3.606-0.279
			c1.195-0.1,2.41-0.159,3.606-0.219c1.195-0.06,2.41-0.139,3.606-0.179c4.821-0.219,9.641-0.219,14.462-0.12l3.606,0.12
			c1.195,0.04,2.41,0.12,3.606,0.179c2.41,0.1,4.801,0.339,7.211,0.538c1.195,0.1,2.39,0.239,3.606,0.359
			c1.195,0.12,2.39,0.239,3.586,0.418l3.586,0.478c0.598,0.08,1.195,0.179,1.793,0.259l1.773,0.279
			c4.761,0.757,9.462,1.753,14.123,2.908c-9.522-1.335-19.044-2.351-28.605-2.868l-3.586-0.159c-1.195-0.06-2.39-0.1-3.586-0.12
			l-1.793-0.06c-0.598-0.02-1.195-0.04-1.793-0.04l-3.586-0.04l-0.896-0.02H75.66h-1.793c-1.195,0-2.39,0-3.586,0.04l-3.586,0.06
			l-3.586,0.139c-1.195,0.04-2.39,0.1-3.586,0.159c-1.195,0.06-2.39,0.12-3.586,0.199c-1.195,0.08-2.39,0.139-3.586,0.239
			l-3.566,0.279c-2.39,0.219-4.761,0.438-7.131,0.697c-1.195,0.12-2.37,0.259-3.566,0.398l-1.773,0.199l-1.773,0.219l-1.773,0.239
			l-1.773,0.259c-1.195,0.159-2.37,0.339-3.546,0.518c-2.37,0.339-4.721,0.737-7.092,1.155
			C15.68,105.353,10.979,106.289,6.298,107.405z"/>
	</g>
	<g>
		<path style="fill:none;" d="M15.082,98.879c0,0,29.681-1.853,36.255,0.418"/>
		<path style="fill:#FFFFFF;" d="M15.082,98.879c3.008-0.418,6.036-0.697,9.064-0.896c1.514-0.12,3.028-0.179,4.542-0.259
			c1.514-0.06,3.028-0.1,4.542-0.12c3.028-0.04,6.076,0,9.104,0.199c1.514,0.1,3.028,0.239,4.542,0.438
			c0.757,0.12,1.514,0.239,2.251,0.398c0.737,0.159,1.494,0.359,2.191,0.657c-0.378-0.08-0.737-0.159-1.116-0.199
			c-0.378-0.06-0.757-0.1-1.116-0.139c-0.378-0.04-0.757-0.06-1.135-0.08c-0.378-0.02-0.757-0.04-1.135-0.06
			c-0.757-0.04-1.514-0.06-2.271-0.06c-0.757,0-1.514-0.04-2.271-0.02h-2.271c-0.757,0-1.514,0-2.271,0.02l-4.542,0.06l-9.084,0.12
			C21.158,98.939,18.13,98.959,15.082,98.879z"/>
	</g>
	<path style="fill:#FFFFFF;" d="M93.269,43.441c0,0,4.084,1.952,3.865-9.88c-0.139-7.55,0.578-4.402,0.578-4.402h0.817
		c0,0-3.745,10.279,5.119,14.283h-7.43H93.269L93.269,43.441z"/>
	<ellipse style="fill:#FFFFFF;" cx="98.053" cy="27.013" rx="7.012" ry="7.012"/>
	<circle style="fill:#FFFFFF;" cx="93.269" cy="29.816" r="4.283"/>
	<circle style="fill:#FFFFFF;" cx="103.109" cy="30.633" r="4.283"/>
	<circle style="fill:#FFFFFF;" cx="92.193" cy="26.29" r="2.251"/>
	<polyline style="fill:#FFFFFF;" points="97.353,37.286 93.289,34.756 92.651,32.366 93.628,31.728 93.946,34.418 97.074,36.888 	
		"/>
	<g>
		<path style="fill:#FFFFFF;" d="M88.488,43.76c0,0,17.43-1.096,21.295,0.239"/>
		<path style="fill:#FFFFFF;" d="M88.488,43.76c1.773-0.239,3.546-0.418,5.319-0.518c0.896-0.08,1.773-0.1,2.669-0.159
			c0.896-0.04,1.773-0.06,2.669-0.08c1.773-0.02,3.566,0,5.339,0.12c0.896,0.06,1.773,0.139,2.669,0.259
			c0.438,0.08,0.896,0.139,1.315,0.239c0.438,0.1,0.876,0.219,1.295,0.378c-0.219-0.04-0.438-0.1-0.657-0.12
			c-0.219-0.04-0.438-0.06-0.657-0.08c-0.219-0.02-0.438-0.04-0.657-0.04c-0.219-0.02-0.438-0.02-0.657-0.04
			c-0.438-0.02-0.896-0.04-1.335-0.04c-0.438,0-0.896-0.02-1.335-0.02h-1.335c-0.438,0-0.896,0-1.335,0.02l-2.669,0.04l-5.339,0.08
			C92.054,43.8,90.281,43.82,88.488,43.76z"/>
	</g>
	<circle style="fill:#FFFFFF;" cx="89.942" cy="31.609" r="2.251"/>
	<path style="fill:none;stroke:#CCCCCC;stroke-width:0.75;stroke-linecap:round;stroke-miterlimit:10;" d="M105.062,26.609
		c0,0-4.621-1.912-5.757,3.625"/>
</g>
</svg>
