<?xml version="1.0" encoding="iso-8859-1"?>
<!-- Generator: Adobe Illustrator 24.2.1, SVG Export Plug-In . SVG Version: 6.00 Build 0)  -->
<svg version="1.1" xmlns="http://www.w3.org/2000/svg" xmlns:xlink="http://www.w3.org/1999/xlink" x="0px" y="0px"
	 viewBox="0 0 128 128" style="enable-background:new 0 0 128 128;" xml:space="preserve">
<g id="Layer_1">
	<g>
		<path style="fill:#CCCCCC;" d="M125.5,107.5c0,9.9-8.1,18-18,18h-87c-9.9,0-18-8.1-18-18v-87c0-9.9,8.1-18,18-18h87
			c9.9,0,18,8.1,18,18V107.5z"/>
		<path style="fill:none;stroke:#4D4D4D;stroke-width:0.25;stroke-miterlimit:10;" d="M125.5,107.5c0,9.9-8.1,18-18,18h-87
			c-9.9,0-18-8.1-18-18v-87c0-9.9,8.1-18,18-18h87c9.9,0,18,8.1,18,18V107.5z"/>
	</g>
</g>
<g id="Layer_2">
	<g id="Layer_1_1_">
	</g>
	<g id="Layer_1_2_">
	</g>
	<path style="fill:#FFFFFF;" d="M29.136,82.268l-1.726-0.408c-1.151-0.336-2.134-0.575-3.045-0.815l-0.911-0.24l-0.911,1.319
		l5.107,13.93h4.627l-4.292-12.108L29.136,82.268z"/>
	<path style="fill:#FFFFFF;" d="M58.722,82.172c-0.671,0.168-1.391,0.24-2.062,0.336l-0.815,0.168l-2.302,13.523h4.532l2.47-14.434
		L58.722,82.172z"/>
	<path style="fill:#FFFFFF;" d="M116.865,35.323l0.719,0.096c0.048,0,0.048,0,0.096,0c0.096,0,0.216,0,0.312-0.048
		c0.216-0.048,0.312-0.216,0.408-0.408c0.408-0.839,0.216-1.822-0.456-2.446l-2.014-1.87c-0.048-0.048-0.096-0.048-0.144-0.096
		l-0.096,0.096c-0.527,0.623-0.456,1.511,0.096,2.086C116.505,33.357,116.865,34.34,116.865,35.323z"/>
	<path style="fill:#FFFFFF;" d="M80.157,53.736c0.072-2.47-0.911-4.867-2.565-6.593c-1.822,1.079-3.884,1.654-5.946,1.654
		c-3.045,0-6.09-1.247-8.416-3.548l-0.575-0.575l0.575-0.575c3.141-2.973,7.672-3.956,11.7-2.637c0-1.822,0.575-3.716,1.822-5.203
		l0,0c-0.504-0.072-1.079-0.168-1.654-0.168h-1.079c-1.654,0-3.62,0.504-5.275,0.983h-0.072c-6.354,1.99-12.947,2.973-19.541,2.973
		c-0.072,0-0.168,0-0.24,0l-12.54-0.072c-17.239,0.072-30.33,2.805-30.33,21.603c0,7.672,1.894,12.707,5.682,15.92v18.965h4.46
		v-8.655c0-0.815,0.24-1.558,0.743-2.23l5.778-7.265c6.018,2.134,12.444,3.309,18.797,3.309h2.565
		c7.337,0,14.602-1.079,21.675-3.141l0,0v17.982h4.46V77.329c4.364-3.213,9.974-6.522,9.974-15.824v-4.939V53.736L80.157,53.736z"/>
	<path style="fill:#FFFFFF;" d="M88.405,49.78l-0.168-0.671c-0.575-2.877-2.062-5.61-4.196-7.576l-3.548-3.309
		c-0.575-0.575-1.319-1.079-2.062-1.391l-0.336,0.575c-2.062,2.47-1.894,6.09,0.408,8.32c2.134,2.062,3.381,5.035,3.309,8.08
		l4.46,0.671l0,0C87.901,53.497,88.717,51.675,88.405,49.78z"/>
	<path style="fill:#FFFFFF;" d="M115.115,33.453c-0.216-0.216-0.36-0.408-0.456-0.671h-0.312c-0.719,0-1.391-0.144-2.014-0.456
		l-0.048-0.048l0.048-0.048c0.623-0.312,1.343-0.527,2.086-0.527l0,0c-0.048-0.575,0.144-1.199,0.527-1.654
		C114.803,30,114.635,30,114.491,30h-0.384c-0.456,0-1.079,0.144-1.558,0.312l0,0c-1.87,0.575-3.788,0.887-5.754,0.887h-0.096
		h-3.692c-5.083,0-8.943,0.767-8.943,6.33c0,2.23,0.575,3.74,1.654,4.675c0.36,0.312,0.767,0.527,1.295,0.767v3.74h1.558v-3.213
		c0.36,0.096,0.719,0.144,1.079,0.216l1.079,3.021h1.558l0.096-0.048l-0.983-2.853c0.36,0,0.767,0,1.151,0c0.144,0,0.312,0,0.527,0
		c2.494-0.048,4.364-0.048,5.922-0.264l-0.527,3.117h1.558l0.575-3.429c0.264-0.048,0.527-0.144,0.767-0.264v3.644h1.558v-4.412
		c0.456-0.264,0.935-0.575,1.343-0.935c0.887-0.767,1.606-1.822,1.606-3.788v-2.23C115.834,34.603,115.57,33.932,115.115,33.453z"/>
	<g>
		<path style="fill:#FFFFFF;" d="M6.047,96.126c4.268-0.24,8.536-0.336,12.803-0.408l3.213-0.048l3.213-0.024
			c2.134-0.024,4.268,0,6.402,0.024c4.268,0.072,8.536,0.264,12.803,0.312c2.134,0.024,4.268,0.024,6.402,0s4.268-0.096,6.402-0.12
			c2.134-0.048,4.268-0.12,6.402-0.144c2.134-0.048,4.268-0.072,6.402-0.072l6.402-0.072c2.134-0.024,4.268-0.024,6.402-0.024
			c4.268,0.024,8.536,0.072,12.803,0.168s8.536,0.216,12.803,0.408v0.12c-4.268,0.192-8.536,0.312-12.803,0.408
			c-4.268,0.096-8.536,0.144-12.803,0.168c-2.134,0-4.268,0-6.402-0.024l-6.402-0.072c-2.134-0.024-4.268-0.048-6.402-0.072
			c-2.134-0.048-4.268-0.096-6.402-0.144c-2.134-0.048-4.268-0.12-6.402-0.12c-2.134-0.024-4.268-0.024-6.402,0
			c-4.268,0.048-8.536,0.24-12.803,0.312c-2.134,0.024-4.268,0.048-6.402,0.024l-3.213-0.024l-3.213-0.048
			c-4.268-0.072-8.536-0.168-12.803-0.408L6.047,96.126L6.047,96.126z"/>
	</g>
	<g>
		<path style="fill:#FFFFFF;" d="M90.299,46.663c1.343-0.096,2.709-0.144,4.052-0.168c1.343-0.024,2.709-0.048,4.052-0.024
			c1.343,0.024,2.709,0.096,4.052,0.12c1.343,0.024,2.709,0,4.052-0.048s2.709-0.072,4.052-0.096
			c1.343-0.024,2.709-0.048,4.052-0.024c2.709,0.024,5.395,0.072,8.104,0.24v0.048c-2.709,0.144-5.395,0.216-8.104,0.24
			c-1.343,0-2.709-0.024-4.052-0.024c-1.343-0.024-2.709-0.048-4.052-0.096c-1.343-0.048-2.709-0.072-4.052-0.048
			c-1.343,0.024-2.709,0.096-4.052,0.12c-1.343,0.024-2.709,0.024-4.052-0.024c-1.343-0.024-2.709-0.072-4.052-0.168V46.663z"/>
	</g>
</g>
</svg>
