<?xml version="1.0" encoding="iso-8859-1"?>
<!-- Generator: Adobe Illustrator 24.2.1, SVG Export Plug-In . SVG Version: 6.00 Build 0)  -->
<svg version="1.1" xmlns="http://www.w3.org/2000/svg" xmlns:xlink="http://www.w3.org/1999/xlink" x="0px" y="0px"
	 viewBox="0 0 128 128" style="enable-background:new 0 0 128 128;" xml:space="preserve">
<g id="Layer_1">
	<g>
		<path style="fill:#CCCCCC;" d="M125.5,107.5c0,9.9-8.1,18-18,18h-87c-9.9,0-18-8.1-18-18v-87c0-9.9,8.1-18,18-18h87
			c9.9,0,18,8.1,18,18V107.5z"/>
		<path style="fill:none;stroke:#4D4D4D;stroke-width:0.25;stroke-miterlimit:10;" d="M125.5,107.5c0,9.9-8.1,18-18,18h-87
			c-9.9,0-18-8.1-18-18v-87c0-9.9,8.1-18,18-18h87c9.9,0,18,8.1,18,18V107.5z"/>
	</g>
</g>
<g id="Layer_2">
	<g id="Layer_1_1_">
	</g>
	<g id="Layer_1_2_">
	</g>
	<path style="fill:#FDB714;" d="M100.218,26.596H26.519c-2.252,0-4.299,1.638-4.913,4.094c-6.142,25.385-6.142,51.999,0,77.384
		c0.614,2.457,2.661,4.094,4.913,4.094h73.699c2.252,0,4.299-1.638,4.913-4.094c6.142-25.385,6.142-51.999,0-77.384
		C104.517,28.234,102.47,26.596,100.218,26.596z"/>
	<path style="fill:#FDB714;" d="M20.787,13.903l2.047,10.236c0.205,1.024,1.024,1.638,2.047,1.638h76.565
		c1.024,0,1.842-0.614,2.047-1.638l2.047-10.236c0.205-1.024-0.409-2.252-1.638-2.457c-0.205,0-0.409,0-0.409,0h-0.205
		c-3.48,0-7.37,3.685-10.031,3.89c-2.661,0.205-6.346-2.661-10.236-2.661c-3.89,0.205-7.165,3.48-10.031,3.48
		s-6.142-3.071-10.031-3.071s-7.37,3.071-10.031,3.071c-2.866,0-6.142-3.276-10.031-3.48s-7.575,2.866-10.236,2.457
		c-2.661-0.205-5.937-3.48-9.827-3.89c-1.228-0.205-2.252,0.614-2.252,1.842C20.787,13.494,20.787,13.699,20.787,13.903z"/>
	<path style="fill:#FDB714;" d="M105.95,116.877l-2.047-3.275c-0.205-0.205-1.024-0.614-2.047-0.614h-76.77
		c-1.024,0-1.842,0.205-2.047,0.614l-2.047,3.275c-0.205,0.409,0.409,0.614,1.638,0.819c0.205,0,0.409,0,0.409,0h0.205
		c3.48,0,7.37-1.228,10.031-1.228s6.346,0.819,10.236,0.819s7.165-1.024,10.031-1.024s6.142,1.024,10.031,1.024
		s7.37-1.024,10.031-1.024c2.866,0,6.142,1.024,10.031,1.024c3.89,0,7.575-0.819,10.236-0.819c2.661,0,5.937,1.024,9.826,1.228
		c1.228,0,2.252-0.205,2.252-0.614C105.95,117.082,105.95,116.877,105.95,116.877z"/>
	<path style="fill:#FFFFFF;" d="M53.952,97.429c-0.819,0.819-1.842,1.638-2.866,2.252c0.205-0.205,0.409-0.409,0.614-0.819
		c3.276-4.094,1.433-9.008,1.433-9.008C53.338,90.059,55.385,93.539,53.952,97.429z M45.763,90.059c0,0,1.638-3.685,5.527-2.866
		c4.299,1.024,5.323,5.732,3.89,8.598c-0.205,0.205-0.205,0.614-0.409,0.819c0.819-0.819,1.638-1.433,2.457-2.252
		c0.614-3.685-1.842-7.575-5.732-7.984C46.582,85.76,45.763,90.059,45.763,90.059z M75.652,65.288c0,0,1.842-4.094,1.024-8.598
		c-0.614-3.071-2.457-5.527-3.48-6.551c0-0.205,0-0.409,0-0.819c0-1.024,0-2.457,0.205-3.89c0.205-2.866,0.409-5.732,0.205-5.732
		s-0.819,2.866-1.228,5.732c-0.205,1.433-0.409,2.866-0.409,3.89c0,0.409,0,0.819,0,1.024c-0.409,1.638-1.228,4.504-0.614,7.575
		C72.172,62.217,75.652,65.288,75.652,65.288z M71.558,75.728c0,0,2.252-4.094,1.433-8.598c-0.614-3.48-2.661-6.346-3.48-7.37
		c0-1.024,0-2.661,0-4.504c0-2.866,0.205-5.732,0.205-5.732c-0.205,0-0.819,2.866-1.024,5.732c-0.409,2.866-0.409,5.732-0.409,5.732
		v0.205c-0.614,1.638-1.024,4.094-0.614,6.551C68.282,72.453,71.558,75.728,71.558,75.728z M63.369,76.547
		c0.409,4.504,3.48,7.984,3.48,7.984s2.457-3.89,2.047-8.393c-0.409-3.685-2.252-6.551-3.071-7.575c0-1.024,0.205-2.457,0.409-3.89
		c0.205-2.866,0.614-5.732,0.409-5.732c-0.205,0-0.819,2.661-1.433,5.527c-0.614,2.866-0.819,5.732-0.819,5.732v0.205
		C63.574,71.839,63.164,74.091,63.369,76.547z M57.841,84.327c-0.205,4.504,2.252,8.393,2.252,8.393s3.071-3.48,3.276-7.984
		c0.205-3.275-1.024-5.937-1.638-7.37c0-1.024,0.205-2.661,0.409-4.094c0.205-2.866,0.819-5.732,0.614-5.732
		s-1.024,2.661-1.433,5.527c-0.205,1.638-0.614,3.071-0.614,4.299C59.479,78.595,58.046,81.256,57.841,84.327z M44.739,107.46
		c0.409,0.614,1.228,0.819,2.866,0c1.024-0.614,4.299-2.866,4.913-3.48c6.551-3.071,13.716-0.409,13.716-0.614
		c0,0-4.504-2.866-10.85-1.842c0.409-0.409,1.024-0.819,1.433-1.228c9.212-4.094,17.606,1.638,17.606,1.433
		c0,0-6.142-5.937-15.149-3.685c1.024-1.024,2.047-2.047,3.071-3.275c1.638,0,4.504,0,7.37-1.433
		c2.866-1.433,4.709-3.89,5.527-5.118c0,0,0,0,0.205-0.205c0.819-0.614,2.047-1.638,3.071-2.661c2.252-1.842,4.094-4.094,3.89-4.094
		c-0.205-0.205-2.252,1.638-4.504,3.48c-1.228,0.819-2.252,1.842-3.275,2.252c-1.638,0-4.504,0-7.165,1.228
		c0.409-0.614,1.024-1.433,1.433-2.047c1.433,0,4.709-0.614,7.37-2.457c2.457-1.638,3.89-4.094,4.504-5.527
		c0-0.205,0.205-0.205,0.205-0.409c0.819-0.819,1.638-2.047,2.457-3.071c1.842-2.252,3.275-4.913,3.071-4.913
		c-0.205,0-1.842,2.252-3.685,4.299c-0.819,1.024-1.842,2.047-2.457,2.661c-1.638,0.205-4.709,0.614-7.37,2.457
		c-0.205,0.205-0.409,0.205-0.409,0.409c0.409-1.024,1.024-2.047,1.433-3.071c1.228-0.205,4.709-1.024,7.37-3.48
		c1.842-1.638,2.866-3.685,3.275-5.323l0,0c0,0,0.409-0.614,1.024-1.638c0.614-1.024,1.228-2.252,1.842-3.48
		c1.228-2.661,2.252-5.323,2.047-5.527c-0.205,0-1.433,2.457-2.866,4.913c-0.614,1.228-1.433,2.457-2.047,3.276
		c-1.433,0.205-4.709,1.228-7.165,3.48c-0.205,0.205-0.614,0.614-0.819,0.819c0.205-0.614,0.409-1.228,0.614-1.842
		c0.205-0.409,0.205-0.819,0.409-1.228c0.614-0.205,4.504-1.433,7.165-4.709c1.842-2.252,2.457-5.118,2.661-6.756v-0.205
		c0.409-1.024,0.819-2.457,1.024-3.89c0.614-2.866,1.024-5.732,0.819-5.732c-0.205,0-0.819,2.866-1.638,5.527
		c-0.409,1.228-0.819,2.252-1.228,3.276c-1.433,0.614-4.299,1.842-6.142,4.504c-0.409,0.614-0.819,1.228-1.024,1.638
		c0.205-1.024,0.409-2.047,0.614-3.071c1.024-1.228,2.661-3.89,3.071-7.165c0.409-3.276-0.819-6.346-1.433-7.779
		c0-1.228,0-2.866-0.205-4.299c-0.205-3.48-1.024-6.96-1.024-6.756c-0.205,0,0.205,3.48,0.205,6.96c0,1.638,0,3.276,0,4.504
		c-1.024,1.228-2.457,3.89-2.866,6.96c-0.409,3.276,0.819,6.142,1.433,7.575c-8.393,32.346-26.409,43.196-32.96,47.699
		C44.739,106.027,44.535,106.846,44.739,107.46z"/>
</g>
</svg>
