<?xml version="1.0" encoding="iso-8859-1"?>
<!-- Generator: Adobe Illustrator 24.2.1, SVG Export Plug-In . SVG Version: 6.00 Build 0)  -->
<svg version="1.1" id="Layer_1" xmlns="http://www.w3.org/2000/svg" xmlns:xlink="http://www.w3.org/1999/xlink" x="0px" y="0px"
	 viewBox="0 0 128 128" style="enable-background:new 0 0 128 128;" xml:space="preserve">
<g>
	<path style="fill:#CCCCCC;" d="M125.5,107.5c0,9.9-8.1,18-18,18h-87c-9.9,0-18-8.1-18-18v-87c0-9.9,8.1-18,18-18h87
		c9.9,0,18,8.1,18,18V107.5z"/>
	<path style="fill:none;stroke:#4D4D4D;stroke-width:0.25;stroke-miterlimit:10;" d="M125.5,107.5c0,9.9-8.1,18-18,18h-87
		c-9.9,0-18-8.1-18-18v-87c0-9.9,8.1-18,18-18h87c9.9,0,18,8.1,18,18V107.5z"/>
</g>
<path style="fill:#614776;" d="M122.781,51.771c-0.292-1.585-1.189-3.045-2.649-3.963L99.63,35.024
	c-2.753-1.71-6.382-0.876-8.113,1.877c-1.71,2.753-0.876,6.382,1.877,8.113l7.529,4.693c0,0,1.251,0.918-0.125,1.356
	c-9.677,3.775-19.251,9.928-26.842,17.666c-1.564,0.959-1.71-1.064-1.71-1.064s-2.086-38.71-2.086-40.837s1.898-0.271,1.898-0.271
	l5.026,5.548c1.147,1.147,2.649,1.731,4.15,1.731c1.502,0,3.003-0.584,4.15-1.731c2.294-2.294,2.294-6.028,0-8.322L68.303,6.7
	c-0.271-0.271-0.584-0.521-0.897-0.73c-0.146-0.083-0.292-0.167-0.438-0.229c-0.188-0.104-0.375-0.229-0.584-0.313
	c-0.188-0.083-0.396-0.125-0.584-0.188c-0.167-0.042-0.334-0.125-0.501-0.146c-0.48-0.104-0.959-0.104-1.439-0.083
	c-1.606-0.083-3.233,0.48-4.442,1.689L42.337,23.782c-2.294,2.294-2.294,6.028,0,8.322c1.147,1.147,2.649,1.731,4.15,1.731
	c1.502,0,3.003-0.584,4.15-1.731l5.36-5.36c0,0,2.127-2.232,2.127,0.083s-3.504,60.338-3.504,60.338s-0.25,2.065-1.961,0.542
	c-7.008-7.634-15.788-13.682-25.341-17.394c-1.502-0.459,0.021-1.231,0.021-1.231l7.592-4.734c2.753-1.71,3.608-5.36,1.877-8.113
	c-1.71-2.753-5.339-3.608-8.113-1.877L8.195,67.143c-1.46,0.918-2.378,2.378-2.649,3.963c-0.438,1.543-0.271,3.254,0.647,4.714
	l12.764,20.502c1.105,1.794,3.024,2.774,5.006,2.774c1.064,0,2.148-0.292,3.108-0.897c2.753-1.71,3.608-5.36,1.877-8.113
	l-4.526-7.279c0,0-0.438-1.168,0.688-0.688c15.914,7.112,26.071,22.567,27.364,40.566h22.15l0.146-17.415
	c0.751-18.75,11.847-34.977,28.282-42.401c1.543-0.688,0.542,1.168,0.542,1.168l-4.234,6.716c-1.71,2.753-0.876,6.382,1.877,8.113
	c0.959,0.605,2.044,0.897,3.108,0.897c1.961,0,3.879-0.98,5.006-2.774l12.764-20.502C123.031,55.004,123.198,53.315,122.781,51.771z
	"/>
</svg>
