<?xml version="1.0" encoding="iso-8859-1"?>
<!-- Generator: Adobe Illustrator 24.2.1, SVG Export Plug-In . SVG Version: 6.00 Build 0)  -->
<svg version="1.1" xmlns="http://www.w3.org/2000/svg" xmlns:xlink="http://www.w3.org/1999/xlink" x="0px" y="0px"
	 viewBox="0 0 32 32" style="enable-background:new 0 0 32 32;" xml:space="preserve">
<g id="Layer_2">
	<g>
		<path style="fill:#CCCCCC;" d="M31,26c0,2.75-2.25,5-5,5H6c-2.75,0-5-2.25-5-5V6c0-2.75,2.25-5,5-5h20c2.75,0,5,2.25,5,5V26z"/>
		<path style="fill:none;stroke:#4D4D4D;stroke-width:0.15;stroke-miterlimit:10;" d="M31,26c0,2.75-2.25,5-5,5H6
			c-2.75,0-5-2.25-5-5V6c0-2.75,2.25-5,5-5h20c2.75,0,5,2.25,5,5V26z"/>
	</g>
</g>
<g id="Layer_1">
	<g>
		<g>
			<g>
				<g>
					<path d="M5.988,5.178c0.005,0,0.022,0,0.038-0.005C6.01,5.173,5.993,5.178,5.988,5.178z"/>
					<path d="M5.681,5.512c0-0.011,0-0.016,0.005-0.022C5.681,5.495,5.681,5.506,5.681,5.512z"/>
				</g>
				<g>
					<path d="M29.547,5.173c0.022,0.005,0.033,0.005,0.038,0.005C29.58,5.178,29.563,5.173,29.547,5.173z"/>
					<path d="M29.892,5.512c0-0.011-0.005-0.016-0.005-0.022C29.892,5.495,29.892,5.501,29.892,5.512z"/>
				</g>
			</g>
			<path style="fill:#006450;" d="M16.916,19.751c0.394,0.115,0.941,0.246,1.707,0.35C19.423,9.808,15.619,3.657,15.428,3.35
				C15.428,3.35,17.836,9.682,16.916,19.751z"/>
		</g>
	</g>
	<circle style="fill:#006450;" cx="11.98" cy="25.114" r="4.181"/>
	<circle style="fill:#006450;" cx="20.785" cy="25.114" r="4.181"/>
	<circle style="fill:#006450;" cx="23.478" cy="26.345" r="2.692"/>
	<circle style="fill:#006450;" cx="8.992" cy="26.789" r="2.249"/>
	<ellipse style="fill:#006450;" cx="6.743" cy="27.271" rx="1.773" ry="1.773"/>
	<ellipse style="fill:#006450;" cx="26.378" cy="27.522" rx="2.052" ry="1.773"/>
	<ellipse style="fill:#006450;" cx="4.483" cy="28.168" rx="1.483" ry="1.122"/>
	<path style="fill:#006450;" d="M16.769,14.864c0,0,0.739-11.892-11.284-8.592c0,0-0.542,11.377,10.42,9.139"/>
	<path style="fill:#CCCCCC;" d="M16.276,15.652c0.186-0.049,0.432-0.131,0.733-0.29c-4.898-6.091-9.221-8.504-9.434-8.619
		C7.575,6.743,11.532,9.655,16.276,15.652z"/>
	<path style="fill:#006450;" d="M19.056,18.312c0,0,0.569-10.14,9.796-6.25c0,0-0.679,9.686-9.166,6.791"/>
	<path style="fill:#CCCCCC;" d="M19.374,19.023c-0.142-0.06-0.328-0.153-0.558-0.312c4.482-4.712,8.154-6.359,8.335-6.441
		C27.15,12.27,23.724,14.377,19.374,19.023z"/>
	<circle style="fill:#006450;" cx="13.819" cy="26.345" r="2.692"/>
	<path style="fill:#006450;" d="M17.075,6.256c0,0-1.248-3.546,2.463-3.53c0,0,1.144,3.409-2.167,3.623"/>
	<path style="fill:#CCCCCC;" d="M17.283,6.453c-0.055,0-0.131-0.005-0.235-0.027c0.865-2.249,1.883-3.333,1.932-3.387
		C18.98,3.038,18.109,4.248,17.283,6.453z"/>
	<rect x="4.313" y="28.611" style="fill:#006450;" width="23.559" height="0.684"/>
	<ellipse style="fill:#006450;" cx="19.062" cy="27.325" rx="2.052" ry="1.773"/>
	<ellipse style="fill:#006450;" cx="27.872" cy="28.047" rx="1.417" ry="1.226"/>
	<circle style="fill:#006450;" cx="16.093" cy="24.053" r="5.029"/>
</g>
</svg>
