<?xml version="1.0" encoding="iso-8859-1"?>
<!-- Generator: Adobe Illustrator 24.2.1, SVG Export Plug-In . SVG Version: 6.00 Build 0)  -->
<svg version="1.1" xmlns="http://www.w3.org/2000/svg" xmlns:xlink="http://www.w3.org/1999/xlink" x="0px" y="0px"
	 viewBox="0 0 32 32" style="enable-background:new 0 0 32 32;" xml:space="preserve">
<g id="Layer_2">
	<g>
		<path style="fill:#CCCCCC;" d="M31,26c0,2.75-2.25,5-5,5H6c-2.75,0-5-2.25-5-5V6c0-2.75,2.25-5,5-5h20c2.75,0,5,2.25,5,5V26z"/>
		<path style="fill:none;stroke:#4D4D4D;stroke-width:0.15;stroke-miterlimit:10;" d="M31,26c0,2.75-2.25,5-5,5H6
			c-2.75,0-5-2.25-5-5V6c0-2.75,2.25-5,5-5h20c2.75,0,5,2.25,5,5V26z"/>
	</g>
</g>
<g id="Layer_1">
	<path style="fill:#F05023;stroke:#FFFFFF;stroke-width:0.15;stroke-miterlimit:10;" d="M18.395,26.285l3.146-0.418
		c0.147-0.009,0.261-0.128,0.261-0.261c0-0.147-0.133-0.266-0.299-0.266c-0.019,0-3.065,0.361-3.065,0.361
		c-0.104,0.009-0.199-0.057-0.214-0.161c-0.009-0.104,0.057-0.199,0.161-0.214l1.243-0.171V24.7h-2.6l0,0
		c-0.161,0-0.289,0.133-0.289,0.289v0.56l-0.062,0.009c-0.128,0.019-0.214,0.133-0.199,0.261c0.019,0.128,0.133,0.214,0.256,0.199
		v0.493l-0.062,0.009c-0.128,0.019-0.214,0.133-0.199,0.261c0.014,0.128,0.133,0.214,0.256,0.199v0.493l-0.062,0.009
		c-0.128,0.019-0.214,0.133-0.199,0.261c0.019,0.128,0.133,0.214,0.256,0.199l0,0v0.493c0,0.057,0.028,0.109,0.071,0.147
		l0.408,0.365v0.005l0.005,0.005c0.033,0.028,0.081,0.047,0.128,0.047h0.958c0.009,0.261,0.37,0.47,0.816,0.47
		c0.441,0,0.802-0.209,0.816-0.47h1.011l0,0c0.047,0,0.085-0.019,0.123-0.047l0.005-0.005c0,0,0,0,0.005-0.005l0.403-0.365
		c0.043-0.033,0.071-0.085,0.071-0.147c0-0.005,0-0.009,0-0.009l0.005-0.005l-0.005-0.641c0.138-0.024,0.242-0.128,0.242-0.256
		c0-0.147-0.133-0.266-0.299-0.266c-0.019,0-3.065,0.361-3.065,0.361c-0.104,0.019-0.199-0.057-0.214-0.161
		c-0.009-0.104,0.057-0.199,0.161-0.214l3.146-0.418c0.147-0.009,0.261-0.123,0.261-0.261c0-0.147-0.133-0.266-0.299-0.266
		c-0.019,0-3.065,0.361-3.065,0.361c-0.104,0.019-0.199-0.057-0.214-0.161C18.215,26.394,18.291,26.294,18.395,26.285z"/>
	<path style="fill:#F05023;stroke:#FFFFFF;stroke-width:0.15;stroke-miterlimit:10;" d="M23.842,9.94l-9.679,2.05
		c-0.517,0.104-0.849,0.617-0.745,1.134s0.617,0.849,1.134,0.745l0.185-0.043c0.161,0.285,0.266,0.607,0.299,0.949
		c-0.275,0.071-0.479,0.318-0.479,0.617v0.318h-0.318c-0.356,0-0.641,0.285-0.641,0.641v1.39c0,1.613,0.617,3.06,1.675,4.085
		l0.119,0.109c0.55,0.517,1.087,1.219,1.291,2.035c0,0.009,0.005,0.019,0.005,0.028c0,0.005,0,0.009,0.005,0.009l0,0
		c0.047,0.138,0.176,0.237,0.327,0.242l0,0h4.251l0,0c0.152,0,0.28-0.104,0.327-0.242l0,0c0-0.005,0-0.009,0.005-0.009
		c0.005-0.009,0.005-0.019,0.005-0.028c0.204-0.816,0.745-1.523,1.291-2.035l0.119-0.109c1.058-1.02,1.68-2.472,1.68-4.085v-1.39
		c0-0.356-0.285-0.641-0.641-0.641h-0.308v-0.323c0-0.299-0.204-0.546-0.484-0.617c0.047-0.546,0.285-1.03,0.636-1.414
		c0.138-0.157,0.228-0.365,0.228-0.593c0-0.361-0.214-0.669-0.522-0.807l0.626-0.133c0.517-0.109,0.849-0.617,0.745-1.134
		C24.872,10.167,24.359,9.831,23.842,9.94z M16.834,14.746H16.82c-0.024-0.46-0.119-0.897-0.28-1.305l6.04-1.281
		c-0.645,0.674-1.039,1.589-1.096,2.581h-0.019c-0.356,0-0.641,0.285-0.641,0.641V15.7h-3.359v-0.313
		C17.475,15.04,17.19,14.746,16.834,14.746z M23.681,17.019v1.134c0,1.314-0.508,2.496-1.366,3.326l-0.095,0.095
		c-0.446,0.418-0.892,1.001-1.053,1.656c0,0.005-0.005,0.019-0.005,0.024c0,0.005,0,0.005-0.005,0.009l0,0
		c-0.033,0.109-0.138,0.199-0.266,0.199h-0.868c0.005-0.009,0.009-0.028,0.019-0.043l0,0c0-0.005,0-0.005,0.005-0.009
		c0-0.005,0.005-0.019,0.005-0.024c0.176-0.693,0.636-1.295,1.105-1.741l0.1-0.095c0.906-0.873,1.433-2.107,1.433-3.483v-1.186
		c0-0.152-0.057-0.285-0.157-0.38h0.626C23.448,16.497,23.681,16.729,23.681,17.019z"/>
	<path style="fill:#F05023;stroke:#FFFFFF;stroke-width:0.15;stroke-miterlimit:10;" d="M23.842,7.102l-9.674,2.04
		c-0.517,0.109-0.849,0.617-0.745,1.134c0.109,0.517,0.617,0.849,1.134,0.745l9.674-2.04c0.517-0.109,0.849-0.617,0.745-1.134
		S24.359,6.993,23.842,7.102z"/>
	<path style="fill:#F05023;stroke:#FFFFFF;stroke-width:0.15;stroke-miterlimit:10;" d="M14.562,8.184l9.674-2.05
		c0.517-0.104,0.849-0.617,0.745-1.134c-0.109-0.517-0.617-0.849-1.134-0.745l-9.674,2.04C13.656,6.4,13.323,6.913,13.428,7.43
		C13.537,7.956,14.045,8.293,14.562,8.184z"/>
	<path style="fill:#F05023;stroke:#FFFFFF;stroke-width:0.15;stroke-miterlimit:10;" d="M17.328,4.91l4.137-0.84
		c0.517-0.104,0.849-0.617,0.745-1.134c-0.104-0.517-0.617-0.849-1.134-0.745l-4.137,0.84c-0.517,0.109-0.849,0.617-0.745,1.134
		C16.308,4.687,16.811,5.019,17.328,4.91z"/>
	<path id="Leaf_1_x2C__Nature_2" style="fill:#F05023;stroke:#FFFFFF;stroke-width:0.15;stroke-miterlimit:10;" d="M9.091,24.634
		c0.161,0.076,0.323,0.142,0.484,0.204c0.232,0.081,1.409,0.664,1.357,0.427c-0.778-3.454-1.713-6.671-1.566-7.9
		c0.062-0.484,0.147-0.474,0.18,0.014c0.232,3.203,2.244,7.525,2.401,7.81l0.033,0.057c0.294,0.593,0.617,1.143,0.916,1.599
		c0.318,0.498,0.631,0.892,0.854,1.167c0.218,0.275,0.399,0.455,0.38,0.437c0.512,0.432,4.175,1.433,4.531,1.101
		c0.356-0.337-2.894-1.96-3.255-2.311c-0.014-0.014-0.114-0.095-0.327-0.313c-0.204-0.218-0.503-0.531-0.83-0.949
		c-0.232-0.289-0.474-0.631-0.716-1.001c-0.024-0.038-0.009-0.085,0.033-0.1c1.224-0.451,2.268-1.328,2.861-2.557
		c0.977-2.031,0.688-5.471-2.206-7.473c0,0-3.16-2.187-3.577-4.242c-0.047-0.237-0.218-0.346-0.422-0.204
		c-1.267,0.859-2.837,2.638-3.891,4.574c-0.897,1.646-1.001,2.709-1.001,2.709C4.959,20.724,6.368,23.324,9.091,24.634z"/>
</g>
</svg>
