<?xml version="1.0" encoding="iso-8859-1"?>
<!-- Generator: Adobe Illustrator 24.2.1, SVG Export Plug-In . SVG Version: 6.00 Build 0)  -->
<svg version="1.1" xmlns="http://www.w3.org/2000/svg" xmlns:xlink="http://www.w3.org/1999/xlink" x="0px" y="0px"
	 viewBox="0 0 32 32" style="enable-background:new 0 0 32 32;" xml:space="preserve">
<g id="Layer_2">
	<g>
		<path style="fill:#CCCCCC;" d="M31,26c0,2.75-2.25,5-5,5H6c-2.75,0-5-2.25-5-5V6c0-2.75,2.25-5,5-5h20c2.75,0,5,2.25,5,5V26z"/>
		<path style="fill:none;stroke:#4D4D4D;stroke-width:0.15;stroke-miterlimit:10;" d="M31,26c0,2.75-2.25,5-5,5H6
			c-2.75,0-5-2.25-5-5V6c0-2.75,2.25-5,5-5h20c2.75,0,5,2.25,5,5V26z"/>
	</g>
</g>
<g id="Layer_1">
	<g>
		<path style="fill:#009FE3;" d="M23.58,17.083c-0.587,0-1.158,0-1.745,0c-0.066,0-0.139,0-0.183-0.022
			c-0.227-1.18-0.704-2.289-1.341-3.242c0.044-0.066,0.089-0.139,0.205-0.227c0.388-0.388,0.77-0.792,1.18-1.18
			c-0.704-0.975-1.59-1.84-2.566-2.538c-0.41,0.432-0.837,0.837-1.247,1.247c-0.044,0.044-0.111,0.089-0.161,0.111
			c-0.975-0.637-2.067-1.114-3.264-1.341c0-0.044-0.022-0.066-0.022-0.139c0-0.316,0-0.637,0-0.931l0,0c0-0.294,0-0.587,0-0.887l0,0
			c-0.565-0.089-1.158-0.139-1.768-0.139l0,0l0,0c-0.615,0-1.202,0.044-1.768,0.139l0,0c0.022,0.294,0,0.587,0,0.887l0,0
			c0,0.316,0,0.637,0,0.931c0,0.044,0,0.089-0.022,0.139c-1.18,0.227-2.289,0.704-3.264,1.341c-0.044-0.022-0.111-0.066-0.161-0.111
			c-0.41-0.432-0.837-0.837-1.247-1.247c-0.909,0.704-1.768,1.563-2.471,2.566c0.41,0.388,0.792,0.792,1.18,1.18
			c0.089,0.089,0.161,0.161,0.205,0.227c-0.637,0.975-1.114,2.067-1.341,3.242c-0.044,0.022-0.111,0.022-0.183,0.022
			c-0.587-0.022-1.158,0-1.745,0c-0.022,0-0.022,0-0.044,0c-0.089,0.587-0.139,1.18-0.139,1.812c0,0.615,0.044,1.202,0.139,1.79
			c0.022,0,0.044,0,0.066,0c0.615,0,1.225,0,1.812,0c0.022,0,0.044,0,0.066,0c0.249,1.202,0.726,2.316,1.385,3.292
			c-0.022,0.022-0.044,0.066-0.089,0.089c-0.41,0.388-0.792,0.77-1.18,1.158c-0.044,0.044-0.089,0.089-0.111,0.139
			c0.704,0.975,1.563,1.812,2.538,2.516l0.022-0.022c0.41-0.432,0.837-0.837,1.269-1.269c0.022-0.022,0.066-0.066,0.089-0.066
			c0.975,0.659,2.089,1.114,3.292,1.341c0,0.044,0.022,0.089,0.022,0.161c-0.022,0.587,0,1.18,0,1.768c0,0.022,0,0.022,0,0.044
			C11.555,29.95,12.148,30,12.758,30l0,0l0,0l0,0l0,0c0.587,0,1.18-0.044,1.768-0.139c0-0.022,0-0.022,0-0.044
			c0-0.587,0-1.18,0-1.768c0-0.066,0-0.111,0.022-0.161c1.202-0.227,2.316-0.704,3.292-1.341c0.022,0.022,0.066,0.044,0.089,0.066
			c0.41,0.432,0.837,0.837,1.269,1.269l0.022,0.022c0.975-0.704,1.84-1.54,2.538-2.516c-0.022-0.044-0.066-0.066-0.111-0.139
			c-0.388-0.388-0.77-0.792-1.18-1.158c-0.022-0.022-0.066-0.066-0.089-0.089c0.659-0.975,1.136-2.089,1.385-3.292
			c0.022,0,0.044,0,0.066,0c0.615,0,1.225,0,1.812,0c0.022,0,0.044,0,0.066,0c0.089-0.587,0.139-1.18,0.139-1.79
			c0-0.615-0.044-1.225-0.139-1.812C23.602,17.083,23.602,17.083,23.58,17.083z M18.227,19.782
			c-0.139,0.887-0.499,1.679-0.997,2.361c-0.36,0.499-0.792,0.931-1.269,1.269c-0.682,0.499-1.496,0.837-2.361,0.975
			c-0.294,0.044-0.587,0.066-0.887,0.066c-0.294,0-0.587-0.022-0.887-0.066c-0.864-0.139-1.679-0.477-2.361-0.975
			c-0.499-0.36-0.931-0.77-1.269-1.269C7.698,21.461,7.36,20.646,7.2,19.782c-0.044-0.294-0.066-0.587-0.066-0.909
			c0-0.321,0.022-0.615,0.066-0.909c0.139-0.864,0.477-1.657,0.975-2.361c0.36-0.499,0.792-0.931,1.291-1.291
			c0.682-0.499,1.496-0.837,2.361-0.975c0.294-0.044,0.587-0.066,0.887-0.066c0.294,0,0.615,0.022,0.887,0.066
			c0.864,0.139,1.679,0.477,2.361,0.975c0.499,0.36,0.931,0.792,1.291,1.291c0.499,0.682,0.837,1.474,0.975,2.361
			c0.044,0.294,0.066,0.587,0.066,0.909C18.299,19.189,18.271,19.488,18.227,19.782z"/>
		<path style="fill:#009FE3;" d="M29.73,8.439h-0.022c-0.41,0-0.815,0-1.202,0c-0.044,0-0.089,0-0.139-0.022
			c-0.161-0.815-0.499-1.59-0.931-2.266c0.022-0.044,0.066-0.089,0.139-0.161c0.272-0.272,0.543-0.543,0.815-0.815
			c-0.499-0.682-1.086-1.291-1.768-1.768c-0.294,0.294-0.587,0.565-0.864,0.887c-0.044,0.044-0.066,0.066-0.111,0.089
			c-0.682-0.454-1.452-0.77-2.266-0.931c0-0.022,0-0.044,0-0.089c0-0.227,0-0.432,0-0.659l0,0c0-0.205,0-0.41,0-0.615l0,0
			C22.97,2.022,22.566,2,22.156,2l0,0c-0.41,0-0.837,0.022-1.225,0.089l0,0c0,0.205,0,0.41,0,0.615l0,0c0,0.227,0,0.432,0,0.659
			c0,0.044,0,0.066,0,0.089c-0.815,0.161-1.59,0.477-2.266,0.931c-0.044-0.022-0.066-0.044-0.111-0.089
			C18.282,4,17.966,3.707,17.689,3.407c-0.682,0.499-1.291,1.086-1.768,1.768c0.272,0.272,0.543,0.543,0.815,0.815
			c0.066,0.066,0.111,0.111,0.139,0.161c-0.454,0.682-0.77,1.452-0.931,2.266c-0.044,0-0.089,0.022-0.139,0.022
			c-0.022,0-0.022,0-0.044,0V8.55c0,0.089,0,0.183,0,0.272v0.111c0.637,0.205,1.269,0.454,1.862,0.77
			c0.066-0.044,0.111-0.111,0.183-0.161c0.183-0.183,0.36-0.36,0.521-0.521l0.022-0.022c0.111-0.587,0.338-1.114,0.682-1.563
			c0.249-0.338,0.543-0.659,0.909-0.909c0.477-0.338,1.042-0.565,1.635-0.682c0.205-0.022,0.41-0.044,0.615-0.044
			s0.41,0.022,0.615,0.044c0.615,0.089,1.158,0.338,1.635,0.682c0.338,0.249,0.659,0.543,0.909,0.909
			c0.338,0.477,0.587,1.042,0.682,1.635c0.044,0.205,0.044,0.41,0.044,0.637c0,0.205-0.022,0.432-0.044,0.637
			c-0.089,0.615-0.338,1.18-0.682,1.657c-0.249,0.338-0.543,0.637-0.887,0.887c-0.477,0.338-1.042,0.587-1.657,0.682
			c-0.161,0.022-0.316,0.044-0.477,0.044c-0.139,0.139-0.272,0.272-0.388,0.388c0.316,0.587,0.565,1.202,0.77,1.862
			c0.183,0,0.36,0,0.543,0s0.338,0,0.521,0h0.089c0.659-0.183,1.291-0.477,1.862-0.837c0.022,0.022,0.044,0.022,0.066,0.044
			c0.294,0.294,0.587,0.587,0.887,0.887l0.022,0.022c0.682-0.477,1.269-1.086,1.768-1.745c-0.022-0.022-0.044-0.044-0.089-0.089
			c-0.272-0.272-0.543-0.543-0.815-0.815c-0.022-0.022-0.044-0.044-0.066-0.066c0.454-0.682,0.792-1.452,0.953-2.289
			c0.022,0,0.022,0,0.044,0c0.432,0,0.837,0,1.269,0c0.022,0,0.044,0,0.044,0c0.066-0.41,0.089-0.815,0.089-1.247
			C29.819,9.281,29.797,8.849,29.73,8.439z"/>
	</g>
	<circle style="fill:none;stroke:#3FA9F5;stroke-width:0.5;stroke-miterlimit:10;" cx="12.708" cy="18.862" r="4.66"/>
</g>
</svg>
