<?xml version="1.0" encoding="iso-8859-1"?>
<!-- Generator: Adobe Illustrator 24.2.1, SVG Export Plug-In . SVG Version: 6.00 Build 0)  -->
<svg version="1.1" xmlns="http://www.w3.org/2000/svg" xmlns:xlink="http://www.w3.org/1999/xlink" x="0px" y="0px"
	 viewBox="0 0 32 32" style="enable-background:new 0 0 32 32;" xml:space="preserve">
<g id="Layer_2">
	<g>
		<path style="fill:#CCCCCC;" d="M31,26c0,2.75-2.25,5-5,5H6c-2.75,0-5-2.25-5-5V6c0-2.75,2.25-5,5-5h20c2.75,0,5,2.25,5,5V26z"/>
		<path style="fill:none;stroke:#4D4D4D;stroke-width:0.15;stroke-miterlimit:10;" d="M31,26c0,2.75-2.25,5-5,5H6
			c-2.75,0-5-2.25-5-5V6c0-2.75,2.25-5,5-5h20c2.75,0,5,2.25,5,5V26z"/>
	</g>
</g>
<g id="Layer_1">
	<path style="fill:#614776;" d="M30.136,13.167c-0.07-0.378-0.284-0.727-0.632-0.946l-4.895-3.053
		c-0.657-0.408-1.524-0.209-1.937,0.448c-0.408,0.657-0.209,1.524,0.448,1.937l1.798,1.12c0,0,0.299,0.219-0.03,0.324
		c-2.311,0.901-4.596,2.37-6.409,4.218c-0.373,0.229-0.408-0.254-0.408-0.254s-0.498-9.242-0.498-9.75s0.453-0.065,0.453-0.065
		l1.2,1.325c0.274,0.274,0.632,0.413,0.991,0.413s0.717-0.139,0.991-0.413c0.548-0.548,0.548-1.439,0-1.987l-4.078-4.078
		c-0.065-0.065-0.139-0.124-0.214-0.174c-0.035-0.02-0.07-0.04-0.105-0.055c-0.045-0.025-0.09-0.055-0.139-0.075
		c-0.045-0.02-0.095-0.03-0.139-0.045c-0.04-0.01-0.08-0.03-0.12-0.035c-0.115-0.025-0.229-0.025-0.344-0.02
		c-0.383-0.02-0.772,0.115-1.061,0.403L10.93,6.484c-0.548,0.548-0.548,1.439,0,1.987c0.274,0.274,0.632,0.413,0.991,0.413
		c0.359,0,0.717-0.139,0.991-0.413l1.28-1.28c0,0,0.508-0.533,0.508,0.02s-0.837,14.406-0.837,14.406s-0.06,0.493-0.468,0.129
		c-1.673-1.823-3.77-3.267-6.05-4.153C6.986,17.484,7.349,17.3,7.349,17.3l1.813-1.13c0.657-0.408,0.861-1.28,0.448-1.937
		c-0.408-0.657-1.275-0.861-1.937-0.448l-4.895,3.053c-0.349,0.219-0.568,0.568-0.632,0.946C2.041,18.152,2.081,18.56,2.3,18.908
		l3.048,4.895c0.264,0.428,0.722,0.662,1.195,0.662c0.254,0,0.513-0.07,0.742-0.214c0.657-0.408,0.861-1.28,0.448-1.937
		l-1.081-1.738c0,0-0.105-0.279,0.164-0.164c3.799,1.698,6.225,5.388,6.533,9.685h5.288l0.035-4.158
		c0.179-4.477,2.828-8.351,6.752-10.124c0.368-0.164,0.129,0.279,0.129,0.279l-1.011,1.603c-0.408,0.657-0.209,1.524,0.448,1.937
		c0.229,0.144,0.488,0.214,0.742,0.214c0.468,0,0.926-0.234,1.195-0.662l3.048-4.895C30.196,13.939,30.236,13.535,30.136,13.167z"/>
</g>
</svg>
