<?xml version="1.0" encoding="iso-8859-1"?>
<!-- Generator: Adobe Illustrator 24.2.1, SVG Export Plug-In . SVG Version: 6.00 Build 0)  -->
<svg version="1.1" xmlns="http://www.w3.org/2000/svg" xmlns:xlink="http://www.w3.org/1999/xlink" x="0px" y="0px"
	 viewBox="0 0 32 32" style="enable-background:new 0 0 32 32;" xml:space="preserve">
<g id="Layer_2">
	<g>
		<path style="fill:#CCCCCC;" d="M31,26c0,2.75-2.25,5-5,5H6c-2.75,0-5-2.25-5-5V6c0-2.75,2.25-5,5-5h20c2.75,0,5,2.25,5,5V26z"/>
		<path style="fill:none;stroke:#4D4D4D;stroke-width:0.15;stroke-miterlimit:10;" d="M31,26c0,2.75-2.25,5-5,5H6
			c-2.75,0-5-2.25-5-5V6c0-2.75,2.25-5,5-5h20c2.75,0,5,2.25,5,5V26z"/>
	</g>
</g>
<g id="Layer_1">
	<g id="box">
		<rect x="4.635" y="7.41" style="fill:none;" width="20.998" height="20.998"/>
	</g>
	<g id="icon">
		<g>
			<path style="fill:#B88C1D;" d="M11.292,20.261l3.926-0.017c0.14,0,0.246,0.117,0.229,0.257l-0.581,4.881
				c-0.022,0.201,0.134,0.38,0.341,0.38h1.061c0.162,0,0.302-0.112,0.335-0.274l0.38-1.832c0.006-0.028,0.006-0.056,0-0.084
				c-0.123-0.726-0.575-3.373-0.704-4.015c-0.101-0.519-0.028-0.961,0.229-1.312c0.006-0.006,0.006-0.011,0.011-0.017
				c0.156-0.212,0.491-0.028,0.397,0.223c-0.084,0.223-0.123,0.475-0.073,0.76c0.173,0.977,1.083,6.266,1.095,6.316
				c0.028,0.162,0.168,0.29,0.335,0.29h0.955c0.184,0,0.357-0.173,0.341-0.385c-0.352-3.753-0.391-3.987-0.402-4.283
				c-0.006-0.078,0.034-0.151,0.095-0.195c0.57-0.408,1.156-0.659,1.614-0.659c0.341,0,0.598,0.134,0.776,0.413
				c0.006,0.006,0.006,0.011,0.011,0.017c0.223,0.413,1.798,3.295,2.184,3.809c0.257,0.341,0.676,0.547,1.083,0.547
				c0.475,0,0.838-0.29,0.905-0.726c0.089-0.603,0.017-2.239,0.29-3.295c0-0.011,0.006-0.022,0.006-0.034
				c0.397,0.257,0.609,0.469,0.916,0.307c0.447-0.251,0.078-0.223-0.19-1.229c-0.123-0.469-0.402-0.737-0.665-0.882
				c-0.117-0.067-0.156-0.223-0.073-0.335l0.341-0.48c0.302-0.424-0.223-0.955-0.648-0.648l-0.748,0.531
				c-0.101,0.073-0.24,0.05-0.313-0.045c-1.016-1.324-2.234-3.429-2.898-5.272c-0.743-2.077-2.346-2.977-5.356-2.977H5.529
				c-1.273,0-2.178,0.815-2.178,2.284v4.339c0,0.095-0.056,0.173-0.14,0.212c-0.285,0.117-0.519,0.38-0.653,0.754
				c-0.212,0.614-0.073,2.061,0.413,2.262c0.441,0.179,1.597-1.039,1.597-2.122c0-0.028,0-0.084,0-0.084s0-3.647,0-5.372
				c0-0.475,0.134-0.821,0.48-0.977c0.151-0.067,0.318,0.045,0.318,0.212c0,1.234,0.006,5.925,0.006,5.97
				c0,1.374-0.447,2.212-0.76,2.843c-0.212,0.43-0.369,0.743-0.29,1.061c0.195,0.827,0.765,4.099,0.771,4.133
				c0.028,0.162,0.173,0.296,0.335,0.296h0.894c0.184,0,0.363-0.184,0.341-0.402l-0.424-3.546c-0.006-0.05,0.006-0.101,0.028-0.14
				l0.871-1.536 M15.62,15.72c-0.14,1.324-0.86,2.58-2.228,2.82c-1.335,0.235-1.765-0.441-2.642-1.418
				c-0.877-0.977-2.357-0.084-2.949-1.726C7.227,13.805,9.41,13.431,9.55,11.28c0.006-0.123,0.106-0.212,0.229-0.212h5.322
				c0.195,0,0.302,0.229,0.179,0.374c-0.268,0.318-0.581,0.827-0.553,1.43C14.771,14.246,15.765,14.324,15.62,15.72z M8.673,22.506
				C8.494,22.271,8.5,19.417,6.852,21.35c-0.05,0.061-0.067,0.14-0.045,0.218l1.212,3.987c0.045,0.14,0.179,0.246,0.324,0.246h0.905
				c0.207,0,0.402-0.223,0.324-0.458l-0.866-2.764C8.701,22.55,8.69,22.528,8.673,22.506z"/>
		</g>
	</g>
	<path style="stroke:#000000;stroke-width:2;stroke-linecap:round;stroke-miterlimit:10;" d="M24.416,25.812"/>
	<path style="fill:#B88C1D;" d="M7.74,21.255l-0.034-0.558c0.022-0.039,0.653-0.106,0.692-0.106h0.262c0.006,0,0.011,0,0.022,0
		h0.011c0.056,0.006,0.101,0.045,0.112,0.101l0.045,0.262c0.011,0.061-0.028,0.123-0.089,0.14l-0.257,0.916
		c-0.006,0-0.413-0.732-0.419-0.732l-0.145,0.028C7.846,21.327,7.69,21.344,7.74,21.255z"/>
	<g>
		<path style="fill:none;" d="M0,28.409c0,0,14.743-4.635,32-1.229"/>
		<path style="fill:#B88C1D;" d="M2,28c1.183-0.458,0.536-0.396,1.761-0.72c0.615-0.156,1.23-0.302,1.845-0.436l0.464-0.101
			c0.156-0.034,0.308-0.061,0.464-0.089l0.464-0.089l0.464-0.084l0.464-0.084l0.469-0.078c0.313-0.05,0.625-0.101,0.938-0.145
			c0.625-0.095,1.251-0.168,1.876-0.24l0.943-0.095c0.313-0.028,0.631-0.05,0.943-0.078s0.631-0.045,0.943-0.061
			c0.313-0.017,0.631-0.039,0.943-0.05c1.261-0.061,2.523-0.061,3.784-0.034l0.943,0.034c0.313,0.011,0.631,0.034,0.943,0.05
			c0.631,0.028,1.256,0.095,1.887,0.151c0.313,0.028,0.625,0.067,0.943,0.101c0.313,0.034,0.625,0.067,0.938,0.117l0.938,0.134
			c0.156,0.022,0.313,0.05,0.469,0.073l0.464,0.078c1.246,0.212,2.476,0.491,3.695,0.815c-2.491-0.374-4.983-0.659-7.485-0.804
			l-0.938-0.045c-0.313-0.017-0.625-0.028-0.938-0.034l-0.469-0.017c-0.156-0.006-0.313-0.011-0.469-0.011l-0.938-0.011
			l-0.235-0.006h-0.235h-0.469c-0.313,0-0.625,0-0.938,0.011l-0.938,0.017l-0.938,0.039c-0.313,0.011-0.625,0.028-0.938,0.045
			c-0.313,0.017-0.625,0.034-0.938,0.056c-0.313,0.022-0.625,0.039-0.938,0.067l-0.933,0.078c-0.625,0.061-1.246,0.123-1.866,0.195
			c-0.313,0.034-0.62,0.073-0.933,0.112l-0.464,0.056l-0.464,0.061L7.06,27.046l-0.464,0.073c-0.313,0.045-0.62,0.095-0.928,0.145
			c-0.62,0.095-1.235,0.207-1.856,0.324C2.588,27.833,3.225,27.687,2,28z"/>
	</g>
	<g>
		<path style="fill:#CCCCCC;" d="M2.463,26.018c0,0,8.321-0.519,10.164,0.117"/>
		<path style="fill:#B88C1D;" d="M2.463,26.018c0.843-0.117,1.692-0.195,2.541-0.251c0.424-0.034,0.849-0.05,1.273-0.073
			c0.424-0.017,0.849-0.028,1.273-0.034c0.849-0.011,1.703,0,2.552,0.056c0.424,0.028,0.849,0.067,1.273,0.123
			c0.212,0.034,0.424,0.067,0.631,0.112c0.207,0.045,0.419,0.101,0.614,0.184c-0.106-0.022-0.207-0.045-0.313-0.056
			c-0.106-0.017-0.212-0.028-0.313-0.039c-0.106-0.011-0.212-0.017-0.318-0.022s-0.212-0.011-0.318-0.017
			c-0.212-0.011-0.424-0.017-0.637-0.017c-0.212,0-0.424-0.011-0.637-0.006H9.449c-0.212,0-0.424,0-0.637,0.006l-1.273,0.017
			l-2.547,0.034C4.166,26.035,3.317,26.041,2.463,26.018z"/>
	</g>
	<path style="fill:#B88C1D;" d="M24.383,10.476c0,0,1.145,0.547,1.083-2.77c-0.039-2.117,0.162-1.234,0.162-1.234h0.229
		c0,0-1.05,2.882,1.435,4.004h-2.083L24.383,10.476L24.383,10.476z"/>
	<ellipse style="fill:#B88C1D;" cx="25.724" cy="5.871" rx="1.966" ry="1.966"/>
	<circle style="fill:#B88C1D;" cx="24.383" cy="6.656" r="1.201"/>
	<circle style="fill:#B88C1D;" cx="27.141" cy="6.885" r="1.201"/>
	<circle style="fill:#B88C1D;" cx="24.081" cy="5.668" r="0.631"/>
	<polyline style="fill:#B88C1D;" points="25.527,8.751 24.388,8.041 24.209,7.371 24.483,7.193 24.572,7.946 25.449,8.639 	"/>
	<g>
		<path style="fill:#FFFFFF;" d="M23.042,10.566c0,0,4.887-0.307,5.97,0.067"/>
		<path style="fill:#B88C1D;" d="M23.042,10.566c0.497-0.067,0.994-0.117,1.491-0.145c0.251-0.022,0.497-0.028,0.748-0.045
			c0.251-0.011,0.497-0.017,0.748-0.022c0.497-0.006,1,0,1.497,0.034c0.251,0.017,0.497,0.039,0.748,0.073
			c0.123,0.022,0.251,0.039,0.369,0.067c0.123,0.028,0.246,0.061,0.363,0.106c-0.061-0.011-0.123-0.028-0.184-0.034
			c-0.061-0.011-0.123-0.017-0.184-0.022c-0.061-0.006-0.123-0.011-0.184-0.011c-0.061-0.006-0.123-0.006-0.184-0.011
			c-0.123-0.006-0.251-0.011-0.374-0.011c-0.123,0-0.251-0.006-0.374-0.006h-0.374c-0.123,0-0.251,0-0.374,0.006l-0.748,0.011
			l-1.497,0.022C24.042,10.577,23.545,10.582,23.042,10.566z"/>
	</g>
	<circle style="fill:#B88C1D;" cx="23.45" cy="7.159" r="0.631"/>
	<path style="fill:none;stroke:#CCCCCC;stroke-width:0.25;stroke-linecap:round;stroke-miterlimit:10;" d="M27.689,5.757
		c0,0-1.296-0.536-1.614,1.016"/>
</g>
</svg>
