<?xml version="1.0" encoding="iso-8859-1"?>
<!-- Generator: Adobe Illustrator 24.2.1, SVG Export Plug-In . SVG Version: 6.00 Build 0)  -->
<svg version="1.1" xmlns="http://www.w3.org/2000/svg" xmlns:xlink="http://www.w3.org/1999/xlink" x="0px" y="0px"
	 viewBox="0 0 128 128" style="enable-background:new 0 0 128 128;" xml:space="preserve">
<g id="Layer_1">
	<g>
		<path style="fill:#CCCCCC;" d="M125.5,107.5c0,9.9-8.1,18-18,18h-87c-9.9,0-18-8.1-18-18v-87c0-9.9,8.1-18,18-18h87
			c9.9,0,18,8.1,18,18V107.5z"/>
		<path style="fill:none;stroke:#4D4D4D;stroke-width:0.25;stroke-miterlimit:10;" d="M125.5,107.5c0,9.9-8.1,18-18,18h-87
			c-9.9,0-18-8.1-18-18v-87c0-9.9,8.1-18,18-18h87c9.9,0,18,8.1,18,18V107.5z"/>
	</g>
</g>
<g id="Layer_2">
	<g id="Layer_1_1_">
	</g>
	<g id="Layer_1_2_">
	</g>
	<g>
		<path style="fill:#00A996;" d="M29.059,110.907c-0.165-0.453-0.391-0.865-0.639-1.257l-3.791-7.313
			c-0.474-0.886-1.298-1.421-2.225-1.421c-0.927,0-1.751,0.536-2.225,1.421l-3.791,7.313c-0.247,0.391-0.453,0.803-0.639,1.257
			c-0.33,0.845-0.494,1.71-0.494,2.596c0,3.935,3.193,7.128,7.128,7.128s7.128-3.193,7.128-7.128
			C29.553,112.617,29.389,111.731,29.059,110.907z"/>
		<path style="fill:#00A996;" d="M104.54,36.703l-3.852-3.852c-0.35-0.35-0.35-0.906,0-1.257l5.315-5.315
			c0.35-0.35,0.906-0.35,1.257,0l4.594,4.594c0.35,0.35,0.906,0.35,1.257,0l1.627-1.627c0.35-0.35,0.35-0.927,0-1.257L94.034,7.327
			c-0.35-0.35-0.906-0.35-1.257,0L91.15,8.954c-0.35,0.35-0.35,0.906,0,1.257l3.914,3.914c0.35,0.35,0.35,0.906,0,1.257
			l-5.315,5.315c-0.35,0.35-0.906,0.35-1.257,0l-3.852-3.852c-1.051-1.051-2.451-1.627-3.935-1.627s-2.884,0.577-3.935,1.627
			L39.545,54.008c-2.163,2.163-2.163,5.706,0,7.869l1.957,1.957c0.35,0.35,0.35,0.927,0,1.277l-5.83,5.809
			c-1.195,1.195-1.195,3.131,0,4.326l3.131,3.131c0.35,0.35,0.35,0.927,0,1.257l-15.76,15.76c-0.35,0.35-0.35,0.906,0,1.257
			l1.627,1.627c0.35,0.35,0.906,0.35,1.257,0l15.78-15.78c0.35-0.35,0.906-0.35,1.257,0l2.513,2.513
			c1.545,1.545,4.038,1.545,5.583,0l5.191-5.191c0.35-0.35,0.906-0.35,1.257,0l1.957,1.957c1.051,1.051,2.451,1.627,3.935,1.627
			s2.884-0.577,3.935-1.627l37.205-37.205C106.703,42.41,106.703,38.867,104.54,36.703z M65.131,76.957l-5.727-5.727
			c-0.35-0.35-0.35-0.906,0-1.257l1.627-1.627c0.35-0.35,0.906-0.35,1.257,0l5.727,5.727c0.35,0.35,0.35,0.906,0,1.257l-1.627,1.627
			C66.058,77.307,65.481,77.307,65.131,76.957z M71.373,70.695l-5.727-5.727c-0.35-0.35-0.35-0.906,0-1.257l1.627-1.627
			c0.35-0.35,0.906-0.35,1.257,0l5.727,5.727c0.35,0.35,0.35,0.906,0,1.257l-1.627,1.627C72.3,71.045,71.723,71.045,71.373,70.695z
			 M77.615,64.473l-5.727-5.727c-0.35-0.35-0.35-0.906,0-1.257l1.627-1.627c0.35-0.35,0.906-0.35,1.257,0l5.727,5.727
			c0.35,0.35,0.35,0.906,0,1.257l-1.627,1.627C78.542,64.823,77.965,64.823,77.615,64.473z M84.001,58.066l-5.706-5.706
			c-0.35-0.35-0.35-0.906,0-1.257l1.627-1.627c0.35-0.35,0.906-0.35,1.257,0l5.727,5.727c0.35,0.35,0.35,0.906,0,1.257l-1.627,1.627
			C84.928,58.417,84.351,58.417,84.001,58.066z M94.672,47.642l-0.227-0.165c-0.886-0.639-1.936,0.577-1.154,1.36l0,0
			c0.35,0.35,0.35,0.906,0,1.257l-1.627,1.627c-0.35,0.35-0.906,0.35-1.257,0l-5.727-5.727c-0.35-0.35-0.35-0.906,0-1.257
			l3.646-3.646c0.35-0.35,0.35-0.927,0-1.277L74.401,26.197c-0.35-0.35-0.906-0.35-1.257,0L59.157,40.185l19.859-19.859
			c0.927-0.927,2.451-0.927,3.379,0l18.644,18.644c0.927,0.927,0.927,2.451,0,3.379l-5.212,5.191
			C95.517,47.848,95.022,47.89,94.672,47.642z"/>
	</g>
	<path style="fill:none;stroke:#CCCCCC;stroke-linecap:round;stroke-miterlimit:10;" d="M23.929,118.55c0,0,2.822-0.494,3.77-3.77"
		/>
	
		<rect x="82.417" y="21.506" transform="matrix(0.7042 -0.71 0.71 0.7042 -1.7456 70.5676)" style="fill:#00A996;" width="2.802" height="31.746"/>
	<line style="fill:none;stroke:#CCCCCC;stroke-miterlimit:10;" x1="86.7" y1="18.08" x2="103.922" y2="35.261"/>
</g>
</svg>
