<?xml version="1.0" encoding="iso-8859-1"?>
<!-- Generator: Adobe Illustrator 24.2.1, SVG Export Plug-In . SVG Version: 6.00 Build 0)  -->
<svg version="1.1" xmlns="http://www.w3.org/2000/svg" xmlns:xlink="http://www.w3.org/1999/xlink" x="0px" y="0px"
	 viewBox="0 0 128 128" style="enable-background:new 0 0 128 128;" xml:space="preserve">
<g id="Layer_1">
	<g>
		<path style="fill:#CCCCCC;" d="M125.5,107.5c0,9.9-8.1,18-18,18h-87c-9.9,0-18-8.1-18-18v-87c0-9.9,8.1-18,18-18h87
			c9.9,0,18,8.1,18,18V107.5z"/>
		<path style="fill:none;stroke:#4D4D4D;stroke-width:0.25;stroke-miterlimit:10;" d="M125.5,107.5c0,9.9-8.1,18-18,18h-87
			c-9.9,0-18-8.1-18-18v-87c0-9.9,8.1-18,18-18h87c9.9,0,18,8.1,18,18V107.5z"/>
	</g>
</g>
<g id="Layer_2">
	<g id="Layer_1_1_">
	</g>
	<g id="Layer_1_2_">
	</g>
	<path style="fill:#F05023;" d="M78.306,107.177l13.016-1.728c0.609-0.039,1.08-0.53,1.08-1.08c0-0.609-0.55-1.099-1.237-1.099
		c-0.079,0-12.682,1.492-12.682,1.492c-0.432,0.039-0.825-0.236-0.883-0.667c-0.039-0.432,0.236-0.825,0.667-0.883l5.143-0.707
		v-1.885H72.652l0,0c-0.667,0-1.198,0.55-1.198,1.198v2.316l-0.255,0.039c-0.53,0.079-0.883,0.55-0.825,1.08
		c0.079,0.53,0.55,0.883,1.06,0.825v2.042l-0.255,0.039c-0.53,0.079-0.883,0.55-0.825,1.08s0.55,0.883,1.06,0.825v2.042
		l-0.255,0.039c-0.53,0.079-0.883,0.55-0.825,1.08c0.079,0.53,0.55,0.883,1.06,0.825l0,0v2.042c0,0.236,0.118,0.452,0.294,0.609
		l1.688,1.512v0.02l0.02,0.02c0.137,0.118,0.334,0.196,0.53,0.196h3.966c0.039,1.08,1.531,1.944,3.377,1.944
		c1.826,0,3.318-0.864,3.377-1.944h4.181l0,0c0.196,0,0.353-0.079,0.51-0.196l0.02-0.02c0,0,0,0,0.02-0.02l1.669-1.512
		c0.177-0.137,0.294-0.353,0.294-0.609c0-0.02,0-0.039,0-0.039l0.02-0.02l-0.02-2.65c0.569-0.098,1.001-0.53,1.001-1.06
		c0-0.609-0.55-1.099-1.237-1.099c-0.079,0-12.682,1.492-12.682,1.492c-0.432,0.079-0.825-0.236-0.883-0.667
		c-0.039-0.432,0.236-0.825,0.667-0.883l13.016-1.728c0.609-0.039,1.08-0.51,1.08-1.08c0-0.609-0.55-1.099-1.237-1.099
		c-0.079,0-12.682,1.492-12.682,1.492c-0.432,0.079-0.825-0.236-0.883-0.667C77.56,107.628,77.874,107.216,78.306,107.177z"/>
	<path style="fill:#F05023;" d="M100.842,39.547l-40.048,8.481c-2.14,0.432-3.514,2.552-3.082,4.692
		c0.432,2.14,2.552,3.514,4.692,3.082l0.766-0.177c0.667,1.178,1.099,2.513,1.237,3.926c-1.139,0.294-1.983,1.315-1.983,2.552v1.315
		h-1.315c-1.472,0-2.65,1.178-2.65,2.65v5.752c0,6.675,2.552,12.662,6.93,16.902l0.491,0.452c2.277,2.14,4.496,5.045,5.34,8.422
		c0,0.039,0.02,0.079,0.02,0.118c0,0.02,0,0.039,0.02,0.039l0,0c0.196,0.569,0.726,0.982,1.355,1.001l0,0h17.59l0,0
		c0.628,0,1.158-0.432,1.355-1.001l0,0c0-0.02,0-0.039,0.02-0.039c0.02-0.039,0.02-0.079,0.02-0.118
		c0.844-3.377,3.082-6.302,5.34-8.422l0.491-0.452c4.378-4.221,6.949-10.228,6.949-16.902v-5.752c0-1.472-1.178-2.65-2.65-2.65
		h-1.276v-1.335c0-1.237-0.844-2.258-2.002-2.552c0.196-2.258,1.178-4.26,2.631-5.85c0.569-0.648,0.942-1.512,0.942-2.454
		c0-1.492-0.883-2.768-2.159-3.337l2.591-0.55c2.14-0.452,3.514-2.552,3.082-4.692C105.102,40.489,102.982,39.095,100.842,39.547z
		 M71.847,59.433h-0.059c-0.098-1.904-0.491-3.71-1.158-5.399l24.991-5.3c-2.67,2.788-4.299,6.576-4.535,10.679h-0.079
		c-1.472,0-2.65,1.178-2.65,2.65v1.315H74.458v-1.296C74.497,60.65,73.319,59.433,71.847,59.433z M100.175,68.837v4.692
		c0,5.438-2.101,10.326-5.654,13.762l-0.393,0.393c-1.845,1.728-3.691,4.142-4.358,6.851c0,0.02-0.02,0.079-0.02,0.098
		s0,0.02-0.02,0.039l0,0c-0.137,0.452-0.569,0.825-1.099,0.825h-3.593c0.02-0.039,0.039-0.118,0.079-0.177l0,0
		c0-0.02,0-0.02,0.02-0.039c0-0.02,0.02-0.079,0.02-0.098c0.726-2.866,2.631-5.359,4.574-7.205l0.412-0.393
		c3.75-3.612,5.929-8.716,5.929-14.409v-4.908c0-0.628-0.236-1.178-0.648-1.57h2.591C99.213,66.677,100.175,67.639,100.175,68.837z"
		/>
	<path style="fill:#F05023;" d="M100.842,27.807l-40.028,8.441c-2.14,0.452-3.514,2.552-3.082,4.692
		c0.452,2.14,2.552,3.514,4.692,3.082l40.028-8.441c2.14-0.452,3.514-2.552,3.082-4.692
		C105.102,28.75,102.982,27.356,100.842,27.807z"/>
	<path style="fill:#F05023;" d="M62.443,32.283l40.028-8.481c2.14-0.432,3.514-2.552,3.082-4.692
		c-0.452-2.14-2.552-3.514-4.692-3.082L60.834,24.47c-2.14,0.432-3.514,2.552-3.082,4.692
		C58.203,31.341,60.304,32.735,62.443,32.283z"/>
	<path style="fill:#F05023;" d="M73.888,18.738l17.118-3.475c2.14-0.432,3.514-2.552,3.082-4.692
		c-0.432-2.14-2.552-3.514-4.692-3.082l-17.118,3.475c-2.14,0.452-3.514,2.552-3.082,4.692
		C69.668,17.815,71.749,19.189,73.888,18.738z"/>
	<path id="Leaf_1_x2C__Nature_2" style="fill:#F05023;stroke:#CCCCCC;stroke-miterlimit:10;" d="M39.809,100.345
		c0.667,0.314,1.335,0.589,2.002,0.844c0.962,0.334,5.83,2.748,5.615,1.767c-3.22-14.292-7.087-27.602-6.478-32.686
		c0.255-2.002,0.609-1.963,0.746,0.059c0.962,13.251,9.286,31.135,9.933,32.313l0.137,0.236c1.217,2.454,2.552,4.731,3.789,6.616
		c1.315,2.061,2.611,3.691,3.534,4.829c0.903,1.139,1.649,1.885,1.57,1.806c2.12,1.786,17.275,5.929,18.748,4.554
		c1.472-1.394-11.975-8.108-13.467-9.56c-0.059-0.059-0.471-0.393-1.355-1.296c-0.844-0.903-2.081-2.199-3.435-3.926
		c-0.962-1.198-1.963-2.611-2.964-4.142c-0.098-0.157-0.039-0.353,0.137-0.412c5.065-1.865,9.384-5.497,11.838-10.581
		c4.044-8.402,2.847-22.635-9.129-30.919c0,0-13.074-9.05-14.802-17.55c-0.196-0.982-0.903-1.433-1.747-0.844
		c-5.242,3.553-11.739,10.915-16.098,18.925c-3.71,6.812-4.142,11.209-4.142,11.209C22.71,84.169,28.54,94.927,39.809,100.345z"/>
</g>
</svg>
