<?xml version="1.0" encoding="iso-8859-1"?>
<!-- Generator: Adobe Illustrator 24.2.1, SVG Export Plug-In . SVG Version: 6.00 Build 0)  -->
<svg version="1.1" xmlns="http://www.w3.org/2000/svg" xmlns:xlink="http://www.w3.org/1999/xlink" x="0px" y="0px"
	 viewBox="0 0 32 32" style="enable-background:new 0 0 32 32;" xml:space="preserve">
<g id="Layer_2">
	<g>
		<path style="fill:#CCCCCC;" d="M31,26c0,2.75-2.25,5-5,5H6c-2.75,0-5-2.25-5-5V6c0-2.75,2.25-5,5-5h20c2.75,0,5,2.25,5,5V26z"/>
		<path style="fill:none;stroke:#4D4D4D;stroke-width:0.15;stroke-miterlimit:10;" d="M31,26c0,2.75-2.25,5-5,5H6
			c-2.75,0-5-2.25-5-5V6c0-2.75,2.25-5,5-5h20c2.75,0,5,2.25,5,5V26z"/>
	</g>
</g>
<g id="Layer_1">
	
		<circle style="fill:#98252B;stroke:#CCCCCC;stroke-width:0.25;stroke-linecap:round;stroke-miterlimit:10;" cx="9.952" cy="12.24" r="6.115"/>
	<g>
		<g>
			<path style="fill:#98252B;stroke:#CCCCCC;stroke-width:0.15;stroke-miterlimit:10;" d="M21.339,18.122l3.221,1.009V14.84
				c0-0.139-0.15-0.205-0.266-0.172c-0.782,0.249-1.863,0.371-2.888,0.371c-1.497,0-2.694-0.266-3.371-0.427
				c-0.017-0.006-0.033-0.006-0.05-0.006c-0.111,0-0.2,0.083-0.2,0.183v3.903c0.366,0.493,0.638,1.159,0.765,2.079
				c0.405-0.294,0.815-0.504,1.209-0.621l-0.2-2.983c-0.028-0.233,0.338,0.771,0.493,0.593
				C20.214,17.584,21.107,18.122,21.339,18.122z"/>
		</g>
		<g>
			<path style="fill:#98252B;stroke:#CCCCCC;stroke-width:0.15;stroke-miterlimit:10;" d="M17.503,14.784
				c0-0.261,0.216-0.466,0.482-0.466c0.039,0,0.078,0.006,0.116,0.011c0.671,0.155,1.841,0.416,3.31,0.416
				c0.992,0,2.046-0.122,2.8-0.36c0.05-0.017,0.1-0.022,0.155-0.022c0.266,0,0.482,0.211,0.482,0.466v0.915
				c0,0,0.006,3.881,0.011,3.881l0.288-0.565c0,0,0.305,1.713,0.255-1.369l-0.078-3.554c0-2.229-0.355-4.435-1.059-6.57l-1.125-3.41
				c-0.05-0.155-0.028-0.316,0.072-0.449s0.255-0.216,0.427-0.216h0.028V2.859c0,0,0-0.006-0.006-0.006h-0.937
				c-0.05,0-0.094-0.033-0.1-0.083C22.62,2.71,22.664,2.66,22.72,2.66h0.942c0,0,0.006,0,0.006-0.006V2.006c0,0,0-0.006-0.172-0.006
				H18.54c0,0,0.161,0,0.161,0.006V2.66c0,0,0,0.006,0.006,0.006h0.965c0.05,0,0.094,0.033,0.1,0.083
				c0.006,0.061-0.039,0.111-0.094,0.111h-0.97c0,0-0.006,0-0.006,0.006v0.621h0.028c0.172,0,0.327,0.083,0.427,0.216
				c0.094,0.133,0.122,0.299,0.067,0.449l-1.131,3.404c-0.704,2.134-1.059,4.346-1.059,6.57v4.735l0.128,0.272
				c0.161,0.111,0.188,0.344,0.338,0.488l0.006-1.281V14.784z"/>
		</g>
		<g>
			<path style="fill:#98252B;stroke:#CCCCCC;stroke-width:0.15;stroke-miterlimit:10;" d="M5.223,22.646
				c-0.116,0-0.222,0.044-0.299,0.128s-0.122,0.188-0.122,0.299c0,0.233,0.194,0.427,0.427,0.427v0.144v-0.144
				c0.116,0,0.222-0.044,0.299-0.128c0.078-0.083,0.122-0.188,0.122-0.299C5.65,22.834,5.462,22.646,5.223,22.646z"/>
		</g>
		<g>
			<path style="fill:#98252B;stroke:#CCCCCC;stroke-width:0.15;stroke-miterlimit:10;" d="M3.433,24.514
				c0-0.299-0.183-0.56-0.444-0.671v1.336c0.083-0.039,0.161-0.089,0.227-0.155C3.355,24.891,3.433,24.708,3.433,24.514z"/>
		</g>
		<g>
			<g>
				<g>
					<path style="fill:#98252B;stroke:#CCCCCC;stroke-width:0.15;stroke-miterlimit:10;" d="M15.901,18.072
						c-0.288-0.105-0.599-0.2-0.687-0.211c-0.089-0.011-0.322,0.044-0.333,0.05c-0.011,0.006-0.255,0.072-0.549,0.161l-9.07,2.606
						c-0.294,0.083-0.283,0.155,0.022,0.15L17.437,20.8c0.305,0,0.427-0.216,0.277-0.482L15.901,18.072z"/>
				</g>
			</g>
		</g>
		<g>
			<path style="fill:#98252B;stroke:#CCCCCC;stroke-width:0.15;stroke-miterlimit:10;" d="M3.388,26.166l-0.089,0.061l4.285-0.011
				c0.128-0.471,0.554-0.821,1.059-0.821l0,0c0.51,0,0.937,0.344,1.064,0.815h0.416c-0.188-0.455-0.255-0.893-0.172-1.27
				c0.266-1.286,2.251-2.378,4.319-2.378c0.399,0,0.793,0.039,1.175,0.122c0.017,0.006,0.033,0.011,0.05,0.011
				c0-0.006,0-0.017,0-0.022c0-0.499,0.405-0.909,0.904-0.909c0.327,0,0.61,0.172,0.771,0.427c0.205-0.299,0.438-0.577,0.676-0.821
				L3.294,21.398c-0.022,0-0.039,0-0.055,0.006l-0.072,0.022c-0.033,0.017-0.067,0.033-0.094,0.061
				c-0.055,0.055-0.089,0.133-0.089,0.211l0.006,1.846c0.421,0.122,0.726,0.504,0.732,0.965c0,0.272-0.105,0.527-0.294,0.715
				c-0.122,0.122-0.272,0.205-0.432,0.249v0.449c0,0.166,0.139,0.305,0.305,0.305 M5.728,23.571
				c-0.133,0.133-0.31,0.211-0.504,0.211l0,0c-0.394,0-0.71-0.316-0.71-0.71c0-0.188,0.072-0.366,0.205-0.504
				c0.133-0.133,0.31-0.211,0.504-0.211c0.394,0,0.71,0.316,0.71,0.71C5.938,23.261,5.861,23.438,5.728,23.571z M8.965,23.061
				c0-0.266,0.105-0.521,0.294-0.71c0.188-0.188,0.444-0.294,0.71-0.294c0.554,0,1.009,0.449,1.009,1.003
				c0,0.554-0.449,1.009-1.003,1.009l0,0C9.42,24.07,8.965,23.616,8.965,23.061z"/>
		</g>
		<g>
			<path style="fill:#98252B;stroke:#CCCCCC;stroke-width:0.15;stroke-miterlimit:10;" d="M15.779,22.673
				c0,0.033,0.006,0.067,0.011,0.1c0.322,0.094,0.599,0.216,0.848,0.349c0.105-0.227,0.222-0.444,0.349-0.654
				c-0.083-0.244-0.316-0.421-0.588-0.421C16.056,22.052,15.779,22.33,15.779,22.673z"/>
		</g>
		<g>
			<path style="fill:#98252B;stroke:#CCCCCC;stroke-width:0.15;stroke-miterlimit:10;" d="M8.638,25.689L8.638,25.689
				c-0.349,0-0.649,0.222-0.765,0.532l1.525-0.006C9.287,25.911,8.988,25.689,8.638,25.689z"/>
		</g>
		<g>
			<path style="fill:#98252B;stroke:#CCCCCC;stroke-width:0.15;stroke-miterlimit:10;" d="M9.969,23.926v-0.144
				c0.399,0,0.721-0.327,0.721-0.721c0-0.399-0.322-0.721-0.721-0.721c-0.194,0-0.377,0.078-0.51,0.211
				c-0.139,0.139-0.211,0.316-0.211,0.51c0,0.399,0.322,0.721,0.721,0.721V23.926z"/>
		</g>
		<g>
			<path style="fill:#98252B;stroke:#CCCCCC;stroke-width:0.15;stroke-miterlimit:10;" d="M22.116,22.341
				c-0.338-0.904-0.881-1.552-1.414-1.696c-0.089-0.022-0.183-0.033-0.283-0.033c-1.064,0-2.595,1.192-3.299,2.833
				c0.421,0.327,0.71,0.704,0.898,1.026c0.427,0.726,0.599,1.608,0.449,2.301c-0.067,0.31-0.188,0.615-0.366,0.909
				c0.205,0.128,0.427,0.227,0.649,0.288c0.155,0.039,0.333,0.061,0.521,0.061c0.876,0,2.495-0.521,3.016-2.478
				C22.565,24.531,22.498,23.355,22.116,22.341z"/>
		</g>
		<g>
			<path style="fill:#98252B;stroke:#CCCCCC;stroke-width:0.15;stroke-miterlimit:10;" d="M15.324,23.239
				c-0.338-0.072-0.693-0.111-1.053-0.111c-1.924,0-3.576,1.02-3.77,1.935c-0.116,0.538,0.216,1.314,0.87,2.029
				c0.732,0.804,1.752,1.392,2.789,1.613c0.294,0.061,0.582,0.094,0.854,0.094c1.791,0,2.717-1.286,2.905-2.151
				c0.089-0.421,0.044-1.17-0.383-1.896C17.209,24.215,16.566,23.505,15.324,23.239z"/>
		</g>
	</g>
	<g>
		<path style="fill:#98252B;stroke:#CCCCCC;stroke-width:0.25;stroke-miterlimit:10;" d="M21.478,27.214
			c1.58,1.558,4.468,1.58,6.226-0.177s1.735-4.646,0.177-6.226c-1.58-1.58-7.883-5.023-9.641-3.265
			C16.455,19.33,19.92,25.634,21.478,27.214z M23.385,26.687c0.1-0.1,0.249-0.1,0.349,0s0.1,0.249,0,0.349s-0.249,0.1-0.349,0
			S23.285,26.787,23.385,26.687z"/>
		<path style="fill:#98252B;stroke:#CCCCCC;stroke-width:0.25;stroke-miterlimit:10;" d="M13.511,16.564
			c0.504,0.504,1.331,0.504,1.857,0c0.022-0.022,0.05-0.05,0.072-0.083c0.078-0.094,0.216-0.105,0.305-0.017l1.148,1.148
			c0.094,0.094,0.261,0.072,0.327-0.05c0.083-0.15,0.177-0.283,0.31-0.399c0.116-0.116,0.255-0.222,0.405-0.31
			c0.116-0.067,0.139-0.227,0.044-0.322l-1.159-1.159c-0.083-0.083-0.078-0.227,0.017-0.305c0.022-0.022,0.05-0.039,0.078-0.061
			c0.006-0.006,0.017-0.011,0.022-0.022c0.493-0.504,0.488-1.325-0.011-1.846c-0.504-0.504-1.331-0.504-1.857,0
			c-0.249,0.249-0.377,0.604-0.383,0.948c0,0.061-0.028,0.111-0.072,0.155l0,0l0,0c-0.039,0.044-0.094,0.072-0.155,0.072
			c-0.338,0-0.671,0.128-0.942,0.371c-0.006,0.006-0.011,0.011-0.017,0.017C13.007,15.244,13.012,16.065,13.511,16.564z"/>
	</g>
	<g style="enable-background:new    ;">
		<path style="fill:#CCCCCC;" d="M13.679,8.297l0.227,0.324c-0.926,0.696-1.955,1.769-3.088,3.218
			C9.685,13.288,8.82,14.642,8.223,15.9l-0.48,0.324c-0.398,0.277-0.668,0.482-0.811,0.616c-0.056-0.203-0.18-0.536-0.37-0.999
			L6.38,15.42c-0.259-0.605-0.501-1.053-0.723-1.343c-0.223-0.29-0.473-0.482-0.749-0.577c0.467-0.493,0.895-0.74,1.284-0.74
			c0.333,0,0.703,0.452,1.109,1.356l0.201,0.454c0.731-1.233,1.669-2.43,2.815-3.594C11.464,9.813,12.584,8.92,13.679,8.297z"/>
	</g>
</g>
</svg>
