<?xml version="1.0" encoding="iso-8859-1"?>
<!-- Generator: Adobe Illustrator 24.2.1, SVG Export Plug-In . SVG Version: 6.00 Build 0)  -->
<svg version="1.1" xmlns="http://www.w3.org/2000/svg" xmlns:xlink="http://www.w3.org/1999/xlink" x="0px" y="0px"
	 viewBox="0 0 32 32" style="enable-background:new 0 0 32 32;" xml:space="preserve">
<g id="Layer_2">
	<g>
		<path style="fill:#CCCCCC;" d="M31,26c0,2.75-2.25,5-5,5H6c-2.75,0-5-2.25-5-5V6c0-2.75,2.25-5,5-5h20c2.75,0,5,2.25,5,5V26z"/>
		<path style="fill:none;stroke:#4D4D4D;stroke-width:0.15;stroke-miterlimit:10;" d="M31,26c0,2.75-2.25,5-5,5H6
			c-2.75,0-5-2.25-5-5V6c0-2.75,2.25-5,5-5h20c2.75,0,5,2.25,5,5V26z"/>
	</g>
</g>
<g id="Layer_1">
	<path style="fill:#FDB714;" d="M24.999,6.757H7.001c-0.55,0-1.05,0.4-1.2,1c-1.5,6.199-1.5,12.698,0,18.898c0.15,0.6,0.65,1,1.2,1
		h17.998c0.55,0,1.05-0.4,1.2-1c1.5-6.199,1.5-12.698,0-18.898C26.049,7.157,25.549,6.757,24.999,6.757z"/>
	<path style="fill:#FDB714;" d="M5.601,3.658l0.5,2.5c0.05,0.25,0.25,0.4,0.5,0.4h18.698c0.25,0,0.45-0.15,0.5-0.4l0.5-2.5
		c0.05-0.25-0.1-0.55-0.4-0.6c-0.05,0-0.1,0-0.1,0h-0.05c-0.85,0-1.8,0.9-2.45,0.95c-0.65,0.05-1.55-0.65-2.5-0.65
		c-0.95,0.05-1.75,0.85-2.45,0.85c-0.7,0-1.5-0.75-2.45-0.75s-1.8,0.75-2.45,0.75c-0.7,0-1.5-0.8-2.45-0.85
		c-0.95-0.05-1.85,0.7-2.5,0.6c-0.65-0.05-1.45-0.85-2.4-0.95c-0.3-0.05-0.55,0.15-0.55,0.45C5.601,3.558,5.601,3.608,5.601,3.658z"
		/>
	<path style="fill:#FDB714;" d="M26.399,28.804l-0.5-0.8c-0.05-0.05-0.25-0.15-0.5-0.15H6.651c-0.25,0-0.45,0.05-0.5,0.15l-0.5,0.8
		c-0.05,0.1,0.1,0.15,0.4,0.2c0.05,0,0.1,0,0.1,0h0.05c0.85,0,1.8-0.3,2.45-0.3c0.65,0,1.55,0.2,2.5,0.2s1.75-0.25,2.45-0.25
		c0.7,0,1.5,0.25,2.45,0.25c0.95,0,1.8-0.25,2.45-0.25c0.7,0,1.5,0.25,2.45,0.25c0.95,0,1.85-0.2,2.5-0.2s1.45,0.25,2.4,0.3
		c0.3,0,0.55-0.05,0.55-0.15L26.399,28.804z"/>
	<path style="fill:#FFFFFF;" d="M13.7,24.055c-0.2,0.2-0.45,0.4-0.7,0.55c0.05-0.05,0.1-0.1,0.15-0.2c0.8-1,0.35-2.2,0.35-2.2
		C13.55,22.255,14.05,23.105,13.7,24.055z M11.701,22.255c0,0,0.4-0.9,1.35-0.7c1.05,0.25,1.3,1.4,0.95,2.1
		c-0.05,0.05-0.05,0.15-0.1,0.2c0.2-0.2,0.4-0.35,0.6-0.55c0.15-0.9-0.45-1.85-1.4-1.95C11.901,21.205,11.701,22.255,11.701,22.255z
		 M19,16.206c0,0,0.45-1,0.25-2.1c-0.15-0.75-0.6-1.35-0.85-1.6c0-0.05,0-0.1,0-0.2c0-0.25,0-0.6,0.05-0.95
		c0.05-0.7,0.1-1.4,0.05-1.4c-0.05,0-0.2,0.7-0.3,1.4c-0.05,0.35-0.1,0.7-0.1,0.95c0,0.1,0,0.2,0,0.25c-0.1,0.4-0.3,1.1-0.15,1.85
		C18.15,15.456,19,16.206,19,16.206z M18,18.756c0,0,0.55-1,0.35-2.1c-0.15-0.85-0.65-1.55-0.85-1.8c0-0.25,0-0.65,0-1.1
		c0-0.7,0.05-1.4,0.05-1.4c-0.05,0-0.2,0.7-0.25,1.4c-0.1,0.7-0.1,1.4-0.1,1.4v0.05c-0.15,0.4-0.25,1-0.15,1.6
		C17.2,17.956,18,18.756,18,18.756z M16,18.956c0.1,1.1,0.85,1.95,0.85,1.95s0.6-0.95,0.5-2.05c-0.1-0.9-0.55-1.6-0.75-1.85
		c0-0.25,0.05-0.6,0.1-0.95c0.05-0.7,0.15-1.4,0.1-1.4c-0.05,0-0.2,0.65-0.35,1.35c-0.15,0.7-0.2,1.4-0.2,1.4v0.05
		C16.05,17.806,15.95,18.356,16,18.956z M14.65,20.855c-0.05,1.1,0.55,2.05,0.55,2.05s0.75-0.85,0.8-1.95
		c0.05-0.8-0.25-1.45-0.4-1.8c0-0.25,0.05-0.65,0.1-1c0.05-0.7,0.2-1.4,0.15-1.4s-0.25,0.65-0.35,1.35
		c-0.05,0.4-0.15,0.75-0.15,1.05C15.05,19.455,14.7,20.105,14.65,20.855z M11.451,26.505c0.1,0.15,0.3,0.2,0.7,0
		c0.25-0.15,1.05-0.7,1.2-0.85c1.6-0.75,3.35-0.1,3.35-0.15c0,0-1.1-0.7-2.65-0.45c0.1-0.1,0.25-0.2,0.35-0.3
		c2.25-1,4.299,0.4,4.299,0.35c0,0-1.5-1.45-3.7-0.9c0.25-0.25,0.5-0.5,0.75-0.8c0.4,0,1.1,0,1.8-0.35c0.7-0.35,1.15-0.95,1.35-1.25
		c0,0,0,0,0.05-0.05c0.2-0.15,0.5-0.4,0.75-0.65c0.55-0.45,1-1,0.95-1c-0.05-0.05-0.55,0.4-1.1,0.85c-0.3,0.2-0.55,0.45-0.8,0.55
		c-0.4,0-1.1,0-1.75,0.3c0.1-0.15,0.25-0.35,0.35-0.5c0.35,0,1.15-0.15,1.8-0.6c0.6-0.4,0.95-1,1.1-1.35c0-0.05,0.05-0.05,0.05-0.1
		c0.2-0.2,0.4-0.5,0.6-0.75c0.45-0.55,0.8-1.2,0.75-1.2c-0.05,0-0.45,0.55-0.9,1.05c-0.2,0.25-0.45,0.5-0.6,0.65
		c-0.4,0.05-1.15,0.15-1.8,0.6c-0.05,0.05-0.1,0.05-0.1,0.1c0.1-0.25,0.25-0.5,0.35-0.75c0.3-0.05,1.15-0.25,1.8-0.85
		c0.45-0.4,0.7-0.9,0.8-1.3l0,0c0,0,0.1-0.15,0.25-0.4s0.3-0.55,0.45-0.85c0.3-0.65,0.55-1.3,0.5-1.35c-0.05,0-0.35,0.6-0.7,1.2
		c-0.15,0.3-0.35,0.6-0.5,0.8c-0.35,0.05-1.15,0.3-1.75,0.85c-0.05,0.05-0.15,0.15-0.2,0.2c0.05-0.15,0.1-0.3,0.15-0.45
		c0.05-0.1,0.05-0.2,0.1-0.3c0.15-0.05,1.1-0.35,1.75-1.15c0.45-0.55,0.6-1.25,0.65-1.65v-0.05c0.1-0.25,0.2-0.6,0.25-0.95
		c0.15-0.7,0.25-1.4,0.2-1.4c-0.05,0-0.2,0.7-0.4,1.35c-0.1,0.3-0.2,0.55-0.3,0.8c-0.35,0.15-1.05,0.45-1.5,1.1
		c-0.1,0.15-0.2,0.3-0.25,0.4c0.05-0.25,0.1-0.5,0.15-0.75c0.25-0.3,0.65-0.95,0.75-1.75s-0.2-1.55-0.35-1.9c0-0.3,0-0.7-0.05-1.05
		c-0.05-0.85-0.25-1.7-0.25-1.65c-0.05,0,0.05,0.85,0.05,1.7c0,0.4,0,0.8,0,1.1c-0.25,0.3-0.6,0.95-0.7,1.7
		c-0.1,0.8,0.2,1.5,0.35,1.85c-2.05,7.899-6.449,10.549-8.049,11.648C11.451,26.155,11.401,26.355,11.451,26.505z"/>
</g>
</svg>
