<?xml version="1.0" encoding="iso-8859-1"?>
<!-- Generator: Adobe Illustrator 24.2.1, SVG Export Plug-In . SVG Version: 6.00 Build 0)  -->
<svg version="1.1" xmlns="http://www.w3.org/2000/svg" xmlns:xlink="http://www.w3.org/1999/xlink" x="0px" y="0px"
	 viewBox="0 0 32 32" style="enable-background:new 0 0 32 32;" xml:space="preserve">
<g id="Layer_2">
	<g>
		<path style="fill:#CCCCCC;" d="M31,26c0,2.75-2.25,5-5,5H6c-2.75,0-5-2.25-5-5V6c0-2.75,2.25-5,5-5h20c2.75,0,5,2.25,5,5V26z"/>
		<path style="fill:none;stroke:#4D4D4D;stroke-width:0.15;stroke-miterlimit:10;" d="M31,26c0,2.75-2.25,5-5,5H6
			c-2.75,0-5-2.25-5-5V6c0-2.75,2.25-5,5-5h20c2.75,0,5,2.25,5,5V26z"/>
	</g>
</g>
<g id="Layer_1">
	<g>
		<path style="fill:#00A996;" d="M7.317,27.324c-0.04-0.109-0.094-0.208-0.153-0.302l-0.911-1.758
			c-0.114-0.213-0.312-0.342-0.535-0.342s-0.421,0.129-0.535,0.342l-0.911,1.758c-0.059,0.094-0.109,0.193-0.153,0.302
			C4.04,27.527,4,27.735,4,27.948c0,0.946,0.767,1.713,1.713,1.713s1.713-0.767,1.713-1.713C7.436,27.735,7.397,27.522,7.317,27.324
			z"/>
		<path style="fill:#00A996;" d="M25.458,9.49l-0.926-0.926c-0.084-0.084-0.084-0.218,0-0.302l1.277-1.277
			c0.084-0.084,0.218-0.084,0.302,0l1.104,1.104c0.084,0.084,0.218,0.084,0.302,0l0.391-0.391c0.084-0.084,0.084-0.223,0-0.302
			L22.933,2.43c-0.084-0.084-0.218-0.084-0.302,0L22.24,2.821c-0.084,0.084-0.084,0.218,0,0.302l0.941,0.941
			c0.084,0.084,0.084,0.218,0,0.302l-1.277,1.277c-0.084,0.084-0.218,0.084-0.302,0l-0.926-0.926
			c-0.253-0.253-0.589-0.391-0.946-0.391s-0.693,0.139-0.946,0.391l-8.947,8.932c-0.52,0.52-0.52,1.371,0,1.891l0.47,0.47
			c0.084,0.084,0.084,0.223,0,0.307l-1.401,1.396c-0.287,0.287-0.287,0.753,0,1.04l0.753,0.753c0.084,0.084,0.084,0.223,0,0.302
			l-3.788,3.788c-0.084,0.084-0.084,0.218,0,0.302l0.391,0.391c0.084,0.084,0.218,0.084,0.302,0l3.793-3.793
			c0.084-0.084,0.218-0.084,0.302,0l0.604,0.604c0.371,0.371,0.97,0.371,1.342,0l1.248-1.248c0.084-0.084,0.218-0.084,0.302,0
			l0.47,0.47c0.253,0.253,0.589,0.391,0.946,0.391c0.356,0,0.693-0.139,0.946-0.391l8.942-8.942
			C25.978,10.861,25.978,10.01,25.458,9.49z M15.987,19.165l-1.376-1.376c-0.084-0.084-0.084-0.218,0-0.302l0.391-0.391
			c0.084-0.084,0.218-0.084,0.302,0l1.376,1.376c0.084,0.084,0.084,0.218,0,0.302l-0.391,0.391
			C16.21,19.249,16.071,19.249,15.987,19.165z M17.487,17.659l-1.376-1.376c-0.084-0.084-0.084-0.218,0-0.302l0.391-0.391
			c0.084-0.084,0.218-0.084,0.302,0l1.376,1.376c0.084,0.084,0.084,0.218,0,0.302l-0.391,0.391
			C17.71,17.744,17.571,17.744,17.487,17.659z M18.987,16.164l-1.376-1.376c-0.084-0.084-0.084-0.218,0-0.302l0.391-0.391
			c0.084-0.084,0.218-0.084,0.302,0l1.376,1.376c0.084,0.084,0.084,0.218,0,0.302l-0.391,0.391
			C19.21,16.248,19.071,16.248,18.987,16.164z M20.522,14.624l-1.371-1.371c-0.084-0.084-0.084-0.218,0-0.302l0.391-0.391
			c0.084-0.084,0.218-0.084,0.302,0l1.376,1.376c0.084,0.084,0.084,0.218,0,0.302l-0.391,0.391
			C20.745,14.709,20.606,14.709,20.522,14.624z M23.087,12.119l-0.054-0.04c-0.213-0.153-0.465,0.139-0.277,0.327l0,0
			c0.084,0.084,0.084,0.218,0,0.302l-0.391,0.391c-0.084,0.084-0.218,0.084-0.302,0l-1.376-1.376c-0.084-0.084-0.084-0.218,0-0.302
			l0.876-0.876c0.084-0.084,0.084-0.223,0-0.307l-3.347-3.273c-0.084-0.084-0.218-0.084-0.302,0l-3.362,3.362l4.773-4.773
			c0.223-0.223,0.589-0.223,0.812,0l4.481,4.481c0.223,0.223,0.223,0.589,0,0.812l-1.253,1.248
			C23.29,12.169,23.171,12.178,23.087,12.119z"/>
	</g>
	<path style="fill:none;stroke:#CCCCCC;stroke-width:0.25;stroke-linecap:round;stroke-miterlimit:10;" d="M6.084,29.161
		c0,0,0.678-0.119,0.906-0.906"/>
	
		<rect x="20.142" y="5.837" transform="matrix(0.7042 -0.71 0.71 0.7042 -0.7957 17.3947)" style="fill:#00A996;" width="0.673" height="7.63"/>
	<line style="fill:none;stroke:#CCCCCC;stroke-width:0.25;stroke-miterlimit:10;" x1="21.78" y1="5.612" x2="24.546" y2="8.379"/>
</g>
</svg>
