<?xml version="1.0" encoding="iso-8859-1"?>
<!-- Generator: Adobe Illustrator 24.2.1, SVG Export Plug-In . SVG Version: 6.00 Build 0)  -->
<svg version="1.1" xmlns="http://www.w3.org/2000/svg" xmlns:xlink="http://www.w3.org/1999/xlink" x="0px" y="0px"
	 viewBox="0 0 32 32" style="enable-background:new 0 0 32 32;" xml:space="preserve">
<g id="Layer_2">
	<g>
		<path style="fill:#CCCCCC;" d="M31,26c0,2.75-2.25,5-5,5H6c-2.75,0-5-2.25-5-5V6c0-2.75,2.25-5,5-5h20c2.75,0,5,2.25,5,5V26z"/>
		<path style="fill:none;stroke:#4D4D4D;stroke-width:0.15;stroke-miterlimit:10;" d="M31,26c0,2.75-2.25,5-5,5H6
			c-2.75,0-5-2.25-5-5V6c0-2.75,2.25-5,5-5h20c2.75,0,5,2.25,5,5V26z"/>
	</g>
</g>
<g id="Layer_1">
	<path style="fill:#706F6F;" d="M23.504,20.212c3.273-3.322,3.268-8.7,0-12.028c-3.338-3.387-8.808-3.408-12.168-0.048
		c0,0,0,0-0.005,0.005l1.341,1.351l0,0c2.945-2.956,7.979-2.574,10.38,1.158c1.244,1.938,1.244,5.142,0,7.08
		c-2.39,3.731-7.424,4.119-10.37,1.174c-1.615-1.615-2.224-3.85-1.836-5.939c0.07-0.371-0.092-0.748-0.409-0.953l0,0
		c-0.565-0.377-1.33-0.048-1.454,0.625c-0.49,2.676,0.291,5.545,2.353,7.613C14.69,23.62,20.166,23.604,23.504,20.212z"/>
	<path style="fill:#706F6F;" d="M11.412,13.719l-3.338-0.382c-0.371-0.043-0.501-0.511-0.21-0.743l1.863-1.481
		c0.178-0.145,0.441-0.113,0.581,0.065l1.481,1.863C12.02,13.331,11.783,13.757,11.412,13.719z"/>
	<path style="stroke:#FFFFFF;stroke-width:0.15;stroke-miterlimit:10;" d="M26.368,6.625c-0.226,0.361-0.549,0.662-0.937,0.888
		L24.301,8.17c-0.172,0.102-0.398,0.054-0.511-0.102c-0.005-0.005-0.005-0.011-0.005-0.011c-0.205-0.328-0.549-0.856-0.797-1.184
		c-0.075-0.102-0.081-0.237-0.022-0.35c0.043-0.07,0.086-0.135,0.14-0.199c0.065-0.075,0.086-0.172,0.065-0.269
		c-0.086-0.415-0.232-1.545,0.808-2.014c0.404-0.178,0.867-0.205,1.292-0.075l0.022,0.005C26.487,4.342,26.987,5.623,26.368,6.625z"
		/>
	<path style="stroke:#FFFFFF;stroke-width:0.15;stroke-miterlimit:10;" d="M18.594,26.78c0.501-0.022,1.001-0.081,1.491-0.167
		c0.242-0.043,0.425-0.226,0.452-0.447c0.118-1.023,0.468-2.854,0.619-3.656c0.048-0.248,0.135-0.49,0.253-0.716
		c0.716-1.351,2.552-5.131,2.552-5.131c0.188-0.49,0.307-0.996,0.355-1.513c0.07-0.765,0.005-1.54-0.188-2.288
		c-0.474-1.857-0.237-2.719-0.237-2.719c0.452-1.524,1.308-2.137,1.906-2.385c0.404-0.167,0.883-0.065,1.163,0.248
		c0.555,0.641,0.781,1.631,0.867,2.121c0.043,0.232,0.102,0.452,0.188,0.673l0.738,1.863c0.151,0.371,0.156,0.781,0.022,1.158
		c-0.248,0.695-0.533,1.529-0.7,2.019c-0.081,0.248-0.086,0.506-0.022,0.759c0.043,0.151,0.075,0.307,0.102,0.463
		c0.038,0.205,0.011,0.415-0.059,0.608c-0.097,0.248-0.275,0.458-0.511,0.603c-0.188,0.038-0.393,0.016-0.56-0.059
		c-0.673-0.307-0.377-1.265-0.371-1.271s0.005-0.022,0.005-0.032l0.651-2.902c0.102-0.447,0.075-0.91-0.059-1.346l-0.754-2.337
		c-0.065-0.205-0.302-0.323-0.533-0.264c-0.011,0.005-0.022,0.005-0.038,0.011c-0.205,0.081-0.312,0.291-0.248,0.485l0.748,2.326
		c0.102,0.318,0.118,0.651,0.043,0.974l-0.646,2.886c-0.145,0.474-0.199,1.373,0.425,1.922c0.086,0.081,0.097,0.205,0.016,0.296l0,0
		l-2.304,2.568c-0.221,0.248-0.361,0.544-0.404,0.861l-0.038,0.253c-0.027,0.242-0.124,0.474-0.264,0.684l-0.415,0.614
		c-0.345,0.501-0.608,1.044-0.791,1.615c-0.264,0.829-0.479,1.674-0.603,2.197c-0.059,0.248-0.323,0.404-0.598,0.35
		c-0.022-0.005-0.043-0.011-0.065-0.016l-2.272-0.743c-0.124-0.038-0.205-0.135-0.221-0.253c-0.011-0.156,0.113-0.296,0.285-0.307
		C18.583,26.78,18.588,26.78,18.594,26.78z"/>
	<path style="stroke:#FFFFFF;stroke-width:0.15;stroke-miterlimit:10;" d="M25.272,21.236c-0.086-0.178-0.054-0.393,0.097-0.538
		l1.211-1.195c0.075-0.075,0.205-0.081,0.291-0.005c0.038,0.032,0.059,0.07,0.065,0.118l0.038,0.334
		c0.048,0.458,0.253,0.888,0.598,1.228c0.285,0.28,0.479,0.63,0.56,1.001l0.172,0.765c0.221,1.114,1.238,2.907,1.238,2.907
		l0.361,0.501c0.172,0.242,0.113,0.565-0.14,0.732c-0.63,0.42-1.432,0.802-1.884,1.001c-0.167,0.075-0.366,0.011-0.441-0.14
		c-0.059-0.113-0.038-0.248,0.059-0.339c0.215-0.21,0.415-0.436,0.598-0.673c0.156-0.194,0.162-0.447,0.027-0.651
		C26.924,24.466,25.686,22.065,25.272,21.236z"/>
	<g>
		<path d="M12.176,27.674H11.32c-0.086-0.248-0.167-0.603-0.21-1.028c0.452-0.011,0.899-0.038,1.335-0.075
			C12.311,26.931,12.219,27.303,12.176,27.674z"/>
		<path d="M8.677,27.674h-0.91c-0.248-0.296-0.592-0.791-0.926-1.394c0.501,0.102,1.023,0.183,1.561,0.242
			C8.45,26.904,8.537,27.287,8.677,27.674z"/>
		<path style="stroke:#FFFFFF;stroke-width:0.15;stroke-miterlimit:10;" d="M2,21.752c0.016,0.625,0.528,1.12,1.152,1.12
			c0.011,0,0.022,0,0.032,0c0.215-0.005,0.42-0.059,0.603-0.162c0.043,3.085,1.265,4.959,1.265,4.959h0.888
			c0.118-0.743,0.291-1.324,0.501-1.798c1.233,0.302,2.665,0.479,4.199,0.479c0.861,0,1.685-0.054,2.466-0.156
			c0.258,0.641,0.555,1.168,0.77,1.475h0.894c-0.075-0.608-0.059-1.211,0.022-1.782c1.088-0.264,1.841-0.625,2.541-1.061
			l0.237-1.841c-0.296,0.07-0.598,0.016-0.835-0.081c-0.14-0.215-0.463-0.77-0.985-1.416c-0.226-0.28-0.468-0.533-0.738-0.732
			l0.684-1.771c0,0-0.296,0-0.382,0c-0.738,0-1.427,0.463-1.944,0.953c-4.216-1.707-8.561-0.49-9.454,1.933
			c-0.086,0.242-0.377,0.528-0.738,0.538c-0.371,0.011-0.695-0.291-0.705-0.668c-0.005-0.275,0.21-0.506,0.485-0.517
			c0.097,0,0.183,0.032,0.253,0.097c0.07,0.065,0.108,0.151,0.108,0.248c0.005,0.129,0.108,0.226,0.232,0.226
			c0.005,0,0.005,0,0.005,0c0.129-0.005,0.232-0.113,0.226-0.242c0-0.215-0.092-0.42-0.248-0.571
			c-0.162-0.151-0.366-0.232-0.587-0.226C2.41,20.772,1.984,21.219,2,21.752z M14.965,22.36c0-0.129,0.108-0.237,0.237-0.237
			c0.135,0,0.237,0.108,0.237,0.237c0,0.135-0.108,0.237-0.237,0.237C15.073,22.597,14.965,22.495,14.965,22.36z"/>
	</g>
</g>
</svg>
