<svg xmlns="http://www.w3.org/2000/svg" xmlns:xlink="http://www.w3.org/1999/xlink" viewBox="0 0 209.73 41.12"><defs><style>.cls-1{fill:none;}.cls-2{clip-path:url(#clip-path);}.cls-3{fill:#fff;}.cls-4{clip-path:url(#clip-path-2);}</style><clipPath id="clip-path" transform="translate(-7.13 -3.08)"><path class="cls-1" d="M32.33,36.71a24.7,24.7,0,0,0,7.53-1.19,15.78,15.78,0,0,0,1.63-.64,9.15,9.15,0,0,1-2.77,3.79,18.69,18.69,0,0,1-8.25,3.42,19.39,19.39,0,0,0,1.86-5.38M19.62,40.46l-.19-.13c-1.06-.51-1.49-2.88-.93-6.51A32.5,32.5,0,0,0,25.1,36a33.34,33.34,0,0,0,5.25.7c-.84,3.68-1.93,5.61-2.64,5.61h-.14a18.6,18.6,0,0,1-7.95-1.83M9.76,28.75a9.42,9.42,0,0,1-.31-1.9,16.72,16.72,0,0,0,2.34,2.65A23.89,23.89,0,0,0,16.7,33a17.71,17.71,0,0,0-.24,5.57,18.67,18.67,0,0,1-6.7-9.77m23.77-5.14c0-.74,0-1.49,0-2.24a14.76,14.76,0,0,0,6.38-1.82,22.49,22.49,0,0,1,2.56,10.08,15.75,15.75,0,0,1-.23,2.72,14.72,14.72,0,0,1-3,1.36,22.64,22.64,0,0,1-6.56,1.08,69.74,69.74,0,0,0,.84-11.18m-8,10.49a31.29,31.29,0,0,1-6.63-2.21,49.27,49.27,0,0,1,3.87-10.65c.29-.59.58-1.16.87-1.72A23.08,23.08,0,0,0,28,21a20.72,20.72,0,0,0,3.55.43q0,1.08,0,2.22a64.57,64.57,0,0,1-.88,11.17,32.42,32.42,0,0,1-5.25-.68m-12.4-6a12.21,12.21,0,0,1-3.31-4.67,14.83,14.83,0,0,1,2.61-5.25,20.84,20.84,0,0,1,4.47-4.31A10.88,10.88,0,0,0,19,16.5a15.57,15.57,0,0,0,2.94,2.15c-.3.57-.6,1.16-.89,1.75A53.71,53.71,0,0,0,17.12,31a21.48,21.48,0,0,1-4-2.89M32.23,10.33a25.63,25.63,0,0,1,5.84,6.15c.31.46.61.93.89,1.41a13.06,13.06,0,0,1-5.54,1.56,54,54,0,0,0-1.19-9.12m-3.79,8.76a20.78,20.78,0,0,1-3.91-1.25A41.32,41.32,0,0,1,30.19,10a50.2,50.2,0,0,1,1.32,9.5,18,18,0,0,1-3.07-.39m-8.17-4a8.91,8.91,0,0,1-1.8-2.28,26.08,26.08,0,0,1,5.89-2.6,30.1,30.1,0,0,1,3.8-.85A44.2,44.2,0,0,0,22.82,17a13.43,13.43,0,0,1-2.55-1.87M16.15,9c0,.1,0,.19-.07.3a6.19,6.19,0,0,0,.05,2.74,23.19,23.19,0,0,0-5.27,5,20.51,20.51,0,0,0-1.17,1.75A18.71,18.71,0,0,1,16.15,9M18,9.7a4.57,4.57,0,0,1,1.73-2.61,12.05,12.05,0,0,1,7.56.5,29.38,29.38,0,0,0-3.43.8,28.59,28.59,0,0,0-5.93,2.55A4,4,0,0,1,18,9.7M33.46,7.18a6.23,6.23,0,0,1,1.77-.83A14.08,14.08,0,0,1,38,7.84a23.84,23.84,0,0,0-4.58-.66m-3.22-2a19.5,19.5,0,0,1,2.46.42,11.22,11.22,0,0,0-1.65,1.07,9.4,9.4,0,0,0-.81-1.49m-2.07.75a17.66,17.66,0,0,0-2.56-.77A17.36,17.36,0,0,1,27.66,5c.33,0,.73.39,1.15,1.15l-.64-.26m-21,17.76a20.53,20.53,0,0,0,.79,5.63c0,.12.06.24.1.36a.14.14,0,0,0,0,.07A20.55,20.55,0,0,0,39.22,40.66l.09,0,.57-.42a20.59,20.59,0,0,0,7.75-11.55q.1-.33.18-.66a.81.81,0,0,0,0-.16,20.55,20.55,0,0,0-1.19-12.18.94.94,0,0,0-1.25-.5,1,1,0,0,0-.51,1.25,18.58,18.58,0,0,1,.92,11.73,6.75,6.75,0,0,1-1.46,2.51l0-1a24.71,24.71,0,0,0-2.89-11.19A7.37,7.37,0,0,0,44,14.17a1,1,0,1,0-1.88-.35,5.39,5.39,0,0,1-1.64,2.92c-.28-.45-.56-.9-.86-1.34a28,28,0,0,0-5.86-6.29,18.3,18.3,0,0,1,7.69,2.09,1,1,0,0,0,1.1-.08,1,1,0,0,0,.12-1.35c-3.08-4.31-8.41-6.68-15-6.68A20.58,20.58,0,0,0,7.13,23.65"/></clipPath><clipPath id="clip-path-2" transform="translate(-7.13 -3.08)"><rect class="cls-1" width="218.98" height="48.94"/></clipPath></defs><g id="Layer_2" data-name="Layer 2"><g id="Layer_1-2" data-name="Layer 1"><g class="cls-2"><rect class="cls-3" width="41.12" height="41.12"/></g><g class="cls-4"><path class="cls-3" d="M212.14,17.63c3,0,4.71,1.48,4.71,4.15,0,2.52-1.64,4-4.41,4h-1.93v3.86H208v-12Zm-1.63,6.08H212c1.48,0,2.24-.65,2.24-1.93s-.83-2-2.33-2h-1.44Zm-7.28,1.13c0,1.77-.67,2.63-2.07,2.63s-2.11-.89-2.11-2.63V17.63h-2.57v7a5.3,5.3,0,0,0,1.28,3.89,4.63,4.63,0,0,0,3.4,1.2c2.12,0,4.64-.89,4.64-5.09v-7h-2.57ZM189.5,17.53c2.6,0,5.37,1.61,5.37,6.13s-2.77,6.1-5.37,6.1-5.39-1.6-5.39-6.1,2.79-6.13,5.39-6.13m0,10c1,0,2.73-.5,2.73-3.86s-1.71-3.85-2.73-3.85c-1.77,0-2.74,1.37-2.74,3.85s1,3.86,2.74,3.86m-8-1.51c.42.86.79,1.61,1.63,1.61h.61v2l-.09,0a5.51,5.51,0,0,1-1.24.12c-2,0-2.64-1.39-3.19-2.62-.45-1-.84-1.87-1.89-1.87h-1.13v4.41h-2.56v-12h4.26c3.11,0,4.56,1.22,4.56,3.83a3.21,3.21,0,0,1-1.93,3,5.33,5.33,0,0,1,1,1.52m-5.3-2.75h1.43c1.42,0,2.3-.67,2.3-1.74s-.77-1.76-2.11-1.76h-1.62Zm-9.38,2h2.65v.14a1.9,1.9,0,0,1-2.12,2.08c-1.74,0-2.78-1.43-2.78-3.82s1-3.85,2.73-3.85A2.13,2.13,0,0,1,169.4,22v.14l2.38-.38v-.1a4.33,4.33,0,0,0-4.56-4.11c-3.39,0-5.34,2.24-5.34,6.13s2,6.1,5.38,6.1a4.2,4.2,0,0,0,4.58-4.38V23.29h-5.06Zm-7.67-7.63h-3l-4,5.42V17.63h-2.59v12h2.59V24.13l4.08,5.53h3.08l-4.65-6.07Zm-14.48,7.43-4.2-7.43h-2.6v12h2.56V22.49l4.19,7.17h2.61v-12h-2.56Zm-11.87-7.35,4.39,12h-2.67l-1-2.95h-4l-1,2.95h-2.68l4.41-12h2.54Zm-1.31,3.2-1.29,3.79h2.62Zm-8.05,2.41a2.9,2.9,0,0,1,2.13,2.92c0,2.17-1.54,3.42-4.22,3.42h-5.07v-12h4.58c2.6,0,3.92,1.09,3.92,3.24,0,1.66-.76,2.24-1.34,2.45m-2.85-.77c1.06,0,1.56-.45,1.56-1.41s-.63-1.38-1.88-1.38h-1.43v2.79Zm-1.75,5h2c1.31,0,1.92-.49,1.92-1.54,0-1.3-1.07-1.57-2-1.57h-2Zm-13.12-9.9c3.75,0,6,2.33,6,6.22,0,3.69-2,5.81-5.47,5.81h-4.08v-12Zm-1,9.9h1.49c1.85,0,2.95-1.39,2.95-3.72,0-2.69-1.17-4-3.47-4h-1Zm-9-9.9H93.17v12h7.76V27.53h-5.2Zm-6,8.38c.42.86.79,1.61,1.63,1.61H92v2l-.09,0a5.62,5.62,0,0,1-1.24.12c-2,0-2.64-1.39-3.19-2.62-.45-1-.84-1.87-1.89-1.87H84.42v4.41H81.86v-12h4.26c3.11,0,4.56,1.22,4.56,3.83a3.21,3.21,0,0,1-1.93,3,5.33,5.33,0,0,1,1,1.52m-5.3-2.75h1.43c1.42,0,2.3-.67,2.3-1.74s-.77-1.76-2.11-1.76H84.42ZM75,17.53c2.59,0,5.37,1.61,5.37,6.13s-2.78,6.1-5.37,6.1-5.39-1.6-5.39-6.1,2.78-6.13,5.39-6.13m0,10c1,0,2.72-.5,2.72-3.86S76,19.81,75,19.81c-1.77,0-2.75,1.37-2.75,3.85s1,3.86,2.75,3.86m-8.65-9.89h2.9l-3.45,12H62.94l-2.1-7.54-2.13,7.54H55.82l-3.46-12h3l2,8.78,2.43-8.78h2.15l2.34,8.78Z" transform="translate(-7.13 -3.08)"/></g></g></g></svg>