<?xml version="1.0" encoding="iso-8859-1"?>
<!-- Generator: Adobe Illustrator 24.2.1, SVG Export Plug-In . SVG Version: 6.00 Build 0)  -->
<svg version="1.1" xmlns="http://www.w3.org/2000/svg" xmlns:xlink="http://www.w3.org/1999/xlink" x="0px" y="0px"
	 viewBox="0 0 128 128" style="enable-background:new 0 0 128 128;" xml:space="preserve">
<g id="Layer_1">
	<g>
		<path style="fill:#CCCCCC;" d="M125.5,107.5c0,9.9-8.1,18-18,18h-87c-9.9,0-18-8.1-18-18v-87c0-9.9,8.1-18,18-18h87
			c9.9,0,18,8.1,18,18V107.5z"/>
		<path style="fill:none;stroke:#4D4D4D;stroke-width:0.25;stroke-miterlimit:10;" d="M125.5,107.5c0,9.9-8.1,18-18,18h-87
			c-9.9,0-18-8.1-18-18v-87c0-9.9,8.1-18,18-18h87c9.9,0,18,8.1,18,18V107.5z"/>
	</g>
</g>
<g id="Layer_2">
	<g id="Layer_1_1_">
	</g>
	<g id="Layer_1_2_">
	</g>
	<g>
		<g>
			<path style="fill:#FFFFFF;" d="M67.17,77.403c1.619,0.472,3.867,1.012,7.014,1.439c3.282-42.287-12.342-67.556-13.129-68.815
				C61.055,10.026,70.947,36.037,67.17,77.403z"/>
		</g>
	</g>
	<circle style="fill:#FFFFFF;" cx="46.892" cy="99.434" r="17.176"/>
	<circle style="fill:#FFFFFF;" cx="83.064" cy="99.434" r="17.176"/>
	<circle style="fill:#FFFFFF;" cx="94.125" cy="104.493" r="11.061"/>
	<circle style="fill:#FFFFFF;" cx="34.617" cy="106.314" r="9.24"/>
	<ellipse style="fill:#FFFFFF;" cx="25.38" cy="108.292" rx="7.284" ry="7.284"/>
	<ellipse style="fill:#FFFFFF;" cx="106.04" cy="109.326" rx="8.43" ry="7.284"/>
	<ellipse style="fill:#FFFFFF;" cx="16.092" cy="111.979" rx="6.092" ry="4.609"/>
	<path style="fill:#FFFFFF;" d="M66.563,57.327c0,0,3.035-48.852-46.356-35.296c0,0-2.226,46.739,42.804,37.544"/>
	<path style="fill:#CCCCCC;" d="M64.54,60.564c0.764-0.202,1.776-0.54,3.012-1.192C47.431,34.351,29.671,24.437,28.794,23.965
		C28.794,23.965,45.048,35.925,64.54,60.564z"/>
	<path style="fill:#FFFFFF;" d="M75.96,71.49c0,0,2.338-41.658,40.241-25.674c0,0-2.788,39.792-37.656,27.899"/>
	<path style="fill:#CCCCCC;" d="M77.264,74.413c-0.585-0.247-1.349-0.629-2.293-1.281c18.412-19.356,33.497-26.123,34.239-26.46
		C109.21,46.671,95.137,55.326,77.264,74.413z"/>
	<circle style="fill:#FFFFFF;" cx="54.445" cy="104.493" r="11.061"/>
	<path style="fill:#FFFFFF;" d="M67.822,21.964c0,0-5.126-14.568,10.117-14.5c0,0,4.699,14.006-8.903,14.883"/>
	<path style="fill:#CCCCCC;" d="M68.676,22.773c-0.225,0-0.54-0.022-0.967-0.112c3.552-9.24,7.734-13.691,7.936-13.916
		C75.645,8.745,72.071,13.713,68.676,22.773z"/>
	<rect x="15.396" y="113.8" style="fill:#FFFFFF;" width="96.782" height="2.81"/>
	<ellipse style="fill:#FFFFFF;" cx="75.983" cy="108.517" rx="8.43" ry="7.284"/>
	<ellipse style="fill:#FFFFFF;" cx="112.177" cy="111.484" rx="5.823" ry="5.036"/>
	<circle style="fill:#FFFFFF;" cx="63.798" cy="95.073" r="20.66"/>
</g>
</svg>
