<?xml version="1.0" encoding="iso-8859-1"?>
<!-- Generator: Adobe Illustrator 24.2.1, SVG Export Plug-In . SVG Version: 6.00 Build 0)  -->
<svg version="1.1" xmlns="http://www.w3.org/2000/svg" xmlns:xlink="http://www.w3.org/1999/xlink" x="0px" y="0px"
	 viewBox="0 0 32 32" style="enable-background:new 0 0 32 32;" xml:space="preserve">
<g id="Layer_2">
	<g>
		<path style="fill:#CCCCCC;" d="M31,26c0,2.75-2.25,5-5,5H6c-2.75,0-5-2.25-5-5V6c0-2.75,2.25-5,5-5h20c2.75,0,5,2.25,5,5V26z"/>
		<path style="fill:none;stroke:#4D4D4D;stroke-width:0.15;stroke-miterlimit:10;" d="M31,26c0,2.75-2.25,5-5,5H6
			c-2.75,0-5-2.25-5-5V6c0-2.75,2.25-5,5-5h20c2.75,0,5,2.25,5,5V26z"/>
	</g>
</g>
<g id="Layer_1">
	<path style="fill:#4F4F54;" d="M8.009,20.515l-0.413-0.098c-0.276-0.08-0.511-0.138-0.729-0.195l-0.218-0.057l-0.218,0.316
		l1.223,3.335h1.108l-1.028-2.899L8.009,20.515z"/>
	<path style="fill:#4F4F54;" d="M15.094,20.492c-0.161,0.04-0.333,0.057-0.494,0.08l-0.195,0.04l-0.551,3.238h1.085l0.591-3.456
		L15.094,20.492z"/>
	<path style="fill:#4F4F54;" d="M29.016,9.274l0.172,0.023c0.011,0,0.011,0,0.023,0c0.023,0,0.052,0,0.075-0.011
		c0.052-0.011,0.075-0.052,0.098-0.098c0.098-0.201,0.052-0.436-0.109-0.586l-0.482-0.448c-0.011-0.011-0.023-0.011-0.034-0.023
		l-0.023,0.023c-0.126,0.149-0.109,0.362,0.023,0.499C28.929,8.804,29.016,9.039,29.016,9.274z"/>
	<path style="fill:#4F4F54;" d="M20.226,13.684c0.017-0.591-0.218-1.165-0.614-1.579c-0.436,0.258-0.93,0.396-1.424,0.396
		c-0.729,0-1.458-0.299-2.015-0.85l-0.138-0.138l0.138-0.138c0.752-0.712,1.837-0.947,2.802-0.632c0-0.436,0.138-0.89,0.436-1.246
		l0,0c-0.121-0.017-0.258-0.04-0.396-0.04h-0.258c-0.396,0-0.867,0.121-1.263,0.235h-0.017c-1.521,0.476-3.1,0.712-4.679,0.712
		c-0.017,0-0.04,0-0.057,0l-3.003-0.017c-4.128,0.017-7.262,0.672-7.262,5.173c0,1.837,0.454,3.043,1.361,3.812v4.541h1.068v-2.072
		c0-0.195,0.057-0.373,0.178-0.534l1.384-1.74c1.441,0.511,2.98,0.792,4.501,0.792h0.614c1.757,0,3.496-0.258,5.19-0.752l0,0v4.306
		h1.068v-4.581c1.045-0.769,2.388-1.562,2.388-3.789v-1.183V13.684L20.226,13.684z"/>
	<path style="fill:#4F4F54;" d="M22.201,12.736l-0.04-0.161c-0.138-0.689-0.494-1.343-1.005-1.814l-0.85-0.792
		c-0.138-0.138-0.316-0.258-0.494-0.333l-0.08,0.138c-0.494,0.591-0.454,1.458,0.098,1.992c0.511,0.494,0.809,1.206,0.792,1.935
		l1.068,0.161l0,0C22.081,13.626,22.276,13.19,22.201,12.736z"/>
	<path style="fill:#4F4F54;" d="M28.596,8.827c-0.052-0.052-0.086-0.098-0.109-0.161h-0.075c-0.172,0-0.333-0.034-0.482-0.109
		l-0.011-0.011l0.011-0.011c0.149-0.075,0.321-0.126,0.499-0.126l0,0c-0.011-0.138,0.034-0.287,0.126-0.396
		C28.522,8,28.482,8,28.447,8h-0.092c-0.109,0-0.258,0.034-0.373,0.075l0,0c-0.448,0.138-0.907,0.212-1.378,0.212h-0.023h-0.884
		c-1.217,0-2.141,0.184-2.141,1.516c0,0.534,0.138,0.896,0.396,1.119c0.086,0.075,0.184,0.126,0.31,0.184v0.896h0.373v-0.769
		c0.086,0.023,0.172,0.034,0.258,0.052l0.258,0.723h0.373l0.023-0.011l-0.235-0.683c0.086,0,0.184,0,0.276,0
		c0.034,0,0.075,0,0.126,0c0.597-0.011,1.045-0.011,1.418-0.063l-0.126,0.746h0.373l0.138-0.821
		c0.063-0.011,0.126-0.034,0.184-0.063v0.873h0.373v-1.056c0.109-0.063,0.224-0.138,0.321-0.224
		c0.212-0.184,0.385-0.436,0.385-0.907V9.263C28.769,9.102,28.706,8.942,28.596,8.827z"/>
	<g>
		<path style="fill:#4F4F54;" d="M2.481,23.834c1.022-0.057,2.044-0.08,3.066-0.098l0.769-0.011l0.769-0.006
			c0.511-0.006,1.022,0,1.533,0.006c1.022,0.017,2.044,0.063,3.066,0.075c0.511,0.006,1.022,0.006,1.533,0
			c0.511-0.006,1.022-0.023,1.533-0.029c0.511-0.011,1.022-0.029,1.533-0.034c0.511-0.011,1.022-0.017,1.533-0.017l1.533-0.017
			c0.511-0.006,1.022-0.006,1.533-0.006c1.022,0.006,2.044,0.017,3.066,0.04s2.044,0.052,3.066,0.098v0.029
			c-1.022,0.046-2.044,0.075-3.066,0.098s-2.044,0.034-3.066,0.04c-0.511,0-1.022,0-1.533-0.006l-1.533-0.017
			c-0.511-0.006-1.022-0.011-1.533-0.017c-0.511-0.011-1.022-0.023-1.533-0.034c-0.511-0.011-1.022-0.029-1.533-0.029
			c-0.511-0.006-1.022-0.006-1.533,0c-1.022,0.011-2.044,0.057-3.066,0.075c-0.511,0.006-1.022,0.011-1.533,0.006l-0.769-0.006
			L5.547,23.96c-1.022-0.017-2.044-0.04-3.066-0.098L2.481,23.834L2.481,23.834z"/>
	</g>
	<g>
		<path style="fill:#4F4F54;" d="M22.655,11.99c0.321-0.023,0.649-0.034,0.97-0.04c0.321-0.006,0.649-0.011,0.97-0.006
			c0.321,0.006,0.649,0.023,0.97,0.029s0.649,0,0.97-0.011c0.321-0.011,0.649-0.017,0.97-0.023c0.321-0.006,0.649-0.011,0.97-0.006
			c0.649,0.006,1.292,0.017,1.94,0.057v0.011c-0.649,0.034-1.292,0.052-1.94,0.057c-0.321,0-0.649-0.006-0.97-0.006
			c-0.321-0.006-0.649-0.011-0.97-0.023s-0.649-0.017-0.97-0.011c-0.321,0.006-0.649,0.023-0.97,0.029
			c-0.321,0.006-0.649,0.006-0.97-0.006c-0.321-0.006-0.649-0.017-0.97-0.04V11.99z"/>
	</g>
</g>
</svg>
