<?xml version="1.0" encoding="utf-8"?>
<!-- Generator: Adobe Illustrator 24.1.3, SVG Export Plug-In . SVG Version: 6.00 Build 0)  -->
<svg version="1.1" id="Layer_1" xmlns="http://www.w3.org/2000/svg" xmlns:xlink="http://www.w3.org/1999/xlink" x="0px" y="0px"
	 viewBox="0 0 629.7 629.7" style="enable-background:new 0 0 629.7 629.7;" xml:space="preserve">
<style type="text/css">
	.st0{fill:#241F20;}
</style>
<g id="Layer_4">
	<path class="st0" d="M239.5,381.5"/>
	<g>
		<path class="st0" d="M393.8,237.7c23.4,0,43.3-13.6,52.9-33.3c0.1-0.3,0.3-0.3,0.5-0.6c0.2-0.3,0.2-0.7,0.4-0.9
			c0.5-1.2,1-2.4,1.4-3.7c10.4-26.1,13.6-66.7,13.6-66.7l-0.1,0c0.5-2.8,0.9-5.7,0.9-8.6c0-25.5-20.7-46.2-46.1-46.2
			c-8.6,0-16.5,2.5-23.3,6.5l-0.1-0.1c0,0-0.7,0.5-0.9,0.6c-3.5,2.2-6.7,4.8-9.6,7.9c-12.9,11.4-34.3,33.8-44.1,63.3
			c-1.7,4.1-2.8,8.4-3.6,12.9c-0.1,0.4-0.3,0.8-0.3,1.2c0.1,0,0.1,0.1,0.2,0.2c-0.4,2.8-0.8,5.6-0.8,8.4
			C334.8,211.3,361.2,237.7,393.8,237.7z"/>
		<path class="st0" d="M162,136c0,0,3.2,40.6,13.6,66.7c0.5,1.2,0.9,2.5,1.4,3.7c0.1,0.3,0.2,0.7,0.4,1c0.1,0.3,0.3,0.3,0.5,0.6
			c9.6,19.6,29.6,33.3,52.9,33.3c32.6,0,59-26.5,59-59.1c0-2.9-0.4-5.7-0.9-8.4c0.1-0.1,0.1-0.1,0.2-0.2c-0.1-0.4-0.2-0.8-0.3-1.2
			c-0.8-4.5-1.9-8.8-3.6-12.9c-9.8-29.4-31.2-51.9-44.2-63.3c-2.8-3.1-6-5.7-9.5-7.9c-0.2-0.1-0.9-0.6-0.9-0.6l-0.1,0.1
			c-6.9-4-14.8-6.5-23.3-6.5c-25.5,0-46.2,20.7-46.2,46.2C161.2,130.3,161.5,133.2,162,136L162,136z"/>
		<path class="st0" d="M579.5,266.7c0-27.1-22-49.1-49.1-49.1c-8.1,0-15.5,2.1-22.2,5.5l-0.1-0.1c0,0-1.2,0.7-3,1.8
			c-3.6,2.2-6.9,4.7-9.8,7.6c-6.8,5.9-15.9,15.1-26.6,29.1c-4.8,4.5-8.8,9.9-11.5,16c-0.1,0.1-0.1,0.1-0.2,0.1v0
			c-2.6,6-4.1,12.7-4.1,19.7c0,27.1,22,49.1,49.1,49.1c9.1,0,17.6-2.6,24.9-7c0.2-0.1,0.3,0,0.5-0.1c0.4-0.2,0.8-0.6,1.2-0.9
			c0.7-0.4,1.2-0.8,1.9-1.3c12.9-8.9,29.8-29.4,37.4-39.3c1.3-1.6,2.6-3.1,3.8-4.8c0.1-0.1,0.4-0.5,0.4-0.5l-0.1-0.1
			C576.7,285.1,579.5,276.2,579.5,266.7z"/>
		<path class="st0" d="M176.2,294.8c0-7.3-1.7-14.2-4.6-20.4c-0.1-0.2-0.1-0.4-0.2-0.6c-0.3-0.7-0.9-1.5-1.3-2.2
			c-1-1.9-2.1-3.8-3.3-5.5c-8.2-11.4-21.9-23.1-32.2-31.1c-3.4-3.4-7.3-6.2-11.6-8.5c-0.7-0.5-1.3-0.9-1.3-0.9l-0.1,0.1
			c-6.6-3.3-14-5.4-21.9-5.4c-27.1,0-49.1,22-49.1,49.1c0,6.2,1.3,12.2,3.4,17.7h-0.1c0,0,0.2,0.4,0.3,0.6c0.7,1.7,1.6,3.3,2.5,4.9
			c0,0.1,0.1,0.2,0.1,0.2c1,1.8,2,3.6,3.2,5.2c6.5,10,18.7,24.9,38.8,36.7c3.2,2.3,6.8,4.2,10.5,5.7c0.2,0.1,0.3,0.2,0.5,0.3
			c0-0.1,0-0.1,0-0.1c5.4,2,11.2,3.3,17.3,3.3C154.2,343.9,176.2,321.9,176.2,294.8z"/>
		<path class="st0" d="M493.9,447.1C477.3,361.6,394.8,290,394.8,290l-0.1,0.2c-12.4-14-29.3-23.6-48.6-26.6l0.2-0.2l-3,0
			c-3.3-0.4-6.5-1-9.8-1c-2.5,0-4.8,0.5-7.2,0.7l-31.1-0.5c-0.8,0-1.5-0.2-2.3-0.2c-0.6,0-1.2,0.2-1.7,0.2l-11.1-0.2l0,1.3
			c-19.1,3-35.9,12.6-48.2,26.4l-0.1,0c0,0-2.7,3.3-6.9,8.6c0,0,0,0,0,0c-22.6,28.4-94.2,120.8-94,153.2c0,0.1,0,0.1,0,0.2
			c-1.3,5.9-2.2,12.1-2.2,18.4c0,45.4,36.8,82.2,82.2,82.2H423V552c38.6-3.5,69.1-33.4,73.7-71.7c0.1,0,0.2,0,0.2,0
			c0-0.5-0.1-1.1-0.1-1.6c0.3-2.7,0.9-5.4,0.9-8.2C497.7,462.3,496.1,454.6,493.9,447.1z M407.2,445h-61.6v61.6h-59.9V445H224v-59.9
			h61.6v-61.6h59.9v61.6h61.6V445z"/>
	</g>
</g>
</svg>
