<?xml version="1.0" encoding="utf-8"?>
<!-- Generator: Adobe Illustrator 24.1.3, SVG Export Plug-In . SVG Version: 6.00 Build 0)  -->
<svg version="1.1" id="Layer_1" xmlns="http://www.w3.org/2000/svg" xmlns:xlink="http://www.w3.org/1999/xlink" x="0px" y="0px"
	 viewBox="0 0 629.7 629.7" style="enable-background:new 0 0 629.7 629.7;" xml:space="preserve">
<path id="Leaf_1_x2C__Nature_2" d="M97.1,295.9c0,6.5,0.4,12.9,1,19.3c0.9,8.9,7.8,11.4,14.8,5.8C215,240,299.4,203.8,342.6,189
	c17-5.8,18.1-2.7,2.5,6.2c-106.1,60.9-221.7,204-221.2,204.8c-15.5,19.8-28.9,39.6-39.5,57.3c-11.4,18.5-19.6,35.1-25.1,46.9
	c-5.5,11.7-8.7,20.5-8.4,19.7c-5.9,17.8,2.8,37.3,19.5,43.6s35-3,41-20.7c0.3-0.7,1.4-5.2,5.1-15.8c4-10.3,9.6-25.3,18.3-42.7
	c6.3-13.1,14.5-27.6,23.5-42.5c34.7,34.7,81.3,56.2,132.7,56.2c83.1,0,192.4-64.5,212.7-192.4c0,0,22.1-139.7,83.6-186.4
	c7.1-5.4,7.9-12.8,0.1-17.2c-48.7-28.4-132.7-52-213.7-56.2c-69-3.6-106,10.1-106,10.1C160.9,96.5,97.1,184.6,97.1,295.9z"/>
</svg>
