<?xml version="1.0" encoding="iso-8859-1"?>
<!-- Generator: Adobe Illustrator 24.2.1, SVG Export Plug-In . SVG Version: 6.00 Build 0)  -->
<svg version="1.1" xmlns="http://www.w3.org/2000/svg" xmlns:xlink="http://www.w3.org/1999/xlink" x="0px" y="0px"
	 viewBox="0 0 128 128" style="enable-background:new 0 0 128 128;" xml:space="preserve">
<g id="Layer_1">
	<g>
		<path style="fill:#CCCCCC;" d="M125.5,107.5c0,9.9-8.1,18-18,18h-87c-9.9,0-18-8.1-18-18v-87c0-9.9,8.1-18,18-18h87
			c9.9,0,18,8.1,18,18V107.5z"/>
		<path style="fill:none;stroke:#4D4D4D;stroke-width:0.25;stroke-miterlimit:10;" d="M125.5,107.5c0,9.9-8.1,18-18,18h-87
			c-9.9,0-18-8.1-18-18v-87c0-9.9,8.1-18,18-18h87c9.9,0,18,8.1,18,18V107.5z"/>
	</g>
</g>
<g id="Layer_2">
	<g id="Layer_1_1_">
	</g>
	<g>
		<path style="fill:#FFFFFF;" d="M96.04,68.452c-2.414,0-4.759,0-7.173,0c-0.273,0-0.569,0-0.751-0.091
			c-0.934-4.85-2.892-9.405-5.511-13.322c0.182-0.273,0.364-0.569,0.843-0.934c1.594-1.594,3.165-3.256,4.85-4.85
			c-2.892-4.008-6.536-7.56-10.543-10.43c-1.685,1.776-3.439,3.439-5.124,5.124c-0.182,0.182-0.455,0.364-0.66,0.455
			c-4.008-2.619-8.494-4.577-13.413-5.511c0-0.182-0.091-0.273-0.091-0.569c0-1.298,0-2.619,0-3.826l0,0c0-1.207,0-2.414,0-3.644
			l0,0c-2.323-0.364-4.759-0.569-7.264-0.569l0,0l0,0c-2.528,0-4.942,0.182-7.264,0.569l0,0c0.091,1.207,0,2.414,0,3.644l0,0
			c0,1.298,0,2.619,0,3.826c0,0.182,0,0.364-0.091,0.569c-4.85,0.934-9.405,2.892-13.413,5.511c-0.182-0.091-0.455-0.273-0.66-0.455
			c-1.685-1.776-3.439-3.439-5.124-5.124c-3.735,2.892-7.264,6.422-10.156,10.543c1.685,1.594,3.256,3.256,4.85,4.85
			c0.364,0.364,0.66,0.66,0.843,0.934c-2.619,4.008-4.577,8.494-5.511,13.322c-0.182,0.091-0.455,0.091-0.751,0.091
			c-2.414-0.091-4.759,0-7.173,0c-0.091,0-0.091,0-0.182,0C6.205,70.98,6,73.416,6,76.012c0,2.528,0.182,4.942,0.569,7.355
			c0.091,0,0.182,0,0.273,0c2.528,0,5.033,0,7.446,0c0.091,0,0.182,0,0.273,0c1.025,4.941,2.983,9.519,5.693,13.526
			c-0.091,0.091-0.182,0.273-0.364,0.364c-1.685,1.594-3.256,3.165-4.85,4.759c-0.182,0.182-0.364,0.364-0.455,0.569
			c2.892,4.008,6.422,7.446,10.43,10.338l0.091-0.091c1.685-1.776,3.439-3.439,5.215-5.215c0.091-0.091,0.273-0.273,0.364-0.273
			c4.008,2.71,8.585,4.577,13.527,5.511c0,0.182,0.091,0.364,0.091,0.66c-0.091,2.414,0,4.85,0,7.264c0,0.091,0,0.091,0,0.182
			c2.323,0.364,4.759,0.569,7.264,0.569l0,0l0,0l0,0l0,0c2.414,0,4.85-0.182,7.264-0.569c0-0.091,0-0.091,0-0.182
			c0-2.414,0-4.85,0-7.264c0-0.273,0-0.455,0.091-0.66c4.942-0.934,9.519-2.892,13.526-5.511c0.091,0.091,0.273,0.182,0.364,0.273
			c1.685,1.776,3.439,3.439,5.215,5.215l0.091,0.091c4.008-2.892,7.56-6.331,10.43-10.338c-0.091-0.182-0.273-0.273-0.455-0.569
			c-1.594-1.594-3.165-3.256-4.85-4.759c-0.091-0.091-0.273-0.273-0.364-0.364c2.71-4.008,4.668-8.585,5.693-13.527
			c0.091,0,0.182,0,0.273,0c2.528,0,5.033,0,7.446,0c0.091,0,0.182,0,0.273,0c0.364-2.414,0.569-4.85,0.569-7.355
			c0-2.528-0.182-5.033-0.569-7.446C96.131,68.452,96.131,68.452,96.04,68.452z M74.042,79.542c-0.569,3.644-2.049,6.9-4.099,9.701
			c-1.48,2.049-3.256,3.826-5.215,5.215c-2.801,2.049-6.148,3.439-9.701,4.008c-1.207,0.182-2.414,0.273-3.644,0.273
			c-1.207,0-2.414-0.091-3.644-0.273c-3.552-0.569-6.9-1.958-9.701-4.008c-2.049-1.48-3.826-3.165-5.215-5.215
			c-2.049-2.801-3.439-6.148-4.099-9.701c-0.182-1.207-0.273-2.414-0.273-3.735c0-1.321,0.091-2.528,0.273-3.735
			c0.569-3.552,1.958-6.809,4.008-9.701c1.48-2.049,3.256-3.826,5.306-5.306c2.801-2.049,6.148-3.439,9.701-4.008
			c1.207-0.182,2.414-0.273,3.644-0.273c1.207,0,2.528,0.091,3.644,0.273c3.552,0.569,6.9,1.958,9.701,4.008
			c2.049,1.48,3.826,3.256,5.306,5.306c2.049,2.801,3.439,6.057,4.008,9.701c0.182,1.207,0.273,2.414,0.273,3.735
			C74.338,77.105,74.225,78.335,74.042,79.542z"/>
		<path style="fill:#FFFFFF;" d="M121.317,32.928h-0.091c-1.685,0-3.347,0-4.942,0c-0.182,0-0.364,0-0.569-0.091
			c-0.66-3.347-2.049-6.536-3.826-9.314c0.091-0.182,0.273-0.364,0.569-0.66c1.116-1.116,2.232-2.232,3.347-3.347
			c-2.049-2.801-4.463-5.306-7.264-7.264c-1.207,1.207-2.414,2.323-3.552,3.644c-0.182,0.182-0.273,0.273-0.455,0.364
			c-2.801-1.867-5.966-3.165-9.314-3.826c0-0.091,0-0.182,0-0.364c0-0.934,0-1.776,0-2.71l0,0c0-0.843,0-1.685,0-2.528l0,0
			c-1.685-0.273-3.347-0.364-5.033-0.364l0,0c-1.685,0-3.439,0.091-5.033,0.364l0,0c0,0.843,0,1.685,0,2.528l0,0
			c0,0.934,0,1.776,0,2.71c0,0.182,0,0.273,0,0.364c-3.347,0.66-6.536,1.958-9.314,3.826c-0.182-0.091-0.273-0.182-0.455-0.364
			c-1.116-1.207-2.414-2.414-3.552-3.644c-2.801,2.049-5.306,4.463-7.264,7.264c1.116,1.116,2.232,2.232,3.347,3.347
			c0.273,0.273,0.455,0.455,0.569,0.66c-1.867,2.801-3.165,5.966-3.826,9.314c-0.182,0-0.364,0.091-0.569,0.091
			c-0.091,0-0.091,0-0.182,0v0.455c0,0.364,0,0.751,0,1.116v0.455c2.619,0.843,5.215,1.867,7.651,3.165
			c0.273-0.182,0.455-0.455,0.751-0.66c0.751-0.751,1.48-1.48,2.141-2.141l0.091-0.091c0.455-2.414,1.389-4.577,2.801-6.422
			c1.025-1.389,2.232-2.71,3.735-3.735c1.958-1.389,4.281-2.323,6.718-2.801c0.843-0.091,1.685-0.182,2.528-0.182
			c0.843,0,1.685,0.091,2.528,0.182c2.528,0.364,4.759,1.389,6.718,2.801c1.389,1.025,2.71,2.232,3.735,3.735
			c1.389,1.958,2.414,4.281,2.801,6.718c0.182,0.843,0.182,1.685,0.182,2.619c0,0.843-0.091,1.776-0.182,2.619
			c-0.364,2.528-1.389,4.85-2.801,6.809c-1.025,1.389-2.232,2.619-3.644,3.644c-1.958,1.389-4.281,2.414-6.809,2.801
			c-0.66,0.091-1.298,0.182-1.958,0.182c-0.569,0.569-1.116,1.116-1.594,1.594c1.298,2.414,2.323,4.942,3.165,7.651
			c0.751,0,1.48,0,2.232,0c0.751,0,1.389,0,2.141,0h0.364c2.71-0.751,5.306-1.958,7.651-3.439c0.091,0.091,0.182,0.091,0.273,0.182
			c1.207,1.207,2.414,2.414,3.644,3.644l0.091,0.091c2.801-1.958,5.215-4.463,7.264-7.173c-0.091-0.091-0.182-0.182-0.364-0.364
			c-1.116-1.116-2.232-2.232-3.347-3.347c-0.091-0.091-0.182-0.182-0.273-0.273c1.867-2.801,3.256-5.966,3.917-9.405
			c0.091,0,0.091,0,0.182,0c1.776,0,3.439,0,5.215,0c0.091,0,0.182,0,0.182,0c0.273-1.685,0.364-3.347,0.364-5.124
			C121.681,36.389,121.59,34.613,121.317,32.928z"/>
	</g>
	<circle style="fill:none;stroke:#FFFFFF;stroke-width:3;stroke-miterlimit:10;" cx="51.362" cy="75.762" r="19.151"/>
</g>
</svg>
