<?xml version="1.0" encoding="iso-8859-1"?>
<!-- Generator: Adobe Illustrator 24.2.1, SVG Export Plug-In . SVG Version: 6.00 Build 0)  -->
<svg version="1.1" xmlns="http://www.w3.org/2000/svg" xmlns:xlink="http://www.w3.org/1999/xlink" x="0px" y="0px"
	 viewBox="0 0 128 128" style="enable-background:new 0 0 128 128;" xml:space="preserve">
<g id="Layer_1">
	<g>
		<path style="fill:#CCCCCC;" d="M125.5,107.5c0,9.9-8.1,18-18,18h-87c-9.9,0-18-8.1-18-18v-87c0-9.9,8.1-18,18-18h87
			c9.9,0,18,8.1,18,18V107.5z"/>
		<path style="fill:none;stroke:#4D4D4D;stroke-width:0.25;stroke-miterlimit:10;" d="M125.5,107.5c0,9.9-8.1,18-18,18h-87
			c-9.9,0-18-8.1-18-18v-87c0-9.9,8.1-18,18-18h87c9.9,0,18,8.1,18,18V107.5z"/>
	</g>
</g>
<g id="Layer_2">
	<g>
		<path style="fill:#FFFFFF;" d="M114.534,45.329c-1.977,0.928-3.145,2.845-3.175,4.882c-1.737,0.569-3.744,1.138-5.93,1.617
			c-1.198-4.163-3.055-8.057-5.481-11.561c1.528-1.018,3.055-1.797,4.373-2.426c0.869,0.958,2.336,1.198,3.534,0.509
			c1.378-0.779,1.857-2.516,1.048-3.894c-0.779-1.348-2.516-1.797-3.894-1.018c-0.988,0.569-1.498,1.617-1.408,2.666
			c-1.468,0.629-3.355,1.318-5.421,1.737c-2.306-2.845-4.972-5.391-7.967-7.518c1.318-3.055,2.785-5.87,4.193-8.237
			c-0.419-0.12-0.839-0.27-1.258-0.449c-0.928-0.449-1.707-1.048-2.336-1.797c-1.498,2.306-3.355,4.912-5.571,7.488
			c-3.145-1.617-6.529-2.815-10.064-3.564c-0.12-2.486,0.15-4.942,0.509-6.859c1.288-0.18,2.336-1.228,2.456-2.576
			c0.15-1.587-1.018-2.965-2.576-3.085c-1.557-0.15-2.935,1.018-3.055,2.606c-0.09,1.138,0.479,2.156,1.378,2.696
			c-0.389,1.917-1.078,4.373-2.246,6.679c-1.498-0.18-2.995-0.27-4.553-0.27c-2.875,0-5.661,0.3-8.356,0.869
			c-1.168-2.756-2.037-5.451-2.696-7.757c2.067-1.378,2.995-4.073,2.067-6.529c-1.078-2.845-4.253-4.253-7.039-3.175
			s-4.193,4.253-3.115,7.069c0.779,2.037,2.636,3.355,4.642,3.504c0.569,2.336,1.138,5.152,1.468,8.177
			c-3.744,1.288-7.248,3.145-10.393,5.421c-1.528-1.468-2.785-3.055-3.744-4.403c0.779-1.048,0.749-2.516-0.15-3.564
			c-1.048-1.198-2.815-1.348-4.013-0.3c-1.198,1.048-1.288,2.815-0.27,4.013c0.749,0.869,1.887,1.168,2.905,0.899
			c0.928,1.408,2.037,3.235,2.845,5.271c-2.636,2.246-4.972,4.822-6.949,7.668c-3.624-1.647-6.919-3.594-9.644-5.361
			c-0.12,0.419-0.3,0.839-0.509,1.228c-0.479,0.899-1.138,1.647-1.917,2.246c2.726,1.977,5.87,4.493,8.806,7.518
			c-1.348,2.875-2.396,5.9-3.055,9.105c-1.587-0.06-3.085-0.24-4.343-0.419c-0.21-1.288-1.258-2.306-2.636-2.396
			c-1.587-0.12-2.935,1.078-3.055,2.636c-0.12,1.557,1.078,2.905,2.666,3.025c1.138,0.09,2.156-0.509,2.666-1.438
			c1.258,0.24,2.756,0.599,4.283,1.138c-0.24,1.797-0.389,3.624-0.389,5.481c0,1.977,0.15,3.954,0.419,5.87
			c-3.325,1.378-6.619,2.336-9.405,3.025c-1.288-2.127-3.954-3.145-6.44-2.306c-2.875,0.988-4.433,4.073-3.474,6.919
			c0.958,2.845,4.073,4.373,6.949,3.384c2.067-0.689,3.444-2.486,3.684-4.493c2.756-0.569,6.17-1.108,9.824-1.228
			c1.737,6.02,4.852,11.441,8.985,15.904c-1.198,2.067-2.606,3.894-3.804,5.331c-1.438-0.599-3.175-0.12-4.103,1.228
			c-1.078,1.557-0.719,3.684,0.809,4.762c1.528,1.078,3.684,0.689,4.762-0.869c0.779-1.108,0.809-2.546,0.18-3.654
			c1.198-1.348,2.785-2.905,4.612-4.343c4.762,4.343,10.573,7.548,16.982,9.165c-0.06,2.516-0.3,4.882-0.569,6.979
			c0.389-0.06,0.779-0.09,1.198-0.09c0.359,0,0.719,0.03,1.078,0.09c0.869,0.12,1.707,0.419,2.426,0.809
			c0.599-2.067,1.408-4.343,2.576-6.679c1.048,0.09,2.097,0.15,3.175,0.15c5.092,0,9.944-0.958,14.437-2.696
			c1.677,1.677,3.055,3.564,4.043,5.122c-0.839,0.988-0.869,2.486-0.03,3.564c0.958,1.258,2.756,1.468,3.984,0.509
			c1.228-0.958,1.438-2.756,0.479-3.984c-0.689-0.899-1.827-1.258-2.845-1.048c-0.869-1.468-1.887-3.355-2.606-5.481
			c5.152-2.516,9.674-6.08,13.298-10.453c2.037,0.629,3.984,1.288,5.691,1.947c0.03-0.449,0.12-0.869,0.24-1.318
			c0.27-0.958,0.779-1.827,1.408-2.576c-1.378-0.599-2.875-1.318-4.403-2.127c3.924-6.17,6.23-13.508,6.23-21.385
			c0-2.336-0.21-4.583-0.599-6.799c2.127-1.018,4.223-1.857,6.05-2.516c1.528,1.977,4.283,2.696,6.649,1.587
			c2.756-1.288,3.954-4.523,2.696-7.248C120.554,45.209,117.289,44.041,114.534,45.329z M39.356,75.041
			c1.138-0.899,2.756-0.719,3.654,0.419c0.899,1.138,0.719,2.756-0.419,3.654c-1.138,0.899-2.756,0.719-3.654-0.419
			S38.218,75.909,39.356,75.041z M43.429,67.852c0.779-0.629,1.947-0.509,2.576,0.3c0.629,0.809,0.509,1.947-0.3,2.576
			c-0.809,0.629-1.947,0.509-2.576-0.3C42.501,69.619,42.621,68.481,43.429,67.852z M38.607,45.628c0,0.719-0.599,1.318-1.318,1.318
			s-1.318-0.599-1.318-1.318c0-0.719,0.599-1.318,1.318-1.318C38.038,44.311,38.607,44.88,38.607,45.628z M33.815,64.378
			c-0.779,0.629-1.947,0.509-2.576-0.3c-0.629-0.779-0.509-1.947,0.3-2.576s1.947-0.509,2.576,0.3
			C34.713,62.581,34.594,63.749,33.815,64.378z M79.071,98.253c-0.988-0.18-1.647-1.168-1.438-2.156
			c0.18-0.988,1.168-1.647,2.156-1.438c0.988,0.18,1.647,1.168,1.438,2.156C81.018,97.804,80.06,98.433,79.071,98.253z"/>
		<path style="fill:#FFFFFF;" d="M93.718,20.469c0.779,0.359,1.587,0.569,2.456,0.569c2.216,0,4.283-1.318,5.241-3.325
			c1.378-2.905,0.18-6.35-2.666-7.727c-0.779-0.359-1.587-0.569-2.456-0.569c-2.216,0-4.283,1.318-5.241,3.325
			C89.674,15.647,90.872,19.122,93.718,20.469z"/>
		<path style="fill:#FFFFFF;" d="M105.548,93.73c0.749,1.348,1.977,2.336,3.474,2.785c0.539,0.15,1.108,0.24,1.647,0.24
			c2.546,0,4.822-1.707,5.541-4.133c0.899-3.055-0.899-6.26-3.984-7.158c-0.539-0.15-1.108-0.24-1.647-0.24
			c-2.546,0-4.822,1.707-5.541,4.133C104.65,90.825,104.799,92.382,105.548,93.73z"/>
		<path style="fill:#FFFFFF;" d="M58.734,109.844c-0.3-0.03-0.599-0.06-0.899-0.06c-3.025,0-5.661,2.276-6.08,5.331
			c-0.509,3.384,1.827,6.559,5.182,7.039c0.3,0.03,0.599,0.06,0.899,0.06c3.025,0,5.661-2.276,6.08-5.331
			C64.395,113.498,62.089,110.353,58.734,109.844z"/>
	</g>
	<circle style="fill:#FFFFFF;" cx="18.749" cy="32.839" r="5.331"/>
</g>
</svg>
