<?xml version="1.0" encoding="iso-8859-1"?>
<!-- Generator: Adobe Illustrator 24.2.1, SVG Export Plug-In . SVG Version: 6.00 Build 0)  -->
<svg version="1.1" xmlns="http://www.w3.org/2000/svg" xmlns:xlink="http://www.w3.org/1999/xlink" x="0px" y="0px"
	 viewBox="0 0 128 128" style="enable-background:new 0 0 128 128;" xml:space="preserve">
<g id="Layer_1">
	<g>
		<path style="fill:#CCCCCC;" d="M125.5,107.5c0,9.9-8.1,18-18,18h-87c-9.9,0-18-8.1-18-18v-87c0-9.9,8.1-18,18-18h87
			c9.9,0,18,8.1,18,18V107.5z"/>
		<path style="fill:none;stroke:#4D4D4D;stroke-width:0.25;stroke-miterlimit:10;" d="M125.5,107.5c0,9.9-8.1,18-18,18h-87
			c-9.9,0-18-8.1-18-18v-87c0-9.9,8.1-18,18-18h87c9.9,0,18,8.1,18,18V107.5z"/>
	</g>
</g>
<g id="Layer_2">
	<g>
		<path style="fill:#EB1C2D;" d="M99.919,53.937c0.147-0.088,0.354-0.147,0.501-0.177c0.914-0.265,1.74-0.383,2.537-0.354
			l0.059-24.986c-1.386,0.56-2.596,1.829-2.714,3.894C100.096,36.386,99.978,43.642,99.919,53.937z"/>
		<g>
			<path d="M43.664,50.87L43.664,50.87L43.664,50.87z"/>
		</g>
		<path style="fill:#EB1C2D;" d="M91.069,108.452c0.059-0.265,0.088-0.56,0.147-0.855c0.354-2.33,0.767-5.221,2.419-6.785
			c2.006-1.917,4.425-4.012,6.962-6.254c3.687-3.274,7.522-6.637,10.03-9.233c2.419-2.507,4.041-5.605,4.69-8.997
			c0.03-0.236,4.277-29.824,0.236-50.384c0-0.03,0-0.059-0.03-0.088c-0.383-3.363-3.068-5.133-5.428-4.867
			c-2.301,0.236-4.72,2.271-4.867,5.605v0.03l-0.088,27.346c0.767,0.383,1.475,0.944,2.124,1.711
			c1.681,1.947,2.153,4.838,1.239,7.552c-0.324,0.944-0.826,1.888-1.563,2.802c-0.472,0.649-12.331,16.195-18.23,21.8
			c-0.442,0.413-1.18,0.413-1.593-0.029c-0.413-0.442-0.413-1.18,0.029-1.593c5.752-5.487,17.876-21.416,18.024-21.564
			c0.59-0.708,0.944-1.445,1.209-2.124c0.649-1.947,0.324-4.071-0.826-5.398c-1.209-1.445-2.596-1.77-4.572-1.209
			c-0.147,0.059-0.531,0.177-1.15,0.678c-0.914,0.678-1.563,1.298-2.566,2.36c-2.006,2.183-15.369,15.605-18.319,17.906
			c-5.723,4.513-7.699,6.342-9.528,10.708c-0.914,2.124-1.475,3.805-1.681,7.552c-0.059,1.298,0.118,3.864,0.118,3.864
			c0.118,0.855,0.56,3.451,0.737,4.572c0.147,0.737,0.147,0.737,0.118,0.914c-0.029,0.413-0.059,0.914-0.088,1.445
			c-0.059,4.041,0.236,11.092-0.147,13.098c0,0,0,0.029,0.03,0.029h22.183l0.413-10.413
			C91.069,108.54,91.069,108.481,91.069,108.452z"/>
		<path style="fill:#EB1C2D;" d="M25.286,28.421l0.059,24.986c0.796-0.03,1.622,0.088,2.537,0.354
			c0.147,0.059,0.324,0.118,0.501,0.177C28.325,43.642,28.207,36.386,28,32.344C27.912,30.25,26.702,28.981,25.286,28.421z"/>
		<path style="fill:#EB1C2D;" d="M59.682,103.555c0.177-1.121,0.649-3.717,0.737-4.631c0,0,0.177-2.537,0.118-3.835
			c-0.177-3.746-0.796-5.428-1.681-7.552c-1.829-4.366-3.835-6.195-9.528-10.708c-2.95-2.33-16.342-15.752-18.319-17.906
			c-0.973-1.062-1.681-1.711-2.566-2.36c-0.649-0.472-0.973-0.619-1.15-0.678c-1.976-0.59-3.333-0.206-4.572,1.209
			c-1.15,1.327-1.475,3.422-0.826,5.398c0.236,0.678,0.649,1.416,1.209,2.094c0.147,0.177,12.242,16.106,18.024,21.593
			c0.442,0.413,0.442,1.15,0.029,1.593c-0.413,0.442-1.15,0.472-1.593,0.03c-5.9-5.634-17.758-21.18-18.23-21.829
			c-0.708-0.885-1.209-1.829-1.534-2.802c-0.914-2.714-0.413-5.605,1.239-7.552c0.649-0.737,1.357-1.298,2.124-1.711l-0.088-27.346
			v-0.029c-0.147-3.363-2.537-5.369-4.867-5.605c-2.36-0.265-5.044,1.504-5.428,4.867c0,0.03,0,0.059-0.03,0.088
			c-4.041,20.561,0.177,50.148,0.236,50.414c0.649,3.333,2.271,6.49,4.69,8.968c2.537,2.625,6.342,6.018,10.03,9.233
			c2.537,2.242,4.926,4.336,6.962,6.254c1.652,1.534,2.065,4.425,2.419,6.785c0.059,0.295,0.089,0.59,0.147,0.855
			c0,0.059,0,0.088,0.03,0.147l0.413,10.413H59.83c-0.413-1.976-0.147-9.056-0.147-13.098c-0.029-0.56-0.059-1.032-0.088-1.475
			C59.564,104.292,59.564,104.292,59.682,103.555z"/>
	</g>
	<g id="_x31_0">
		<path id="icon_10_" style="fill:#EB1C2D;" d="M68.208,69.513c-0.442-1.357,0.088-3.51,0.236-4.838
			c0.029-0.118,0.029-0.236,0.059-0.295h-1.121v5.074c0,0-1.681-0.649-2.743-0.531c-1.091,0.118-2.448,1.681-1.327,1.18
			s3.392-0.295,3.451,0.088c0.059,0.383-3.982,0.206-3.894,1.74c3.363-1.091,3.776-0.59,4.484-0.914
			c0.708-0.295,1.976-0.295,2.743,0S72.868,70.87,68.208,69.513z M62.072,72.551c-0.472-1.475,0.059-5.074,0.295-6.165
			c0-0.03,0-0.03,0-0.059c0.088-0.531-1.121,0-1.121,0v6.165c0,0-1.681-0.649-2.743-0.531c-1.091,0.118-2.448,1.681-1.327,1.18
			s3.392-0.295,3.451,0.088s-3.982,0.206-3.894,1.74c3.363-1.091,3.776-0.59,4.484-0.914c0.708-0.295,1.976-0.295,2.743,0
			C64.756,74.439,66.792,73.908,62.072,72.551z M51.305,42.787L51.305,42.787v-0.088C51.305,42.728,51.305,42.728,51.305,42.787z
			 M51.069,35.766c-0.03-0.118-0.147-0.236-0.295-0.206c-0.118,0.029-0.236,0.147-0.206,0.295s0.147,0.236,0.295,0.206
			C50.98,36.002,51.069,35.884,51.069,35.766z M51.069,35.766c-0.03-0.118-0.147-0.236-0.295-0.206
			c-0.118,0.029-0.236,0.147-0.206,0.295s0.147,0.236,0.295,0.206C50.98,36.002,51.069,35.884,51.069,35.766z M51.069,35.766
			c-0.03-0.118-0.147-0.236-0.295-0.206c-0.118,0.029-0.236,0.147-0.206,0.295s0.147,0.236,0.295,0.206
			C50.98,36.002,51.069,35.884,51.069,35.766z M81.689,43.849c-0.059-0.118-0.147-0.236-0.295-0.265
			c0.177-0.324,0.265-0.649,0.236-0.914c-0.088-0.619-0.619-0.973-1.121-1.298c-0.56-0.354-0.826-0.56-0.708-0.914
			c0.295-0.973,0.206-1.622-0.206-1.947c-0.472-0.354-1.209-0.147-1.681,0.059c0.206-1.121,0.206-2.153-0.059-2.655
			c-0.088-0.147-0.236-0.236-0.383-0.236c-0.56,0-1.416,1.15-4.631,7.64c-0.59,1.18-1.091,2.183-1.268,2.419
			c-0.295,0.413-1.976,0.56-3.776,0.708c-1.475,0.118-3.333,0.295-5.192,0.619c-3.127,0.56-3.982-3.304-4.72-6.726
			c-0.236-1.032-0.442-2.035-0.708-2.773c-0.855-2.389-3.717-3.422-3.835-3.481c-0.914-0.324-1.74-0.442-2.419-0.442
			c-0.147,0-0.295,0-0.413,0c-0.088-0.324-0.236-0.944-0.236-0.944s-1.121,0.089-1.15,0.619c-0.059-0.206-0.914-0.059-0.944-0.03
			c-0.118,0.088-0.295,0.737-0.295,0.737s-0.678,0.118-1.504,0.56c0.177,0.206,0.619,0.56,1.032,0.767
			c-0.914,0.708-1.357,1.858-1.386,1.917l-0.118,0.383l0.413-0.118c0.914-0.236,1.622,0.059,1.711,0.089
			c1.976,0.885,2.655,2.212,2.684,2.566c0.03,0.354,0.088,1.239,0.088,2.33v0.029c0,0.265-0.059,2.153-1.032,8.643
			c-0.442,2.891,0.914,5.811,3.982,8.496c2.153,1.888,4.336,2.979,4.69,3.156c0.147,0.147,0.383,0.531,0.649,0.914
			c0.619,0.914,1.386,2.094,2.153,2.507v-0.029c0,0,1.239-0.531,1.121,0c0,0.029,0,0.029,0,0.059
			c1.121-0.442,2.537-1.947,3.097-2.537c0.354,0.265,1.121,0.708,1.888,0.885v-0.354h1.121c0,0.088-0.03,0.177-0.059,0.295
			c0.118-0.059,0.236-0.118,0.324-0.236c0.295-0.295,0.885-0.737,1.534-1.239c1.239-0.914,2.773-2.094,3.569-3.156
			c1.681-2.301,2.124-4.572,1.77-5.605c1.681-0.236,3.422-2.507,3.776-3.864c0.177-0.619,0.236-1.062-0.029-1.327
			c-0.147-0.147-0.354-0.206-0.678-0.147c0.619-0.59,1.239-1.386,1.74-2.153C80.833,46.415,82.013,44.586,81.689,43.849z
			 M49.977,35.943c-0.059-0.236,0.295-0.472,0.708-0.531c0.413-0.059,0.796,0.059,0.826,0.295c0.03,0.236-0.295,0.472-0.708,0.531
			C50.361,36.268,50.007,36.15,49.977,35.943z M51.069,35.766c-0.03-0.118-0.147-0.236-0.295-0.206
			c-0.118,0.029-0.236,0.147-0.206,0.295s0.147,0.236,0.295,0.206C50.98,36.002,51.069,35.884,51.069,35.766z M51.069,35.766
			c-0.03-0.118-0.147-0.236-0.295-0.206c-0.118,0.029-0.236,0.147-0.206,0.295s0.147,0.236,0.295,0.206
			C50.98,36.002,51.069,35.884,51.069,35.766z M51.069,35.766c-0.03-0.118-0.147-0.236-0.295-0.206
			c-0.118,0.029-0.236,0.147-0.206,0.295s0.147,0.236,0.295,0.206C50.98,36.002,51.069,35.884,51.069,35.766z M51.069,35.766
			c-0.03-0.118-0.147-0.236-0.295-0.206c-0.118,0.029-0.236,0.147-0.206,0.295s0.147,0.236,0.295,0.206
			C50.98,36.002,51.069,35.884,51.069,35.766z M51.305,42.787L51.305,42.787v-0.088C51.305,42.728,51.305,42.728,51.305,42.787z
			 M51.069,35.766c-0.03-0.118-0.147-0.236-0.295-0.206c-0.118,0.029-0.236,0.147-0.206,0.295s0.147,0.236,0.295,0.206
			C50.98,36.002,51.069,35.884,51.069,35.766z M51.069,35.766c-0.03-0.118-0.147-0.236-0.295-0.206
			c-0.118,0.029-0.236,0.147-0.206,0.295s0.147,0.236,0.295,0.206C50.98,36.002,51.069,35.884,51.069,35.766z M70.391,56.415
			c-1.888,4.1-6.903,1.711-10.62-0.855c0,0-0.029,0-0.029-0.03c-0.059-0.029-0.088-0.059-0.118-0.088
			c-2.33-1.622-4.1-3.274-4.189-3.392c0.118,0.088,3.392,2.891,6.755,4.307l0,0c0.944,0.206,1.858,0.088,2.389-0.708
			c0.826-1.15-1.445-2.566-1.622-2.684c0.236,0.088,3.481,1.357,2.684,3.038c-0.265,0.531-0.59,0.885-1.032,1.062
			c1.534,0.236,2.92-0.088,3.805-1.327c1.534-2.153-2.802-4.779-2.95-4.838C65.7,50.988,71.806,53.347,70.391,56.415z"/>
	</g>
	<g id="Layer_1_1_">
	</g>
</g>
</svg>
