<?xml version="1.0" encoding="iso-8859-1"?>
<!-- Generator: Adobe Illustrator 24.2.1, SVG Export Plug-In . SVG Version: 6.00 Build 0)  -->
<svg version="1.1" xmlns="http://www.w3.org/2000/svg" xmlns:xlink="http://www.w3.org/1999/xlink" x="0px" y="0px"
	 viewBox="0 0 32 32" style="enable-background:new 0 0 32 32;" xml:space="preserve">
<g id="Layer_2">
	<g>
		<path style="fill:#CCCCCC;" d="M31,26c0,2.75-2.25,5-5,5H6c-2.75,0-5-2.25-5-5V6c0-2.75,2.25-5,5-5h20c2.75,0,5,2.25,5,5V26z"/>
		<path style="fill:none;stroke:#4D4D4D;stroke-width:0.15;stroke-miterlimit:10;" d="M31,26c0,2.75-2.25,5-5,5H6
			c-2.75,0-5-2.25-5-5V6c0-2.75,2.25-5,5-5h20c2.75,0,5,2.25,5,5V26z"/>
	</g>
</g>
<g id="Layer_1">
	<g>
		<path style="fill:#EB1C2D;" d="M24.479,13.25c0.035-0.021,0.084-0.035,0.119-0.043c0.217-0.064,0.413-0.093,0.603-0.087
			l-0.012-5.938c-0.329,0.135-0.615,0.437-0.641,0.928C24.503,9.078,24.482,10.803,24.479,13.25z"/>
		<g>
			<path d="M11.107,12.58L11.107,12.58L11.107,12.58z"/>
		</g>
		<path style="fill:#EB1C2D;" d="M22.434,26.214c0.014-0.063,0.02-0.133,0.034-0.203c0.082-0.554,0.177-1.242,0.568-1.615
			c0.475-0.458,1.047-0.958,1.648-1.494c0.873-0.782,1.781-1.585,2.374-2.205c0.572-0.598,0.954-1.336,1.105-2.143
			c0.007-0.056,0.985-7.092,0.003-11.974c0-0.007,0-0.014-0.007-0.021c-0.095-0.799-0.734-1.217-1.295-1.151
			c-0.547,0.059-1.119,0.545-1.151,1.337l0,0.007l0.008,6.499c0.183,0.09,0.352,0.223,0.507,0.404
			c0.402,0.461,0.517,1.147,0.302,1.793c-0.076,0.225-0.194,0.45-0.369,0.668c-0.111,0.155-2.913,3.862-4.309,5.2
			c-0.105,0.099-0.28,0.099-0.379-0.005c-0.099-0.105-0.099-0.28,0.005-0.379c1.361-1.31,4.226-5.108,4.26-5.144
			c0.139-0.169,0.223-0.344,0.285-0.506c0.152-0.463,0.073-0.968-0.202-1.282c-0.289-0.342-0.619-0.418-1.088-0.283
			c-0.035,0.014-0.126,0.043-0.273,0.162c-0.217,0.162-0.37,0.31-0.607,0.564c-0.474,0.521-3.636,3.725-4.334,4.275
			c-1.355,1.079-1.823,1.515-2.253,2.555c-0.215,0.506-0.346,0.906-0.392,1.796c-0.013,0.309,0.032,0.918,0.032,0.918
			c0.029,0.203,0.137,0.82,0.18,1.086c0.036,0.175,0.036,0.175,0.029,0.217c-0.007,0.098-0.013,0.217-0.02,0.344
			c-0.01,0.96,0.068,2.636-0.021,3.113c0,0,0,0.007,0.007,0.007l5.272-0.023l0.087-2.475C22.434,26.235,22.434,26.221,22.434,26.214
			z"/>
		<path style="fill:#EB1C2D;" d="M6.716,7.265l0.04,5.938c0.189-0.008,0.386,0.019,0.603,0.081c0.035,0.014,0.077,0.028,0.119,0.042
			c-0.025-2.447-0.061-4.171-0.114-5.131C7.342,7.697,7.053,7.397,6.716,7.265z"/>
		<path style="fill:#EB1C2D;" d="M14.97,25.083c0.041-0.267,0.15-0.884,0.17-1.101c0,0,0.039-0.603,0.024-0.911
			c-0.046-0.89-0.195-1.289-0.408-1.793c-0.439-1.036-0.918-1.468-2.276-2.535c-0.703-0.551-3.9-3.726-4.372-4.236
			c-0.232-0.251-0.401-0.405-0.612-0.558c-0.155-0.111-0.232-0.146-0.274-0.16c-0.47-0.138-0.792-0.046-1.085,0.292
			c-0.272,0.317-0.347,0.815-0.191,1.284c0.057,0.161,0.156,0.336,0.29,0.496c0.035,0.042,2.926,3.815,4.306,5.112
			c0.106,0.098,0.106,0.273,0.009,0.379c-0.098,0.106-0.273,0.113-0.379,0.009c-1.408-1.333-4.243-5.015-4.355-5.168
			c-0.169-0.21-0.289-0.433-0.367-0.664c-0.22-0.644-0.104-1.332,0.286-1.796c0.153-0.176,0.321-0.31,0.503-0.409l-0.05-6.498
			l0-0.007C6.15,6.02,5.58,5.545,5.026,5.492C4.465,5.431,3.829,5.855,3.741,6.654c0,0.007,0,0.014-0.007,0.021
			c-0.939,4.89,0.095,11.917,0.109,11.98c0.158,0.791,0.547,1.54,1.124,2.126c0.606,0.621,1.514,1.423,2.393,2.184
			c0.605,0.53,1.175,1.025,1.661,1.479c0.394,0.363,0.495,1.049,0.582,1.61c0.014,0.07,0.022,0.14,0.036,0.203
			c0,0.014,0,0.021,0.007,0.035l0.109,2.474l5.265-0.023c-0.1-0.469-0.045-2.152-0.049-3.112c-0.008-0.133-0.015-0.245-0.023-0.35
			C14.942,25.259,14.942,25.259,14.97,25.083z"/>
	</g>
	<g id="_x31_0">
		<path id="icon_10_" style="fill:#EB1C2D;" d="M16.96,16.985c-0.107-0.322,0.017-0.834,0.051-1.15
			c0.007-0.028,0.007-0.056,0.014-0.07l-0.266,0.001l0.005,1.206c0,0-0.4-0.152-0.653-0.123c-0.259,0.029-0.58,0.402-0.314,0.282
			c0.266-0.12,0.806-0.074,0.82,0.017c0.014,0.091-0.946,0.053-0.924,0.418c0.798-0.263,0.897-0.144,1.065-0.222
			c0.168-0.071,0.469-0.072,0.652-0.003C17.593,17.409,18.069,17.302,16.96,16.985z M15.505,17.713
			c-0.114-0.35,0.009-1.206,0.064-1.465c0-0.007,0-0.007,0-0.014c0.02-0.126-0.266,0.001-0.266,0.001l0.007,1.465
			c0,0-0.4-0.152-0.653-0.123c-0.259,0.029-0.58,0.402-0.314,0.282c0.266-0.12,0.806-0.074,0.82,0.017
			c0.014,0.091-0.946,0.053-0.924,0.418c0.798-0.263,0.897-0.144,1.065-0.222c0.168-0.071,0.469-0.072,0.652-0.003
			C16.145,18.159,16.628,18.031,15.505,17.713z M12.915,10.651L12.915,10.651l0-0.021C12.914,10.637,12.914,10.637,12.915,10.651z
			 M12.851,8.983c-0.007-0.028-0.035-0.056-0.07-0.049c-0.028,0.007-0.056,0.035-0.049,0.07c0.007,0.035,0.035,0.056,0.07,0.049
			C12.83,9.039,12.851,9.011,12.851,8.983z M12.851,8.983c-0.007-0.028-0.035-0.056-0.07-0.049c-0.028,0.007-0.056,0.035-0.049,0.07
			c0.007,0.035,0.035,0.056,0.07,0.049C12.83,9.039,12.851,9.011,12.851,8.983z M12.851,8.983c-0.007-0.028-0.035-0.056-0.07-0.049
			c-0.028,0.007-0.056,0.035-0.049,0.07c0.007,0.035,0.035,0.056,0.07,0.049C12.83,9.039,12.851,9.011,12.851,8.983z M20.136,10.872
			c-0.014-0.028-0.035-0.056-0.07-0.063c0.042-0.077,0.062-0.155,0.055-0.218c-0.022-0.147-0.148-0.231-0.268-0.307
			c-0.134-0.084-0.197-0.132-0.169-0.217c0.069-0.232,0.047-0.386-0.051-0.462c-0.113-0.084-0.288-0.034-0.4,0.016
			c0.048-0.267,0.047-0.512-0.017-0.631c-0.021-0.035-0.056-0.056-0.091-0.056c-0.133,0.001-0.335,0.275-1.093,1.821
			c-0.139,0.281-0.257,0.52-0.299,0.576c-0.07,0.098-0.469,0.135-0.897,0.172c-0.35,0.03-0.792,0.074-1.233,0.153
			c-0.742,0.137-0.95-0.781-1.129-1.593c-0.057-0.245-0.107-0.483-0.171-0.658c-0.206-0.567-0.887-0.809-0.915-0.823
			c-0.218-0.076-0.414-0.103-0.575-0.103c-0.035,0-0.07,0-0.098,0c-0.021-0.077-0.057-0.224-0.057-0.224s-0.266,0.022-0.273,0.148
			c-0.014-0.049-0.217-0.013-0.224-0.006c-0.028,0.021-0.069,0.176-0.069,0.176s-0.161,0.029-0.357,0.135
			c0.042,0.049,0.148,0.133,0.246,0.181c-0.217,0.169-0.321,0.443-0.327,0.457l-0.028,0.091l0.098-0.028
			c0.217-0.057,0.386,0.012,0.407,0.019c0.471,0.208,0.633,0.523,0.641,0.607s0.022,0.294,0.023,0.554l0,0.007
			c0,0.063-0.012,0.512-0.236,2.055c-0.102,0.687,0.223,1.38,0.955,2.015c0.514,0.446,1.034,0.703,1.118,0.745
			c0.035,0.035,0.092,0.126,0.155,0.217c0.148,0.217,0.332,0.496,0.514,0.594l0-0.007c0,0,0.294-0.127,0.266-0.001
			c0,0.007,0,0.007,0,0.014c0.266-0.106,0.601-0.465,0.733-0.606c0.084,0.063,0.267,0.167,0.45,0.208l0-0.084l0.266-0.001
			c0,0.021-0.007,0.042-0.014,0.07c0.028-0.014,0.056-0.028,0.077-0.056c0.07-0.07,0.21-0.176,0.363-0.296
			c0.293-0.219,0.657-0.501,0.845-0.754c0.397-0.549,0.5-1.089,0.415-1.334c0.399-0.058,0.811-0.599,0.893-0.922
			c0.041-0.147,0.055-0.253-0.008-0.315c-0.035-0.035-0.084-0.049-0.161-0.034c0.147-0.141,0.293-0.331,0.411-0.514
			C19.936,11.482,20.214,11.046,20.136,10.872z M12.592,9.026c-0.014-0.056,0.07-0.112,0.168-0.127s0.189,0.013,0.197,0.069
			c0.007,0.056-0.07,0.112-0.168,0.127C12.683,9.103,12.599,9.075,12.592,9.026z M12.851,8.983c-0.007-0.028-0.035-0.056-0.07-0.049
			c-0.028,0.007-0.056,0.035-0.049,0.07c0.007,0.035,0.035,0.056,0.07,0.049C12.83,9.039,12.851,9.011,12.851,8.983z M12.851,8.983
			c-0.007-0.028-0.035-0.056-0.07-0.049c-0.028,0.007-0.056,0.035-0.049,0.07c0.007,0.035,0.035,0.056,0.07,0.049
			C12.83,9.039,12.851,9.011,12.851,8.983z M12.851,8.983c-0.007-0.028-0.035-0.056-0.07-0.049c-0.028,0.007-0.056,0.035-0.049,0.07
			c0.007,0.035,0.035,0.056,0.07,0.049C12.83,9.039,12.851,9.011,12.851,8.983z M12.851,8.983c-0.007-0.028-0.035-0.056-0.07-0.049
			c-0.028,0.007-0.056,0.035-0.049,0.07c0.007,0.035,0.035,0.056,0.07,0.049C12.83,9.039,12.851,9.011,12.851,8.983z M12.915,10.651
			L12.915,10.651l0-0.021C12.914,10.637,12.914,10.637,12.915,10.651z M12.851,8.983c-0.007-0.028-0.035-0.056-0.07-0.049
			c-0.028,0.007-0.056,0.035-0.049,0.07c0.007,0.035,0.035,0.056,0.07,0.049C12.83,9.039,12.851,9.011,12.851,8.983z M12.851,8.983
			c-0.007-0.028-0.035-0.056-0.07-0.049c-0.028,0.007-0.056,0.035-0.049,0.07c0.007,0.035,0.035,0.056,0.07,0.049
			C12.83,9.039,12.851,9.011,12.851,8.983z M17.465,13.87c-0.444,0.976-1.639,0.414-2.525-0.192c0,0-0.007,0-0.007-0.007
			c-0.014-0.007-0.021-0.014-0.028-0.021c-0.556-0.383-0.978-0.774-0.999-0.802c0.028,0.021,0.809,0.683,1.61,1.016l0,0
			c0.225,0.048,0.442,0.019,0.567-0.171c0.195-0.274-0.346-0.608-0.388-0.636c0.056,0.021,0.829,0.319,0.641,0.719
			c-0.063,0.126-0.139,0.211-0.244,0.253c0.365,0.054,0.694-0.024,0.903-0.319c0.362-0.513-0.671-1.133-0.706-1.147
			C16.344,12.585,17.798,13.139,17.465,13.87z"/>
	</g>
	<g id="Layer_1_1_">
	</g>
</g>
</svg>
