<?xml version="1.0" encoding="iso-8859-1"?>
<!-- Generator: Adobe Illustrator 24.2.1, SVG Export Plug-In . SVG Version: 6.00 Build 0)  -->
<svg version="1.1" xmlns="http://www.w3.org/2000/svg" xmlns:xlink="http://www.w3.org/1999/xlink" x="0px" y="0px"
	 viewBox="0 0 128 128" style="enable-background:new 0 0 128 128;" xml:space="preserve">
<g id="Layer_1">
	<g>
		<path style="fill:#CCCCCC;" d="M125.5,107.5c0,9.9-8.1,18-18,18h-87c-9.9,0-18-8.1-18-18v-87c0-9.9,8.1-18,18-18h87
			c9.9,0,18,8.1,18,18V107.5z"/>
		<path style="fill:none;stroke:#4D4D4D;stroke-width:0.25;stroke-miterlimit:10;" d="M125.5,107.5c0,9.9-8.1,18-18,18h-87
			c-9.9,0-18-8.1-18-18v-87c0-9.9,8.1-18,18-18h87c9.9,0,18,8.1,18,18V107.5z"/>
	</g>
</g>
<g id="Layer_2">
	<path style="fill:#706F6F;" d="M93.054,82.615c13.023-13.216,13.002-34.614,0-47.852C79.774,21.29,58.012,21.204,44.646,34.57
		c0,0,0,0-0.021,0.021l5.334,5.376l0,0c11.717-11.759,31.744-10.239,41.297,4.605c4.948,7.711,4.948,20.456,0,28.167
		c-9.51,14.844-29.538,16.386-41.255,4.67c-6.426-6.426-8.846-15.315-7.304-23.626c0.278-1.478-0.364-2.977-1.628-3.791l0,0
		c-2.249-1.499-5.291-0.193-5.783,2.485c-1.949,10.646,1.157,22.062,9.36,30.288C57.99,96.174,79.774,96.109,93.054,82.615z"/>
	<path style="fill:#706F6F;" d="M44.945,56.783l-13.28-1.521c-1.478-0.171-1.992-2.035-0.835-2.956l7.411-5.89
		c0.707-0.578,1.756-0.45,2.313,0.257l5.89,7.411C47.366,55.24,46.423,56.933,44.945,56.783z"/>
	<path style="fill:#FFFFFF;stroke:#FFFFFF;stroke-width:0.5;stroke-miterlimit:10;" d="M104.45,26.902
		c-0.9,1.435-2.185,2.635-3.727,3.534l-4.498,2.613c-0.685,0.407-1.585,0.214-2.035-0.407c-0.021-0.021-0.021-0.043-0.021-0.043
		c-0.814-1.307-2.185-3.406-3.17-4.712c-0.3-0.407-0.321-0.942-0.086-1.392c0.171-0.278,0.343-0.535,0.557-0.793
		c0.257-0.3,0.343-0.685,0.257-1.071c-0.343-1.649-0.921-6.147,3.213-8.011c1.606-0.707,3.449-0.814,5.141-0.3l0.086,0.021
		C104.921,17.82,106.913,22.918,104.45,26.902z"/>
	<path style="fill:#FFFFFF;stroke:#FFFFFF;stroke-width:0.5;stroke-miterlimit:10;" d="M73.52,108.747
		c1.992-0.086,3.984-0.321,5.933-0.664c0.964-0.171,1.692-0.9,1.799-1.778c0.471-4.07,1.864-11.353,2.463-14.544
		c0.193-0.985,0.535-1.949,1.007-2.849c2.849-5.376,10.153-20.413,10.153-20.413c0.75-1.949,1.221-3.963,1.414-6.019
		c0.278-3.042,0.021-6.126-0.75-9.103c-1.885-7.39-0.942-10.817-0.942-10.817c1.799-6.062,5.205-8.504,7.583-9.489
		c1.606-0.664,3.513-0.257,4.627,0.985c2.206,2.549,3.106,6.49,3.449,8.439c0.171,0.921,0.407,1.799,0.75,2.677l2.935,7.411
		c0.6,1.478,0.621,3.106,0.086,4.605c-0.985,2.763-2.121,6.083-2.785,8.032c-0.321,0.985-0.343,2.013-0.086,3.02
		c0.171,0.6,0.3,1.221,0.407,1.842c0.15,0.814,0.043,1.649-0.236,2.42c-0.386,0.985-1.092,1.821-2.035,2.399
		c-0.75,0.15-1.564,0.064-2.228-0.236c-2.677-1.221-1.499-5.034-1.478-5.055c0.021-0.021,0.021-0.086,0.021-0.129l2.592-11.545
		c0.407-1.778,0.3-3.62-0.236-5.355l-2.999-9.296c-0.257-0.814-1.2-1.285-2.121-1.05c-0.043,0.021-0.086,0.021-0.15,0.043
		c-0.814,0.321-1.242,1.157-0.985,1.928l2.977,9.253c0.407,1.264,0.471,2.592,0.171,3.877l-2.57,11.481
		c-0.578,1.885-0.793,5.462,1.692,7.647c0.343,0.321,0.386,0.814,0.064,1.178l0,0l-9.168,10.217
		c-0.878,0.985-1.435,2.163-1.606,3.427l-0.15,1.007c-0.107,0.964-0.493,1.885-1.05,2.72l-1.649,2.442
		c-1.371,1.992-2.42,4.155-3.149,6.426c-1.05,3.299-1.906,6.662-2.399,8.739c-0.236,0.985-1.285,1.606-2.378,1.392
		c-0.086-0.021-0.171-0.043-0.257-0.064l-9.039-2.956c-0.493-0.15-0.814-0.535-0.878-1.007c-0.043-0.621,0.45-1.178,1.135-1.221
		C73.477,108.747,73.498,108.747,73.52,108.747z"/>
	<path style="fill:#FFFFFF;stroke:#FFFFFF;stroke-width:0.5;stroke-miterlimit:10;" d="M102.458,85.978
		c-0.343-0.707-0.214-1.564,0.386-2.142l4.819-4.755c0.3-0.3,0.814-0.321,1.157-0.021c0.15,0.129,0.236,0.278,0.257,0.471
		l0.15,1.328c0.193,1.821,1.007,3.534,2.378,4.884c1.135,1.114,1.906,2.506,2.228,3.984l0.685,3.042
		c0.878,4.434,4.927,11.567,4.927,11.567l1.435,1.992c0.685,0.964,0.45,2.249-0.557,2.913c-2.506,1.671-5.698,3.192-7.497,3.984
		c-0.664,0.3-1.457,0.043-1.756-0.557c-0.236-0.45-0.15-0.985,0.236-1.349c0.857-0.835,1.649-1.735,2.378-2.677
		c0.621-0.771,0.643-1.778,0.107-2.592C109.034,98.83,104.107,89.277,102.458,85.978z"/>
	<g id="Layer_1_1_">
	</g>
	<g>
		<path style="fill:#FFFFFF;stroke:#FFFFFF;stroke-width:0.5;stroke-miterlimit:10;" d="M47.987,112.303h-3.406
			c-0.343-0.985-0.664-2.399-0.835-4.091c1.799-0.043,3.577-0.15,5.312-0.3C48.523,109.347,48.158,110.825,47.987,112.303z"/>
		<path style="fill:#FFFFFF;stroke:#FFFFFF;stroke-width:0.5;stroke-miterlimit:10;" d="M34.064,112.303h-3.62
			c-0.985-1.178-2.356-3.149-3.684-5.548c1.992,0.407,4.07,0.728,6.212,0.964C33.165,109.24,33.507,110.761,34.064,112.303z"/>
		<path style="fill:#FFFFFF;stroke:#FFFFFF;stroke-width:0.5;stroke-miterlimit:10;" d="M7.504,88.741
			c0.064,2.485,2.099,4.455,4.584,4.455c0.043,0,0.086,0,0.129,0c0.857-0.021,1.671-0.236,2.399-0.643
			c0.171,12.274,5.034,19.728,5.034,19.728h3.534c0.471-2.956,1.157-5.269,1.992-7.154c4.905,1.2,10.603,1.906,16.707,1.906
			c3.427,0,6.704-0.214,9.81-0.621c1.028,2.549,2.206,4.648,3.063,5.869h3.556c-0.3-2.42-0.236-4.819,0.086-7.09
			c4.327-1.05,7.326-2.485,10.11-4.22l0.942-7.326c-1.178,0.278-2.378,0.064-3.32-0.321c-0.557-0.857-1.842-3.063-3.92-5.633
			c-0.9-1.114-1.864-2.121-2.935-2.913l2.72-7.047c0,0-1.178,0-1.521,0c-2.935,0-5.676,1.842-7.733,3.791
			c-16.772-6.79-34.058-1.949-37.613,7.69c-0.343,0.964-1.499,2.099-2.935,2.142c-1.478,0.043-2.763-1.157-2.806-2.656
			c-0.021-1.092,0.835-2.013,1.928-2.056c0.386,0,0.728,0.129,1.007,0.386c0.278,0.257,0.428,0.6,0.428,0.985
			c0.021,0.514,0.428,0.9,0.921,0.9c0.021,0,0.021,0,0.021,0c0.514-0.021,0.921-0.45,0.9-0.964c0-0.857-0.364-1.671-0.985-2.271
			c-0.643-0.6-1.457-0.921-2.335-0.9C9.132,84.843,7.439,86.621,7.504,88.741z M59.083,91.162c0-0.514,0.428-0.942,0.942-0.942
			c0.535,0,0.942,0.428,0.942,0.942c0,0.535-0.428,0.942-0.942,0.942C59.511,92.104,59.083,91.697,59.083,91.162z"/>
	</g>
</g>
</svg>
